  0
SECTION
  2
HEADER
  9
$ACADVER
  1
AC1009
  9
$DWGCODEPAGE
  3
ansi_1252
  9
$INSBASE
 10
0.0
 20
0.0
 30
0.0
  9
$EXTMIN
 10
19.61409166666666
 20
58.26195555555555
 30
0.0
  9
$EXTMAX
 10
268.822311111111
 20
154.5219583333333
 30
0.0
  9
$LIMMIN
 10
0.0
 20
0.0
  9
$LIMMAX
 10
12.0
 20
9.0
  9
$ORTHOMODE
 70
     0
  9
$REGENMODE
 70
     1
  9
$FILLMODE
 70
     1
  9
$QTEXTMODE
 70
     0
  9
$MIRRTEXT
 70
     1
  9
$DRAGMODE
 70
     2
  9
$LTSCALE
 40
1.0
  9
$OSMODE
 70
    37
  9
$ATTMODE
 70
     1
  9
$TEXTSIZE
 40
0.2
  9
$TRACEWID
 40
0.05
  9
$TEXTSTYLE
  7
STANDARD
  9
$CLAYER
  8
0
  9
$CELTYPE
  6
BYLAYER
  9
$CECOLOR
 62
   256
  9
$DIMSCALE
 40
1.0
  9
$DIMASZ
 40
0.18
  9
$DIMEXO
 40
0.0625
  9
$DIMDLI
 40
0.38
  9
$DIMRND
 40
0.0
  9
$DIMDLE
 40
0.0
  9
$DIMEXE
 40
0.18
  9
$DIMTP
 40
0.0
  9
$DIMTM
 40
0.0
  9
$DIMTXT
 40
0.18
  9
$DIMCEN
 40
0.09
  9
$DIMTSZ
 40
0.0
  9
$DIMTOL
 70
     0
  9
$DIMLIM
 70
     0
  9
$DIMTIH
 70
     1
  9
$DIMTOH
 70
     1
  9
$DIMSE1
 70
     0
  9
$DIMSE2
 70
     0
  9
$DIMTAD
 70
     0
  9
$DIMZIN
 70
     0
  9
$DIMBLK
  1

  9
$DIMASO
 70
     1
  9
$DIMSHO
 70
     1
  9
$DIMPOST
  1

  9
$DIMAPOST
  1

  9
$DIMALT
 70
     0
  9
$DIMALTD
 70
     2
  9
$DIMALTF
 40
25.4
  9
$DIMLFAC
 40
1.0
  9
$DIMTOFL
 70
     0
  9
$DIMTVP
 40
0.0
  9
$DIMTIX
 70
     0
  9
$DIMSOXD
 70
     0
  9
$DIMSAH
 70
     0
  9
$DIMBLK1
  1

  9
$DIMBLK2
  1

  9
$DIMSTYLE
  2
STANDARD
  9
$DIMCLRD
 70
     0
  9
$DIMCLRE
 70
     0
  9
$DIMCLRT
 70
     0
  9
$DIMTFAC
 40
1.0
  9
$DIMGAP
 40
0.09
  9
$LUNITS
 70
     2
  9
$LUPREC
 70
     4
  9
$SKETCHINC
 40
0.1
  9
$FILLETRAD
 40
0.5
  9
$AUNITS
 70
     0
  9
$AUPREC
 70
     0
  9
$MENU
  1
.
  9
$ELEVATION
 40
0.0
  9
$PELEVATION
 40
0.0
  9
$THICKNESS
 40
0.0
  9
$LIMCHECK
 70
     0
  9
$CHAMFERA
 40
0.5
  9
$CHAMFERB
 40
0.5
  9
$SKPOLY
 70
     0
  9
$TDCREATE
 40
2454910.5
  9
$TDUPDATE
 40
2456973.487608785
  9
$TDINDWG
 40
0.0000000116
  9
$TDUSRTIMER
 40
0.0000000116
  9
$USRTIMER
 70
     1
  9
$ANGBASE
 50
0.0
  9
$ANGDIR
 70
     0
  9
$PDMODE
 70
     0
  9
$PDSIZE
 40
0.0
  9
$PLINEWID
 40
0.0
  9
$COORDS
 70
     1
  9
$SPLFRAME
 70
     0
  9
$SPLINETYPE
 70
     6
  9
$SPLINESEGS
 70
     8
  9
$ATTDIA
 70
     0
  9
$ATTREQ
 70
     1
  9
$HANDLING
 70
     1
  9
$HANDSEED
  5
62B
  9
$SURFTAB1
 70
     6
  9
$SURFTAB2
 70
     6
  9
$SURFTYPE
 70
     6
  9
$SURFU
 70
     6
  9
$SURFV
 70
     6
  9
$UCSNAME
  2

  9
$UCSORG
 10
0.0
 20
0.0
 30
0.0
  9
$UCSXDIR
 10
1.0
 20
0.0
 30
0.0
  9
$UCSYDIR
 10
0.0
 20
1.0
 30
0.0
  9
$PUCSNAME
  2

  9
$PUCSORG
 10
0.0
 20
0.0
 30
0.0
  9
$PUCSXDIR
 10
1.0
 20
0.0
 30
0.0
  9
$PUCSYDIR
 10
0.0
 20
1.0
 30
0.0
  9
$USERI1
 70
     0
  9
$USERI2
 70
     0
  9
$USERI3
 70
     0
  9
$USERI4
 70
     0
  9
$USERI5
 70
     0
  9
$USERR1
 40
0.0
  9
$USERR2
 40
0.0
  9
$USERR3
 40
0.0
  9
$USERR4
 40
0.0
  9
$USERR5
 40
0.0
  9
$WORLDVIEW
 70
     1
  9
$SHADEDGE
 70
     3
  9
$SHADEDIF
 70
    70
  9
$TILEMODE
 70
     1
  9
$MAXACTVP
 70
    64
  9
$PLIMCHECK
 70
     0
  9
$PEXTMIN
 10
1.000000000000000E+20
 20
1.000000000000000E+20
 30
1.000000000000000E+20
  9
$PEXTMAX
 10
-1.000000000000000E+20
 20
-1.000000000000000E+20
 30
-1.000000000000000E+20
  9
$PLIMMIN
 10
0.0
 20
0.0
  9
$PLIMMAX
 10
12.0
 20
9.0
  9
$UNITMODE
 70
     0
  9
$VISRETAIN
 70
     1
  9
$PLINEGEN
 70
     0
  9
$PSLTSCALE
 70
     1
  0
ENDSEC
  0
SECTION
  2
TABLES
  0
TABLE
  2
VPORT
 70
     1
  0
VPORT
  2
*ACTIVE
 70
     0
 10
0.0
 20
0.0
 11
1.0
 21
1.0
 12
10.42990654205607
 22
4.5
 13
0.0
 23
0.0
 14
0.5
 24
0.5
 15
0.5
 25
0.5
 16
0.0
 26
0.0
 36
1.0
 17
0.0
 27
0.0
 37
0.0
 40
9.0
 41
1.972972972850329
 42
50.0
 43
0.0
 44
0.0
 50
0.0
 51
0.0
 71
     0
 72
   100
 73
     1
 74
     3
 75
     0
 76
     0
 77
     0
 78
     0
  0
ENDTAB
  0
TABLE
  2
LTYPE
 70
     2
  0
LTYPE
  2
CONTINUOUS
 70
     0
  3
Solid line
 72
    65
 73
     0
 40
0.0
  0
LTYPE
  2
CONTINUOUS2
 70
     0
  3
Solid Line
 72
    65
 73
     0
 40
0.0
  0
ENDTAB
  0
TABLE
  2
LAYER
 70
     2
  0
LAYER
  2
0
 70
     0
 62
     7
  6
CONTINUOUS
  0
LAYER
  2
LAYER_1
 70
     0
 62
    18
  6
CONTINUOUS
  0
ENDTAB
  0
TABLE
  2
STYLE
 70
     1
  0
STYLE
  2
STANDARD
 70
     0
 40
0.0
 41
1.0
 50
0.0
 71
     0
 42
0.2
  3
txt
  4

  0
ENDTAB
  0
TABLE
  2
VIEW
 70
     0
  0
ENDTAB
  0
TABLE
  2
UCS
 70
     0
  0
ENDTAB
  0
TABLE
  2
APPID
 70
     1
  0
APPID
  2
ACAD
 70
     0
  0
ENDTAB
  0
TABLE
  2
DIMSTYLE
 70
     1
  0
DIMSTYLE
  2
STANDARD
 70
     0
  3

  4

  5

  6

  7

 40
1.0
 41
0.18
 42
0.0625
 43
0.38
 44
0.18
 45
0.0
 46
0.0
 47
0.0
 48
0.0
140
0.18
141
0.09
142
0.0
143
25.4
144
1.0
145
0.0
146
1.0
147
0.09
 71
     0
 72
     0
 73
     1
 74
     1
 75
     0
 76
     0
 77
     0
 78
     0
170
     0
171
     2
172
     0
173
     0
174
     0
175
     0
176
     0
177
     0
178
     0
  0
ENDTAB
  0
ENDSEC
  0
SECTION
  2
BLOCKS
  0
BLOCK
  8
0
  2
$MODEL_SPACE
 70
     0
 10
0.0
 20
0.0
 30
0.0
  3
$MODEL_SPACE
  1

  0
ENDBLK
  5
21
  8
0
  0
BLOCK
 67
     1
  8
0
  2
$PAPER_SPACE
 70
     0
 10
0.0
 20
0.0
 30
0.0
  3
$PAPER_SPACE
  1

  0
ENDBLK
  5
1D
 67
     1
  8
0
  0
ENDSEC
  0
SECTION
  2
ENTITIES
  0
POLYLINE
  5
41
  8
LAYER_1
 66
     1
 10
0.0
 20
0.0
 30
0.0
 70
     1
  0
VERTEX
  5
51
  8
LAYER_1
 10
84.96088333333333
 20
121.6910472222222
 30
0.0
  0
VERTEX
  5
52
  8
LAYER_1
 10
70.46312777777777
 20
121.6910472222222
 30
0.0
  0
VERTEX
  5
53
  8
LAYER_1
 10
70.26724128485785
 20
121.7009296508789
 30
0.0
  0
VERTEX
  5
54
  8
LAYER_1
 10
70.07697046983506
 20
121.729939594184
 30
0.0
  0
VERTEX
  5
55
  8
LAYER_1
 10
69.89328426581488
 20
121.7771210381402
 30
0.0
  0
VERTEX
  5
56
  8
LAYER_1
 10
69.71715160590277
 20
121.84151796875
 30
0.0
  0
VERTEX
  5
57
  8
LAYER_1
 10
69.5495414232042
 20
121.9221743720161
 30
0.0
  0
VERTEX
  5
58
  8
LAYER_1
 10
69.39142265082464
 20
122.018134233941
 30
0.0
  0
VERTEX
  5
59
  8
LAYER_1
 10
69.24376422186955
 20
122.1284415405273
 30
0.0
  0
VERTEX
  5
5A
  8
LAYER_1
 10
69.10753506944444
 20
122.2521402777778
 30
0.0
  0
VERTEX
  5
5B
  8
LAYER_1
 10
68.98370412665473
 20
122.3882744316949
 30
0.0
  0
VERTEX
  5
5C
  8
LAYER_1
 10
68.8732403266059
 20
122.5358879882812
 30
0.0
  0
VERTEX
  5
5D
  8
LAYER_1
 10
68.77711260240342
 20
122.6940249335395
 30
0.0
  0
VERTEX
  5
5E
  8
LAYER_1
 10
68.69628988715277
 20
122.8617292534722
 30
0.0
  0
VERTEX
  5
5F
  8
LAYER_1
 10
68.63174111395942
 20
123.038044934082
 30
0.0
  0
VERTEX
  5
60
  8
LAYER_1
 10
68.58443521592882
 20
123.2220159613715
 30
0.0
  0
VERTEX
  5
61
  8
LAYER_1
 10
68.55534112616644
 20
123.4126863213433
 30
0.0
  0
VERTEX
  5
62
  8
LAYER_1
 10
68.54542777777777
 20
123.6091
 30
0.0
  0
VERTEX
  5
63
  8
LAYER_1
 10
68.55534112616644
 20
123.8054515808105
 30
0.0
  0
VERTEX
  5
64
  8
LAYER_1
 10
68.58443521592882
 20
123.996067594401
 30
0.0
  0
VERTEX
  5
65
  8
LAYER_1
 10
68.63174111395942
 20
124.1799915100098
 30
0.0
  0
VERTEX
  5
66
  8
LAYER_1
 10
68.69628988715277
 20
124.356266796875
 30
0.0
  0
VERTEX
  5
67
  8
LAYER_1
 10
68.77711260240342
 20
124.523936924235
 30
0.0
  0
VERTEX
  5
68
  8
LAYER_1
 10
68.8732403266059
 20
124.6820453613281
 30
0.0
  0
VERTEX
  5
69
  8
LAYER_1
 10
68.98370412665473
 20
124.8296355773926
 30
0.0
  0
VERTEX
  5
6A
  8
LAYER_1
 10
69.10753506944444
 20
124.9657510416667
 30
0.0
  0
VERTEX
  5
6B
  8
LAYER_1
 10
69.24376422186955
 20
125.0894352233887
 30
0.0
  0
VERTEX
  5
6C
  8
LAYER_1
 10
69.39142265082464
 20
125.1997315917969
 30
0.0
  0
VERTEX
  5
6D
  8
LAYER_1
 10
69.5495414232042
 20
125.2956836161296
 30
0.0
  0
VERTEX
  5
6E
  8
LAYER_1
 10
69.71715160590277
 20
125.376334765625
 30
0.0
  0
VERTEX
  5
6F
  8
LAYER_1
 10
69.89328426581488
 20
125.4407285095215
 30
0.0
  0
VERTEX
  5
70
  8
LAYER_1
 10
70.07697046983506
 20
125.4879083170573
 30
0.0
  0
VERTEX
  5
71
  8
LAYER_1
 10
70.26724128485785
 20
125.5169176574707
 30
0.0
  0
VERTEX
  5
72
  8
LAYER_1
 10
70.46312777777777
 20
125.5268
 30
0.0
  0
VERTEX
  5
73
  8
LAYER_1
 10
83.04283055555554
 20
125.5268
 30
0.0
  0
VERTEX
  5
74
  8
LAYER_1
 10
83.04283055555554
 20
130.8608
 30
0.0
  0
VERTEX
  5
75
  8
LAYER_1
 10
83.05477865269978
 20
131.3316161154853
 30
0.0
  0
VERTEX
  5
76
  8
LAYER_1
 10
83.09023636135524
 20
131.7963368665907
 30
0.0
  0
VERTEX
  5
77
  8
LAYER_1
 10
83.14862380735607
 20
132.2543817977905
 30
0.0
  0
VERTEX
  5
78
  8
LAYER_1
 10
83.22936111653644
 20
132.705170453559
 30
0.0
  0
VERTEX
  5
79
  8
LAYER_1
 10
83.33186841473048
 20
133.1481223783705
 30
0.0
  0
VERTEX
  5
7A
  8
LAYER_1
 10
83.45556582777233
 20
133.5826571166992
 30
0.0
  0
VERTEX
  5
7B
  8
LAYER_1
 10
83.59987348149616
 20
134.0081942130195
 30
0.0
  0
VERTEX
  5
7C
  8
LAYER_1
 10
83.7642115017361
 20
134.4241532118056
 30
0.0
  0
VERTEX
  5
7D
  8
LAYER_1
 10
83.94800001432631
 20
134.8299536575317
 30
0.0
  0
VERTEX
  5
7E
  8
LAYER_1
 10
84.15065914510092
 20
135.2250150946723
 30
0.0
  0
VERTEX
  5
7F
  8
LAYER_1
 10
84.37160901989407
 20
135.6087570677016
 30
0.0
  0
VERTEX
  5
80
  8
LAYER_1
 10
84.61026976453994
 20
135.9805991210937
 30
0.0
  0
VERTEX
  5
81
  8
LAYER_1
 10
84.86606150487263
 20
136.3399607993232
 30
0.0
  0
VERTEX
  5
82
  8
LAYER_1
 10
85.13840436672633
 20
136.6862616468642
 30
0.0
  0
VERTEX
  5
83
  8
LAYER_1
 10
85.42671847593519
 20
137.0189212081909
 30
0.0
  0
VERTEX
  5
84
  8
LAYER_1
 10
85.73042395833332
 20
137.3373590277778
 30
0.0
  0
VERTEX
  5
85
  8
LAYER_1
 10
86.0489409397549
 20
137.640994650099
 30
0.0
  0
VERTEX
  5
86
  8
LAYER_1
 10
86.38168954603405
 20
137.9292476196289
 30
0.0
  0
VERTEX
  5
87
  8
LAYER_1
 10
86.72808990300494
 20
138.2015374808418
 30
0.0
  0
VERTEX
  5
88
  8
LAYER_1
 10
87.08756213650172
 20
138.4572837782118
 30
0.0
  0
VERTEX
  5
89
  8
LAYER_1
 10
87.45952637235851
 20
138.6959060562134
 30
0.0
  0
VERTEX
  5
8A
  8
LAYER_1
 10
87.84340273640949
 20
138.9168238593207
 30
0.0
  0
VERTEX
  5
8B
  8
LAYER_1
 10
88.2386113544888
 20
139.1194567320082
 30
0.0
  0
VERTEX
  5
8C
  8
LAYER_1
 10
88.64457235243054
 20
139.30322421875
 30
0.0
  0
VERTEX
  5
8D
  8
LAYER_1
 10
89.06070585606892
 20
139.4675458640205
 30
0.0
  0
VERTEX
  5
8E
  8
LAYER_1
 10
89.48643199123805
 20
139.6118412122938
 30
0.0
  0
VERTEX
  5
8F
  8
LAYER_1
 10
89.9211708837721
 20
139.7355298080444
 30
0.0
  0
VERTEX
  5
90
  8
LAYER_1
 10
90.3643426595052
 20
139.8380311957465
 30
0.0
  0
VERTEX
  5
91
  8
LAYER_1
 10
90.81536744427149
 20
139.9187649198744
 30
0.0
  0
VERTEX
  5
92
  8
LAYER_1
 10
91.27366536390515
 20
139.9771505249023
 30
0.0
  0
VERTEX
  5
93
  8
LAYER_1
 10
91.73865654424031
 20
140.0126075553046
 30
0.0
  0
VERTEX
  5
94
  8
LAYER_1
 10
92.2097611111111
 20
140.0245555555555
 30
0.0
  0
VERTEX
  5
95
  8
LAYER_1
 10
121.0997916666666
 20
140.0245555555555
 30
0.0
  0
VERTEX
  5
96
  8
LAYER_1
 10
121.0997916666666
 20
152.6039055555555
 30
0.0
  0
VERTEX
  5
97
  8
LAYER_1
 10
121.1097050150553
 20
152.8003192342122
 30
0.0
  0
VERTEX
  5
98
  8
LAYER_1
 10
121.1387991048177
 20
152.990989594184
 30
0.0
  0
VERTEX
  5
99
  8
LAYER_1
 10
121.1861050028483
 20
153.1749606214735
 30
0.0
  0
VERTEX
  5
9A
  8
LAYER_1
 10
121.2506537760416
 20
153.3512763020833
 30
0.0
  0
VERTEX
  5
9B
  8
LAYER_1
 10
121.3314764912923
 20
153.518980622016
 30
0.0
  0
VERTEX
  5
9C
  8
LAYER_1
 10
121.4276042154948
 20
153.6771175672743
 30
0.0
  0
VERTEX
  5
9D
  8
LAYER_1
 10
121.5380680155436
 20
153.8247311238607
 30
0.0
  0
VERTEX
  5
9E
  8
LAYER_1
 10
121.6618989583333
 20
153.9608652777778
 30
0.0
  0
VERTEX
  5
9F
  8
LAYER_1
 10
121.7981281107585
 20
154.0845640150282
 30
0.0
  0
VERTEX
  5
A0
  8
LAYER_1
 10
121.9457865397135
 20
154.1948713216146
 30
0.0
  0
VERTEX
  5
A1
  8
LAYER_1
 10
122.1039053120931
 20
154.2908311835395
 30
0.0
  0
VERTEX
  5
A2
  8
LAYER_1
 10
122.2715154947916
 20
154.3714875868056
 30
0.0
  0
VERTEX
  5
A3
  8
LAYER_1
 10
122.4476481547038
 20
154.4358845174154
 30
0.0
  0
VERTEX
  5
A4
  8
LAYER_1
 10
122.6313343587239
 20
154.4830659613715
 30
0.0
  0
VERTEX
  5
A5
  8
LAYER_1
 10
122.8216051737467
 20
154.5120759046766
 30
0.0
  0
VERTEX
  5
A6
  8
LAYER_1
 10
123.0174916666667
 20
154.5219583333333
 30
0.0
  0
VERTEX
  5
A7
  8
LAYER_1
 10
123.2134402574327
 20
154.5120759046766
 30
0.0
  0
VERTEX
  5
A8
  8
LAYER_1
 10
123.4037654188368
 20
154.4830659613715
 30
0.0
  0
VERTEX
  5
A9
  8
LAYER_1
 10
123.5874987345377
 20
154.4358845174154
 30
0.0
  0
VERTEX
  5
AA
  8
LAYER_1
 10
123.7636717881944
 20
154.3714875868056
 30
0.0
  0
VERTEX
  5
AB
  8
LAYER_1
 10
123.9313161634657
 20
154.2908311835395
 30
0.0
  0
VERTEX
  5
AC
  8
LAYER_1
 10
124.0894634440104
 20
154.1948713216146
 30
0.0
  0
VERTEX
  5
AD
  8
LAYER_1
 10
124.2371452134874
 20
154.0845640150282
 30
0.0
  0
VERTEX
  5
AE
  8
LAYER_1
 10
124.3733930555555
 20
153.9608652777778
 30
0.0
  0
VERTEX
  5
AF
  8
LAYER_1
 10
124.4972385538737
 20
153.8247311238607
 30
0.0
  0
VERTEX
  5
B0
  8
LAYER_1
 10
124.6077132921007
 20
153.6771175672743
 30
0.0
  0
VERTEX
  5
B1
  8
LAYER_1
 10
124.7038488538954
 20
153.518980622016
 30
0.0
  0
VERTEX
  5
B2
  8
LAYER_1
 10
124.7846768229167
 20
153.3512763020833
 30
0.0
  0
VERTEX
  5
B3
  8
LAYER_1
 10
124.8492287828234
 20
153.1749606214735
 30
0.0
  0
VERTEX
  5
B4
  8
LAYER_1
 10
124.8965363172743
 20
152.990989594184
 30
0.0
  0
VERTEX
  5
B5
  8
LAYER_1
 10
124.9256310099284
 20
152.8003192342122
 30
0.0
  0
VERTEX
  5
B6
  8
LAYER_1
 10
124.9355444444444
 20
152.6039055555555
 30
0.0
  0
VERTEX
  5
B7
  8
LAYER_1
 10
124.9355444444444
 20
138.1065027777778
 30
0.0
  0
VERTEX
  5
B8
  8
LAYER_1
 10
124.9256310099284
 20
137.9105581488715
 30
0.0
  0
VERTEX
  5
B9
  8
LAYER_1
 10
124.8965363172743
 20
137.7202441840278
 30
0.0
  0
VERTEX
  5
BA
  8
LAYER_1
 10
124.8492287828234
 20
137.536528266059
 30
0.0
  0
VERTEX
  5
BB
  8
LAYER_1
 10
124.7846768229167
 20
137.3603777777778
 30
0.0
  0
VERTEX
  5
BC
  8
LAYER_1
 10
124.7038488538954
 20
137.1927601019965
 30
0.0
  0
VERTEX
  5
BD
  8
LAYER_1
 10
124.6077132921007
 20
137.0346426215278
 30
0.0
  0
VERTEX
  5
BE
  8
LAYER_1
 10
124.4972385538737
 20
136.886992719184
 30
0.0
  0
VERTEX
  5
BF
  8
LAYER_1
 10
124.3733930555555
 20
136.7507777777778
 30
0.0
  0
VERTEX
  5
C0
  8
LAYER_1
 10
124.2371452134874
 20
136.6269651801215
 30
0.0
  0
VERTEX
  5
C1
  8
LAYER_1
 10
124.0894634440104
 20
136.5165223090278
 30
0.0
  0
VERTEX
  5
C2
  8
LAYER_1
 10
123.9313161634657
 20
136.420416547309
 30
0.0
  0
VERTEX
  5
C3
  8
LAYER_1
 10
123.7636717881944
 20
136.3396152777778
 30
0.0
  0
VERTEX
  5
C4
  8
LAYER_1
 10
123.5874987345377
 20
136.2750858832465
 30
0.0
  0
VERTEX
  5
C5
  8
LAYER_1
 10
123.4037654188368
 20
136.2277957465278
 30
0.0
  0
VERTEX
  5
C6
  8
LAYER_1
 10
123.2134402574327
 20
136.198712250434
 30
0.0
  0
VERTEX
  5
C7
  8
LAYER_1
 10
123.0174916666667
 20
136.1888027777778
 30
0.0
  0
VERTEX
  5
C8
  8
LAYER_1
 10
92.2097611111111
 20
136.1888027777778
 30
0.0
  0
VERTEX
  5
C9
  8
LAYER_1
 10
91.93585890214706
 20
136.1818598445468
 30
0.0
  0
VERTEX
  5
CA
  8
LAYER_1
 10
91.66550440945095
 20
136.1612555358887
 30
0.0
  0
VERTEX
  5
CB
  8
LAYER_1
 10
91.39903520931668
 20
136.1273265883552
 30
0.0
  0
VERTEX
  5
CC
  8
LAYER_1
 10
91.1367888780382
 20
136.0804097384982
 30
0.0
  0
VERTEX
  5
CD
  8
LAYER_1
 10
90.87910299190946
 20
136.0208417228699
 30
0.0
  0
VERTEX
  5
CE
  8
LAYER_1
 10
90.6263151272244
 20
135.9489592780219
 30
0.0
  0
VERTEX
  5
CF
  8
LAYER_1
 10
90.37876286027698
 20
135.8650991405063
 30
0.0
  0
VERTEX
  5
D0
  8
LAYER_1
 10
90.13678376736112
 20
135.769598046875
 30
0.0
  0
VERTEX
  5
D1
  8
LAYER_1
 10
89.90071542477078
 20
135.6627927336799
 30
0.0
  0
VERTEX
  5
D2
  8
LAYER_1
 10
89.67089540879991
 20
135.5450199374729
 30
0.0
  0
VERTEX
  5
D3
  8
LAYER_1
 10
89.44766129574245
 20
135.4166163948059
 30
0.0
  0
VERTEX
  5
D4
  8
LAYER_1
 10
89.23135066189235
 20
135.2779188422309
 30
0.0
  0
VERTEX
  5
D5
  8
LAYER_1
 10
89.02230108354357
 20
135.1292640162998
 30
0.0
  0
VERTEX
  5
D6
  8
LAYER_1
 10
88.82085013699002
 20
134.9709886535645
 30
0.0
  0
VERTEX
  5
D7
  8
LAYER_1
 10
88.62733539852567
 20
134.8034294905768
 30
0.0
  0
VERTEX
  5
D8
  8
LAYER_1
 10
88.44209444444445
 20
134.6269232638889
 30
0.0
  0
VERTEX
  5
D9
  8
LAYER_1
 10
88.26546485104032
 20
134.4418067100525
 30
0.0
  0
VERTEX
  5
DA
  8
LAYER_1
 10
88.09778419460721
 20
134.2484165656196
 30
0.0
  0
VERTEX
  5
DB
  8
LAYER_1
 10
87.93939005143906
 20
134.047089567142
 30
0.0
  0
VERTEX
  5
DC
  8
LAYER_1
 10
87.79061999782985
 20
133.8381624511719
 30
0.0
  0
VERTEX
  5
DD
  8
LAYER_1
 10
87.65181161007351
 20
133.6219719542609
 30
0.0
  0
VERTEX
  5
DE
  8
LAYER_1
 10
87.52330246446397
 20
133.3988548129611
 30
0.0
  0
VERTEX
  5
DF
  8
LAYER_1
 10
87.40543013729518
 20
133.1691477638245
 30
0.0
  0
VERTEX
  5
E0
  8
LAYER_1
 10
87.2985322048611
 20
132.9331875434028
 30
0.0
  0
VERTEX
  5
E1
  8
LAYER_1
 10
87.20294624345567
 20
132.691310888248
 30
0.0
  0
VERTEX
  5
E2
  8
LAYER_1
 10
87.11900982937283
 20
132.4438545349121
 30
0.0
  0
VERTEX
  5
E3
  8
LAYER_1
 10
87.04706053890652
 20
132.1911552199469
 30
0.0
  0
VERTEX
  5
E4
  8
LAYER_1
 10
86.9874359483507
 20
131.9335496799045
 30
0.0
  0
VERTEX
  5
E5
  8
LAYER_1
 10
86.94047363399929
 20
131.6713746513366
 30
0.0
  0
VERTEX
  5
E6
  8
LAYER_1
 10
86.90651117214625
 20
131.4049668707954
 30
0.0
  0
VERTEX
  5
E7
  8
LAYER_1
 10
86.88588613908554
 20
131.1346630748325
 30
0.0
  0
VERTEX
  5
E8
  8
LAYER_1
 10
86.8789361111111
 20
130.8608
 30
0.0
  0
VERTEX
  5
E9
  8
LAYER_1
 10
86.8789361111111
 20
123.6091
 30
0.0
  0
VERTEX
  5
EA
  8
LAYER_1
 10
86.86902267659504
 20
123.4126863213433
 30
0.0
  0
VERTEX
  5
EB
  8
LAYER_1
 10
86.83992798394095
 20
123.2220159613715
 30
0.0
  0
VERTEX
  5
EC
  8
LAYER_1
 10
86.79262044949002
 20
123.038044934082
 30
0.0
  0
VERTEX
  5
ED
  8
LAYER_1
 10
86.72806848958334
 20
122.8617292534722
 30
0.0
  0
VERTEX
  5
EE
  8
LAYER_1
 10
86.64724052056206
 20
122.6940249335395
 30
0.0
  0
VERTEX
  5
EF
  8
LAYER_1
 10
86.55110495876735
 20
122.5358879882812
 30
0.0
  0
VERTEX
  5
F0
  8
LAYER_1
 10
86.44063022054036
 20
122.3882744316949
 30
0.0
  0
VERTEX
  5
F1
  8
LAYER_1
 10
86.31678472222222
 20
122.2521402777778
 30
0.0
  0
VERTEX
  5
F2
  8
LAYER_1
 10
86.18053688015408
 20
122.1284415405273
 30
0.0
  0
VERTEX
  5
F3
  8
LAYER_1
 10
86.03285511067708
 20
122.018134233941
 30
0.0
  0
VERTEX
  5
F4
  8
LAYER_1
 10
85.8747078301324
 20
121.9221743720161
 30
0.0
  0
VERTEX
  5
F5
  8
LAYER_1
 10
85.70706345486111
 20
121.84151796875
 30
0.0
  0
VERTEX
  5
F6
  8
LAYER_1
 10
85.53089040120443
 20
121.7771210381402
 30
0.0
  0
VERTEX
  5
F7
  8
LAYER_1
 10
85.34715708550347
 20
121.729939594184
 30
0.0
  0
VERTEX
  5
F8
  8
LAYER_1
 10
85.1568319240994
 20
121.7009296508789
 30
0.0
  0
SEQEND
  5
F9
  8
LAYER_1
  0
POLYLINE
  5
42
  8
LAYER_1
 66
     1
 10
0.0
 20
0.0
 30
0.0
 70
     1
  0
VERTEX
  5
FA
  8
LAYER_1
 10
133.8925722222222
 20
58.26195555555555
 30
0.0
  0
VERTEX
  5
FB
  8
LAYER_1
 10
133.6961585435655
 20
58.27186899007161
 30
0.0
  0
VERTEX
  5
FC
  8
LAYER_1
 10
133.5054881835937
 20
58.30096368272569
 30
0.0
  0
VERTEX
  5
FD
  8
LAYER_1
 10
133.3215171563043
 20
58.34827121717664
 30
0.0
  0
VERTEX
  5
FE
  8
LAYER_1
 10
133.1452014756944
 20
58.41282317708333
 30
0.0
  0
VERTEX
  5
FF
  8
LAYER_1
 10
132.9774971557617
 20
58.4936511461046
 30
0.0
  0
VERTEX
  5
100
  8
LAYER_1
 10
132.8193602105035
 20
58.5897867078993
 30
0.0
  0
VERTEX
  5
101
  8
LAYER_1
 10
132.6717466539171
 20
58.7002614461263
 30
0.0
  0
VERTEX
  5
102
  8
LAYER_1
 10
132.5356125
 20
58.82410694444444
 30
0.0
  0
VERTEX
  5
103
  8
LAYER_1
 10
132.4119137627496
 20
58.96035478651258
 30
0.0
  0
VERTEX
  5
104
  8
LAYER_1
 10
132.3016064561632
 20
59.10803655598957
 30
0.0
  0
VERTEX
  5
105
  8
LAYER_1
 10
132.2056465942383
 20
59.26618383653428
 30
0.0
  0
VERTEX
  5
106
  8
LAYER_1
 10
132.1249901909722
 20
59.43382821180555
 30
0.0
  0
VERTEX
  5
107
  8
LAYER_1
 10
132.0605932603624
 20
59.61000126546224
 30
0.0
  0
VERTEX
  5
108
  8
LAYER_1
 10
132.0134118164062
 20
59.79373458116319
 30
0.0
  0
VERTEX
  5
109
  8
LAYER_1
 10
131.9844018731011
 20
59.98405974256727
 30
0.0
  0
VERTEX
  5
10A
  8
LAYER_1
 10
131.9745194444444
 20
60.18000833333333
 30
0.0
  0
VERTEX
  5
10B
  8
LAYER_1
 10
131.9745194444444
 20
74.68023333333333
 30
0.0
  0
VERTEX
  5
10C
  8
LAYER_1
 10
131.9844018731011
 20
74.87612378811306
 30
0.0
  0
VERTEX
  5
10D
  8
LAYER_1
 10
132.0134118164062
 20
75.06640579969616
 30
0.0
  0
VERTEX
  5
10E
  8
LAYER_1
 10
132.0605932603624
 20
75.25010940144855
 30
0.0
  0
VERTEX
  5
10F
  8
LAYER_1
 10
132.1249901909722
 20
75.4262646267361
 30
0.0
  0
VERTEX
  5
110
  8
LAYER_1
 10
132.2056465942383
 20
75.59390150892469
 30
0.0
  0
VERTEX
  5
111
  8
LAYER_1
 10
132.3016064561632
 20
75.7520500813802
 30
0.0
  0
VERTEX
  5
112
  8
LAYER_1
 10
132.4119137627496
 20
75.89974037746853
 30
0.0
  0
VERTEX
  5
113
  8
LAYER_1
 10
132.5356125
 20
76.03600243055556
 30
0.0
  0
VERTEX
  5
114
  8
LAYER_1
 10
132.6717466539171
 20
76.15986627400716
 30
0.0
  0
VERTEX
  5
115
  8
LAYER_1
 10
132.8193602105035
 20
76.27036194118924
 30
0.0
  0
VERTEX
  5
116
  8
LAYER_1
 10
132.9774971557617
 20
76.36651946546766
 30
0.0
  0
VERTEX
  5
117
  8
LAYER_1
 10
133.1452014756944
 20
76.44736888020834
 30
0.0
  0
VERTEX
  5
118
  8
LAYER_1
 10
133.3215171563043
 20
76.51194021877714
 30
0.0
  0
VERTEX
  5
119
  8
LAYER_1
 10
133.5054881835937
 20
76.55926351453994
 30
0.0
  0
VERTEX
  5
11A
  8
LAYER_1
 10
133.6961585435655
 20
76.58836880086263
 30
0.0
  0
VERTEX
  5
11B
  8
LAYER_1
 10
133.8925722222222
 20
76.59828611111111
 30
0.0
  0
VERTEX
  5
11C
  8
LAYER_1
 10
141.14145
 20
76.59828611111111
 30
0.0
  0
VERTEX
  5
11D
  8
LAYER_1
 10
141.4153211708069
 20
76.60522803234522
 30
0.0
  0
VERTEX
  5
11E
  8
LAYER_1
 10
141.6856485656738
 20
76.62582939114041
 30
0.0
  0
VERTEX
  5
11F
  8
LAYER_1
 10
141.9520944145202
 20
76.65975358013577
 30
0.0
  0
VERTEX
  5
120
  8
LAYER_1
 10
142.2143209472656
 20
76.70666399197049
 30
0.0
  0
VERTEX
  5
121
  8
LAYER_1
 10
142.4719903938293
 20
76.76622401928373
 30
0.0
  0
VERTEX
  5
122
  8
LAYER_1
 10
142.7247649841308
 20
76.83809705471464
 30
0.0
  0
VERTEX
  5
123
  8
LAYER_1
 10
142.9723069480896
 20
76.92194649090239
 30
0.0
  0
VERTEX
  5
124
  8
LAYER_1
 10
143.214278515625
 20
77.01743572048612
 30
0.0
  0
VERTEX
  5
125
  8
LAYER_1
 10
143.4503419166565
 20
77.12422813610502
 30
0.0
  0
VERTEX
  5
126
  8
LAYER_1
 10
143.6801593811035
 20
77.24198713039823
 30
0.0
  0
VERTEX
  5
127
  8
LAYER_1
 10
143.9033931388855
 20
77.37037609600492
 30
0.0
  0
VERTEX
  5
128
  8
LAYER_1
 10
144.1197054199218
 20
77.50905842556423
 30
0.0
  0
VERTEX
  5
129
  8
LAYER_1
 10
144.328758454132
 20
77.65769751171536
 30
0.0
  0
VERTEX
  5
12A
  8
LAYER_1
 10
144.5302144714355
 20
77.81595674709743
 30
0.0
  0
VERTEX
  5
12B
  8
LAYER_1
 10
144.7237357017517
 20
77.98349952434964
 30
0.0
  0
VERTEX
  5
12C
  8
LAYER_1
 10
144.908984375
 20
78.1599892361111
 30
0.0
  0
VERTEX
  5
12D
  8
LAYER_1
 10
145.0856227210998
 20
78.34508927502102
 30
0.0
  0
VERTEX
  5
12E
  8
LAYER_1
 10
145.2533129699707
 20
78.53846303371853
 30
0.0
  0
VERTEX
  5
12F
  8
LAYER_1
 10
145.4117173515319
 20
78.73977390484279
 30
0.0
  0
VERTEX
  5
130
  8
LAYER_1
 10
145.5604980957031
 20
78.94868528103298
 30
0.0
  0
VERTEX
  5
131
  8
LAYER_1
 10
145.6993174324035
 20
79.16486055492825
 30
0.0
  0
VERTEX
  5
132
  8
LAYER_1
 10
145.8278375915527
 20
79.38796311916775
 30
0.0
  0
VERTEX
  5
133
  8
LAYER_1
 10
145.9457208030701
 20
79.61765636639065
 30
0.0
  0
VERTEX
  5
134
  8
LAYER_1
 10
146.052629296875
 20
79.85360368923611
 30
0.0
  0
VERTEX
  5
135
  8
LAYER_1
 10
146.1482253028869
 20
80.0954684803433
 30
0.0
  0
VERTEX
  5
136
  8
LAYER_1
 10
146.2321710510254
 20
80.34291413235134
 30
0.0
  0
VERTEX
  5
137
  8
LAYER_1
 10
146.3041287712097
 20
80.59560403789943
 30
0.0
  0
VERTEX
  5
138
  8
LAYER_1
 10
146.3637606933594
 20
80.85320158962674
 30
0.0
  0
VERTEX
  5
139
  8
LAYER_1
 10
146.4107290473938
 20
81.11537018017239
 30
0.0
  0
VERTEX
  5
13A
  8
LAYER_1
 10
146.4446960632324
 20
81.38177320217557
 30
0.0
  0
VERTEX
  5
13B
  8
LAYER_1
 10
146.4653239707947
 20
81.65207404827541
 30
0.0
  0
VERTEX
  5
13C
  8
LAYER_1
 10
146.472275
 20
81.9259361111111
 30
0.0
  0
VERTEX
  5
13D
  8
LAYER_1
 10
146.472275
 20
112.7368416666667
 30
0.0
  0
VERTEX
  5
13E
  8
LAYER_1
 10
146.4821574286567
 20
112.9327902574327
 30
0.0
  0
VERTEX
  5
13F
  8
LAYER_1
 10
146.5111673719618
 20
113.1231154188368
 30
0.0
  0
VERTEX
  5
140
  8
LAYER_1
 10
146.558348815918
 20
113.3068487345378
 30
0.0
  0
VERTEX
  5
141
  8
LAYER_1
 10
146.6227457465278
 20
113.4830217881944
 30
0.0
  0
VERTEX
  5
142
  8
LAYER_1
 10
146.7034021497938
 20
113.6506661634657
 30
0.0
  0
VERTEX
  5
143
  8
LAYER_1
 10
146.7993620117188
 20
113.8088134440104
 30
0.0
  0
VERTEX
  5
144
  8
LAYER_1
 10
146.9096693183051
 20
113.9564952134874
 30
0.0
  0
VERTEX
  5
145
  8
LAYER_1
 10
147.0333680555556
 20
114.0927430555555
 30
0.0
  0
VERTEX
  5
146
  8
LAYER_1
 10
147.1695022094727
 20
114.2165885538737
 30
0.0
  0
VERTEX
  5
147
  8
LAYER_1
 10
147.317115766059
 20
114.3270632921007
 30
0.0
  0
VERTEX
  5
148
  8
LAYER_1
 10
147.4752527113173
 20
114.4231988538954
 30
0.0
  0
VERTEX
  5
149
  8
LAYER_1
 10
147.64295703125
 20
114.5040268229166
 30
0.0
  0
VERTEX
  5
14A
  8
LAYER_1
 10
147.8192727118598
 20
114.5685787828233
 30
0.0
  0
VERTEX
  5
14B
  8
LAYER_1
 10
148.0032437391493
 20
114.6158863172743
 30
0.0
  0
VERTEX
  5
14C
  8
LAYER_1
 10
148.1939140991211
 20
114.6449810099284
 30
0.0
  0
VERTEX
  5
14D
  8
LAYER_1
 10
148.3903277777778
 20
114.6548944444444
 30
0.0
  0
VERTEX
  5
14E
  8
LAYER_1
 10
162.8849083333333
 20
114.6548944444444
 30
0.0
  0
VERTEX
  5
14F
  8
LAYER_1
 10
163.08132201199
 20
114.6449810099284
 30
0.0
  0
VERTEX
  5
150
  8
LAYER_1
 10
163.2719923719618
 20
114.6158863172743
 30
0.0
  0
VERTEX
  5
151
  8
LAYER_1
 10
163.4559633992513
 20
114.5685787828233
 30
0.0
  0
VERTEX
  5
152
  8
LAYER_1
 10
163.6322790798611
 20
114.5040268229166
 30
0.0
  0
VERTEX
  5
153
  8
LAYER_1
 10
163.7999833997938
 20
114.4231988538954
 30
0.0
  0
VERTEX
  5
154
  8
LAYER_1
 10
163.9581203450521
 20
114.3270632921007
 30
0.0
  0
VERTEX
  5
155
  8
LAYER_1
 10
164.1057339016384
 20
114.2165885538737
 30
0.0
  0
VERTEX
  5
156
  8
LAYER_1
 10
164.2418680555555
 20
114.0927430555555
 30
0.0
  0
VERTEX
  5
157
  8
LAYER_1
 10
164.365566792806
 20
113.9564952134874
 30
0.0
  0
VERTEX
  5
158
  8
LAYER_1
 10
164.4758740993923
 20
113.8088134440104
 30
0.0
  0
VERTEX
  5
159
  8
LAYER_1
 10
164.5718339613173
 20
113.6506661634657
 30
0.0
  0
VERTEX
  5
15A
  8
LAYER_1
 10
164.6524903645833
 20
113.4830217881944
 30
0.0
  0
VERTEX
  5
15B
  8
LAYER_1
 10
164.7168872951931
 20
113.3068487345378
 30
0.0
  0
VERTEX
  5
15C
  8
LAYER_1
 10
164.7640687391493
 20
113.1231154188368
 30
0.0
  0
VERTEX
  5
15D
  8
LAYER_1
 10
164.7930786824544
 20
112.9327902574327
 30
0.0
  0
VERTEX
  5
15E
  8
LAYER_1
 10
164.8029611111111
 20
112.7368416666667
 30
0.0
  0
VERTEX
  5
15F
  8
LAYER_1
 10
164.7930786824544
 20
112.5404900858561
 30
0.0
  0
VERTEX
  5
160
  8
LAYER_1
 10
164.7640687391493
 20
112.3498740722656
 30
0.0
  0
VERTEX
  5
161
  8
LAYER_1
 10
164.7168872951931
 20
112.1659501566569
 30
0.0
  0
VERTEX
  5
162
  8
LAYER_1
 10
164.6524903645833
 20
111.9896748697917
 30
0.0
  0
VERTEX
  5
163
  8
LAYER_1
 10
164.5718339613173
 20
111.8220047424316
 30
0.0
  0
VERTEX
  5
164
  8
LAYER_1
 10
164.4758740993923
 20
111.6638963053385
 30
0.0
  0
VERTEX
  5
165
  8
LAYER_1
 10
164.365566792806
 20
111.5163060892741
 30
0.0
  0
VERTEX
  5
166
  8
LAYER_1
 10
164.2418680555555
 20
111.380190625
 30
0.0
  0
VERTEX
  5
167
  8
LAYER_1
 10
164.1057339016384
 20
111.256506443278
 30
0.0
  0
VERTEX
  5
168
  8
LAYER_1
 10
163.9581203450521
 20
111.1462100748698
 30
0.0
  0
VERTEX
  5
169
  8
LAYER_1
 10
163.7999833997938
 20
111.0502580505371
 30
0.0
  0
VERTEX
  5
16A
  8
LAYER_1
 10
163.6322790798611
 20
110.9696069010417
 30
0.0
  0
VERTEX
  5
16B
  8
LAYER_1
 10
163.4559633992513
 20
110.9052131571452
 30
0.0
  0
VERTEX
  5
16C
  8
LAYER_1
 10
163.2719923719618
 20
110.8580333496094
 30
0.0
  0
VERTEX
  5
16D
  8
LAYER_1
 10
163.08132201199
 20
110.829024009196
 30
0.0
  0
VERTEX
  5
16E
  8
LAYER_1
 10
162.8849083333333
 20
110.8191416666667
 30
0.0
  0
VERTEX
  5
16F
  8
LAYER_1
 10
150.3083805555555
 20
110.8191416666667
 30
0.0
  0
VERTEX
  5
170
  8
LAYER_1
 10
150.3083805555555
 20
81.9259361111111
 30
0.0
  0
VERTEX
  5
171
  8
LAYER_1
 10
150.2964244485643
 20
81.45484166420829
 30
0.0
  0
VERTEX
  5
172
  8
LAYER_1
 10
150.2609437438965
 20
80.98987998250324
 30
0.0
  0
VERTEX
  5
173
  8
LAYER_1
 10
150.2025198660109
 20
80.53162964825098
 30
0.0
  0
VERTEX
  5
174
  8
LAYER_1
 10
150.1217342393663
 20
80.08066924370658
 30
0.0
  0
VERTEX
  5
175
  8
LAYER_1
 10
150.0191682884216
 20
79.63757735112506
 30
0.0
  0
VERTEX
  5
176
  8
LAYER_1
 10
149.8954034376357
 20
79.2029325527615
 30
0.0
  0
VERTEX
  5
177
  8
LAYER_1
 10
149.7510211114671
 20
78.7773134308709
 30
0.0
  0
VERTEX
  5
178
  8
LAYER_1
 10
149.586602734375
 20
78.36129856770833
 30
0.0
  0
VERTEX
  5
179
  8
LAYER_1
 10
149.402729730818
 20
77.95546654552882
 30
0.0
  0
VERTEX
  5
17A
  8
LAYER_1
 10
149.199983525255
 20
77.56039594658745
 30
0.0
  0
VERTEX
  5
17B
  8
LAYER_1
 10
148.9789455421447
 20
77.17666535313923
 30
0.0
  0
VERTEX
  5
17C
  8
LAYER_1
 10
148.7401972059462
 20
76.80485334743922
 30
0.0
  0
VERTEX
  5
17D
  8
LAYER_1
 10
148.484319941118
 20
76.44553851174248
 30
0.0
  0
VERTEX
  5
17E
  8
LAYER_1
 10
148.2118951721191
 20
76.09929942830404
 30
0.0
  0
VERTEX
  5
17F
  8
LAYER_1
 10
147.9235043234083
 20
75.76671467937894
 30
0.0
  0
VERTEX
  5
180
  8
LAYER_1
 10
147.6197288194444
 20
75.44836284722221
 30
0.0
  0
VERTEX
  5
181
  8
LAYER_1
 10
147.3011500846863
 20
75.14482251408893
 30
0.0
  0
VERTEX
  5
182
  8
LAYER_1
 10
146.9683495435927
 20
74.85667226223416
 30
0.0
  0
VERTEX
  5
183
  8
LAYER_1
 10
146.6219086206224
 20
74.58449067391288
 30
0.0
  0
VERTEX
  5
184
  8
LAYER_1
 10
146.2624087402344
 20
74.3288563313802
 30
0.0
  0
VERTEX
  5
185
  8
LAYER_1
 10
145.8904313268873
 20
74.09034781689112
 30
0.0
  0
VERTEX
  5
186
  8
LAYER_1
 10
145.5065578050401
 20
73.86954371270073
 30
0.0
  0
VERTEX
  5
187
  8
LAYER_1
 10
145.1113695991516
 20
73.66702260106403
 30
0.0
  0
VERTEX
  5
188
  8
LAYER_1
 10
144.7054481336805
 20
73.4833630642361
 30
0.0
  0
VERTEX
  5
189
  8
LAYER_1
 10
144.2893748330858
 20
73.31914368447198
 30
0.0
  0
VERTEX
  5
18A
  8
LAYER_1
 10
143.8637311218262
 20
73.17494304402669
 30
0.0
  0
VERTEX
  5
18B
  8
LAYER_1
 10
143.4290984243605
 20
73.05133972515529
 30
0.0
  0
VERTEX
  5
18C
  8
LAYER_1
 10
142.9860581651475
 20
72.94891231011283
 30
0.0
  0
VERTEX
  5
18D
  8
LAYER_1
 10
142.5351917686462
 20
72.86823938115438
 30
0.0
  0
VERTEX
  5
18E
  8
LAYER_1
 10
142.0770806593153
 20
72.80989952053494
 30
0.0
  0
VERTEX
  5
18F
  8
LAYER_1
 10
141.6123062616136
 20
72.77447131050957
 30
0.0
  0
VERTEX
  5
190
  8
LAYER_1
 10
141.14145
 20
72.76253333333332
 30
0.0
  0
VERTEX
  5
191
  8
LAYER_1
 10
135.810625
 20
72.76253333333332
 30
0.0
  0
VERTEX
  5
192
  8
LAYER_1
 10
135.810625
 20
60.18000833333333
 30
0.0
  0
VERTEX
  5
193
  8
LAYER_1
 10
135.8007115654839
 20
59.98405974256727
 30
0.0
  0
VERTEX
  5
194
  8
LAYER_1
 10
135.7716168728299
 20
59.79373458116319
 30
0.0
  0
VERTEX
  5
195
  8
LAYER_1
 10
135.7243093383789
 20
59.61000126546224
 30
0.0
  0
VERTEX
  5
196
  8
LAYER_1
 10
135.6597573784722
 20
59.43382821180555
 30
0.0
  0
VERTEX
  5
197
  8
LAYER_1
 10
135.578929409451
 20
59.26618383653428
 30
0.0
  0
VERTEX
  5
198
  8
LAYER_1
 10
135.4827938476562
 20
59.10803655598957
 30
0.0
  0
VERTEX
  5
199
  8
LAYER_1
 10
135.3723191094292
 20
58.96035478651258
 30
0.0
  0
VERTEX
  5
19A
  8
LAYER_1
 10
135.2484736111111
 20
58.82410694444444
 30
0.0
  0
VERTEX
  5
19B
  8
LAYER_1
 10
135.1122257690429
 20
58.7002614461263
 30
0.0
  0
VERTEX
  5
19C
  8
LAYER_1
 10
134.964543999566
 20
58.5897867078993
 30
0.0
  0
VERTEX
  5
19D
  8
LAYER_1
 10
134.8063967190213
 20
58.4936511461046
 30
0.0
  0
VERTEX
  5
19E
  8
LAYER_1
 10
134.63875234375
 20
58.41282317708333
 30
0.0
  0
VERTEX
  5
19F
  8
LAYER_1
 10
134.4625792900933
 20
58.34827121717664
 30
0.0
  0
VERTEX
  5
1A0
  8
LAYER_1
 10
134.2788459743924
 20
58.30096368272569
 30
0.0
  0
VERTEX
  5
1A1
  8
LAYER_1
 10
134.0885208129883
 20
58.27186899007161
 30
0.0
  0
SEQEND
  5
1A2
  8
LAYER_1
  0
POLYLINE
  5
43
  8
LAYER_1
 66
     1
 10
0.0
 20
0.0
 30
0.0
 70
     1
  0
VERTEX
  5
1A3
  8
LAYER_1
 10
123.0178444444444
 20
58.26195555555555
 30
0.0
  0
VERTEX
  5
1A4
  8
LAYER_1
 10
122.8218958536784
 20
58.27186899007161
 30
0.0
  0
VERTEX
  5
1A5
  8
LAYER_1
 10
122.6315706922743
 20
58.30096368272569
 30
0.0
  0
VERTEX
  5
1A6
  8
LAYER_1
 10
122.4478373765733
 20
58.34827121717664
 30
0.0
  0
VERTEX
  5
1A7
  8
LAYER_1
 10
122.2716643229167
 20
58.41282317708333
 30
0.0
  0
VERTEX
  5
1A8
  8
LAYER_1
 10
122.1040199476454
 20
58.4936511461046
 30
0.0
  0
VERTEX
  5
1A9
  8
LAYER_1
 10
121.9458726671007
 20
58.5897867078993
 30
0.0
  0
VERTEX
  5
1AA
  8
LAYER_1
 10
121.7981908976237
 20
58.7002614461263
 30
0.0
  0
VERTEX
  5
1AB
  8
LAYER_1
 10
121.6619430555556
 20
58.82410694444444
 30
0.0
  0
VERTEX
  5
1AC
  8
LAYER_1
 10
121.5380975572374
 20
58.96035478651258
 30
0.0
  0
VERTEX
  5
1AD
  8
LAYER_1
 10
121.4276228190104
 20
59.10803655598957
 30
0.0
  0
VERTEX
  5
1AE
  8
LAYER_1
 10
121.3314872572157
 20
59.26618383653428
 30
0.0
  0
VERTEX
  5
1AF
  8
LAYER_1
 10
121.2506592881944
 20
59.43382821180555
 30
0.0
  0
VERTEX
  5
1B0
  8
LAYER_1
 10
121.1861073282877
 20
59.61000126546224
 30
0.0
  0
VERTEX
  5
1B1
  8
LAYER_1
 10
121.1387997938368
 20
59.79373458116319
 30
0.0
  0
VERTEX
  5
1B2
  8
LAYER_1
 10
121.1097051011827
 20
59.98405974256727
 30
0.0
  0
VERTEX
  5
1B3
  8
LAYER_1
 10
121.0997916666666
 20
60.18000833333333
 30
0.0
  0
VERTEX
  5
1B4
  8
LAYER_1
 10
121.0997916666666
 20
72.76253333333332
 30
0.0
  0
VERTEX
  5
1B5
  8
LAYER_1
 10
92.2097611111111
 20
72.76253333333332
 30
0.0
  0
VERTEX
  5
1B6
  8
LAYER_1
 10
91.73865755623711
 20
72.77447131050957
 30
0.0
  0
VERTEX
  5
1B7
  8
LAYER_1
 10
91.27366932576498
 20
72.80989952053494
 30
0.0
  0
VERTEX
  5
1B8
  8
LAYER_1
 10
90.81537616466946
 20
72.86823938115438
 30
0.0
  0
VERTEX
  5
1B9
  8
LAYER_1
 10
90.36435781792535
 20
72.94891231011283
 30
0.0
  0
VERTEX
  5
1BA
  8
LAYER_1
 10
89.92119403050742
 20
73.05133972515529
 30
0.0
  0
VERTEX
  5
1BB
  8
LAYER_1
 10
89.48646454739041
 20
73.17494304402669
 30
0.0
  0
VERTEX
  5
1BC
  8
LAYER_1
 10
89.06074911354914
 20
73.31914368447198
 30
0.0
  0
VERTEX
  5
1BD
  8
LAYER_1
 10
88.64462747395834
 20
73.4833630642361
 30
0.0
  0
VERTEX
  5
1BE
  8
LAYER_1
 10
88.2386793735928
 20
73.66702260106403
 30
0.0
  0
VERTEX
  5
1BF
  8
LAYER_1
 10
87.84348455742729
 20
73.86954371270073
 30
0.0
  0
VERTEX
  5
1C0
  8
LAYER_1
 10
87.45962277043658
 20
74.09034781689112
 30
0.0
  0
VERTEX
  5
1C1
  8
LAYER_1
 10
87.08767375759547
 20
74.3288563313802
 30
0.0
  0
VERTEX
  5
1C2
  8
LAYER_1
 10
86.7282172638787
 20
74.58449067391288
 30
0.0
  0
VERTEX
  5
1C3
  8
LAYER_1
 10
86.38183303426106
 20
74.85667226223416
 30
0.0
  0
VERTEX
  5
1C4
  8
LAYER_1
 10
86.0491008137173
 20
75.14482251408893
 30
0.0
  0
VERTEX
  5
1C5
  8
LAYER_1
 10
85.73060034722221
 20
75.44836284722221
 30
0.0
  0
VERTEX
  5
1C6
  8
LAYER_1
 10
85.42691137975056
 20
75.76671467937894
 30
0.0
  0
VERTEX
  5
1C7
  8
LAYER_1
 10
85.13861365627712
 20
76.09929942830404
 30
0.0
  0
VERTEX
  5
1C8
  8
LAYER_1
 10
84.86628692177665
 20
76.44553851174248
 30
0.0
  0
VERTEX
  5
1C9
  8
LAYER_1
 10
84.61051092122395
 20
76.80485334743922
 30
0.0
  0
VERTEX
  5
1CA
  8
LAYER_1
 10
84.37186539959377
 20
77.17666535313923
 30
0.0
  0
VERTEX
  5
1CB
  8
LAYER_1
 10
84.1509301018609
 20
77.56039594658745
 30
0.0
  0
VERTEX
  5
1CC
  8
LAYER_1
 10
83.94828477300008
 20
77.95546654552882
 30
0.0
  0
VERTEX
  5
1CD
  8
LAYER_1
 10
83.7645091579861
 20
78.36129856770833
 30
0.0
  0
VERTEX
  5
1CE
  8
LAYER_1
 10
83.60018300179374
 20
78.7773134308709
 30
0.0
  0
VERTEX
  5
1CF
  8
LAYER_1
 10
83.45588604939778
 20
79.2029325527615
 30
0.0
  0
VERTEX
  5
1D0
  8
LAYER_1
 10
83.33219804577297
 20
79.63757735112506
 30
0.0
  0
VERTEX
  5
1D1
  8
LAYER_1
 10
83.22969873589409
 20
80.08066924370658
 30
0.0
  0
VERTEX
  5
1D2
  8
LAYER_1
 10
83.14896786473591
 20
80.53162964825098
 30
0.0
  0
VERTEX
  5
1D3
  8
LAYER_1
 10
83.09058517727321
 20
80.98987998250324
 30
0.0
  0
VERTEX
  5
1D4
  8
LAYER_1
 10
83.05513041848076
 20
81.45484166420829
 30
0.0
  0
VERTEX
  5
1D5
  8
LAYER_1
 10
83.04318333333332
 20
81.9259361111111
 30
0.0
  0
VERTEX
  5
1D6
  8
LAYER_1
 10
83.04318333333332
 20
110.8191416666667
 30
0.0
  0
VERTEX
  5
1D7
  8
LAYER_1
 10
21.53214444444444
 20
110.8191416666667
 30
0.0
  0
VERTEX
  5
1D8
  8
LAYER_1
 10
21.33619585367839
 20
110.829024009196
 30
0.0
  0
VERTEX
  5
1D9
  8
LAYER_1
 10
21.14587069227431
 20
110.8580333496094
 30
0.0
  0
VERTEX
  5
1DA
  8
LAYER_1
 10
20.96213737657335
 20
110.9052131571452
 30
0.0
  0
VERTEX
  5
1DB
  8
LAYER_1
 10
20.78596432291667
 20
110.9696069010417
 30
0.0
  0
VERTEX
  5
1DC
  8
LAYER_1
 10
20.6183199476454
 20
111.0502580505371
 30
0.0
  0
VERTEX
  5
1DD
  8
LAYER_1
 10
20.46017266710069
 20
111.1462100748698
 30
0.0
  0
VERTEX
  5
1DE
  8
LAYER_1
 10
20.3124908976237
 20
111.256506443278
 30
0.0
  0
VERTEX
  5
1DF
  8
LAYER_1
 10
20.17624305555555
 20
111.380190625
 30
0.0
  0
VERTEX
  5
1E0
  8
LAYER_1
 10
20.05239755723741
 20
111.5163060892741
 30
0.0
  0
VERTEX
  5
1E1
  8
LAYER_1
 10
19.94192281901041
 20
111.6638963053385
 30
0.0
  0
VERTEX
  5
1E2
  8
LAYER_1
 10
19.84578725721571
 20
111.8220047424316
 30
0.0
  0
VERTEX
  5
1E3
  8
LAYER_1
 10
19.76495928819444
 20
111.9896748697917
 30
0.0
  0
VERTEX
  5
1E4
  8
LAYER_1
 10
19.70040732828776
 20
112.1659501566569
 30
0.0
  0
VERTEX
  5
1E5
  8
LAYER_1
 10
19.6530997938368
 20
112.3498740722656
 30
0.0
  0
VERTEX
  5
1E6
  8
LAYER_1
 10
19.62400510118272
 20
112.5404900858561
 30
0.0
  0
VERTEX
  5
1E7
  8
LAYER_1
 10
19.61409166666666
 20
112.7368416666667
 30
0.0
  0
VERTEX
  5
1E8
  8
LAYER_1
 10
19.62400510118272
 20
112.9327902574327
 30
0.0
  0
VERTEX
  5
1E9
  8
LAYER_1
 10
19.6530997938368
 20
113.1231154188368
 30
0.0
  0
VERTEX
  5
1EA
  8
LAYER_1
 10
19.70040732828776
 20
113.3068487345378
 30
0.0
  0
VERTEX
  5
1EB
  8
LAYER_1
 10
19.76495928819444
 20
113.4830217881944
 30
0.0
  0
VERTEX
  5
1EC
  8
LAYER_1
 10
19.84578725721571
 20
113.6506661634657
 30
0.0
  0
VERTEX
  5
1ED
  8
LAYER_1
 10
19.94192281901041
 20
113.8088134440104
 30
0.0
  0
VERTEX
  5
1EE
  8
LAYER_1
 10
20.05239755723741
 20
113.9564952134874
 30
0.0
  0
VERTEX
  5
1EF
  8
LAYER_1
 10
20.17624305555555
 20
114.0927430555555
 30
0.0
  0
VERTEX
  5
1F0
  8
LAYER_1
 10
20.3124908976237
 20
114.2165885538737
 30
0.0
  0
VERTEX
  5
1F1
  8
LAYER_1
 10
20.46017266710069
 20
114.3270632921007
 30
0.0
  0
VERTEX
  5
1F2
  8
LAYER_1
 10
20.6183199476454
 20
114.4231988538954
 30
0.0
  0
VERTEX
  5
1F3
  8
LAYER_1
 10
20.78596432291667
 20
114.5040268229166
 30
0.0
  0
VERTEX
  5
1F4
  8
LAYER_1
 10
20.96213737657335
 20
114.5685787828233
 30
0.0
  0
VERTEX
  5
1F5
  8
LAYER_1
 10
21.14587069227431
 20
114.6158863172743
 30
0.0
  0
VERTEX
  5
1F6
  8
LAYER_1
 10
21.33619585367839
 20
114.6449810099284
 30
0.0
  0
VERTEX
  5
1F7
  8
LAYER_1
 10
21.53214444444444
 20
114.6548944444444
 30
0.0
  0
VERTEX
  5
1F8
  8
LAYER_1
 10
84.9612361111111
 20
114.6548944444444
 30
0.0
  0
VERTEX
  5
1F9
  8
LAYER_1
 10
85.15712260403103
 20
114.6449810099284
 30
0.0
  0
VERTEX
  5
1FA
  8
LAYER_1
 10
85.34739341905382
 20
114.6158863172743
 30
0.0
  0
VERTEX
  5
1FB
  8
LAYER_1
 10
85.53107962307399
 20
114.5685787828233
 30
0.0
  0
VERTEX
  5
1FC
  8
LAYER_1
 10
85.7072122829861
 20
114.5040268229166
 30
0.0
  0
VERTEX
  5
1FD
  8
LAYER_1
 10
85.87482246568467
 20
114.4231988538954
 30
0.0
  0
VERTEX
  5
1FE
  8
LAYER_1
 10
86.03294123806424
 20
114.3270632921007
 30
0.0
  0
VERTEX
  5
1FF
  8
LAYER_1
 10
86.18059966701932
 20
114.2165885538737
 30
0.0
  0
VERTEX
  5
200
  8
LAYER_1
 10
86.31682881944444
 20
114.0927430555555
 30
0.0
  0
VERTEX
  5
201
  8
LAYER_1
 10
86.44065976223415
 20
113.9564952134874
 30
0.0
  0
VERTEX
  5
202
  8
LAYER_1
 10
86.55112356228298
 20
113.8088134440104
 30
0.0
  0
VERTEX
  5
203
  8
LAYER_1
 10
86.64725128648546
 20
113.6506661634657
 30
0.0
  0
VERTEX
  5
204
  8
LAYER_1
 10
86.7280740017361
 20
113.4830217881944
 30
0.0
  0
VERTEX
  5
205
  8
LAYER_1
 10
86.79262277492946
 20
113.3068487345378
 30
0.0
  0
VERTEX
  5
206
  8
LAYER_1
 10
86.83992867296006
 20
113.1231154188368
 30
0.0
  0
VERTEX
  5
207
  8
LAYER_1
 10
86.86902276272244
 20
112.9327902574327
 30
0.0
  0
VERTEX
  5
208
  8
LAYER_1
 10
86.8789361111111
 20
112.7368416666667
 30
0.0
  0
VERTEX
  5
209
  8
LAYER_1
 10
86.8789361111111
 20
81.9259361111111
 30
0.0
  0
VERTEX
  5
20A
  8
LAYER_1
 10
86.88588613908554
 20
81.65207404827541
 30
0.0
  0
VERTEX
  5
20B
  8
LAYER_1
 10
86.90651117214625
 20
81.38177320217557
 30
0.0
  0
VERTEX
  5
20C
  8
LAYER_1
 10
86.94047363399929
 20
81.11537018017239
 30
0.0
  0
VERTEX
  5
20D
  8
LAYER_1
 10
86.9874359483507
 20
80.85320158962674
 30
0.0
  0
VERTEX
  5
20E
  8
LAYER_1
 10
87.04706053890652
 20
80.59560403789943
 30
0.0
  0
VERTEX
  5
20F
  8
LAYER_1
 10
87.11900982937283
 20
80.34291413235134
 30
0.0
  0
VERTEX
  5
210
  8
LAYER_1
 10
87.20294624345567
 20
80.0954684803433
 30
0.0
  0
VERTEX
  5
211
  8
LAYER_1
 10
87.2985322048611
 20
79.85360368923611
 30
0.0
  0
VERTEX
  5
212
  8
LAYER_1
 10
87.40543013729518
 20
79.61765636639065
 30
0.0
  0
VERTEX
  5
213
  8
LAYER_1
 10
87.52330246446397
 20
79.38796311916775
 30
0.0
  0
VERTEX
  5
214
  8
LAYER_1
 10
87.65181161007351
 20
79.16486055492825
 30
0.0
  0
VERTEX
  5
215
  8
LAYER_1
 10
87.79061999782985
 20
78.94868528103298
 30
0.0
  0
VERTEX
  5
216
  8
LAYER_1
 10
87.93939005143906
 20
78.73977390484279
 30
0.0
  0
VERTEX
  5
217
  8
LAYER_1
 10
88.09778419460721
 20
78.53846303371853
 30
0.0
  0
VERTEX
  5
218
  8
LAYER_1
 10
88.26546485104032
 20
78.34508927502102
 30
0.0
  0
VERTEX
  5
219
  8
LAYER_1
 10
88.44209444444445
 20
78.1599892361111
 30
0.0
  0
VERTEX
  5
21A
  8
LAYER_1
 10
88.62733539852567
 20
77.98349952434964
 30
0.0
  0
VERTEX
  5
21B
  8
LAYER_1
 10
88.82085013699002
 20
77.81595674709743
 30
0.0
  0
VERTEX
  5
21C
  8
LAYER_1
 10
89.02230108354357
 20
77.65769751171536
 30
0.0
  0
VERTEX
  5
21D
  8
LAYER_1
 10
89.23135066189235
 20
77.50905842556423
 30
0.0
  0
VERTEX
  5
21E
  8
LAYER_1
 10
89.44766129574245
 20
77.37037609600492
 30
0.0
  0
VERTEX
  5
21F
  8
LAYER_1
 10
89.67089540879991
 20
77.24198713039823
 30
0.0
  0
VERTEX
  5
220
  8
LAYER_1
 10
89.90071542477078
 20
77.12422813610502
 30
0.0
  0
VERTEX
  5
221
  8
LAYER_1
 10
90.13678376736112
 20
77.01743572048612
 30
0.0
  0
VERTEX
  5
222
  8
LAYER_1
 10
90.37876286027698
 20
76.92194649090239
 30
0.0
  0
VERTEX
  5
223
  8
LAYER_1
 10
90.6263151272244
 20
76.83809705471464
 30
0.0
  0
VERTEX
  5
224
  8
LAYER_1
 10
90.87910299190946
 20
76.76622401928373
 30
0.0
  0
VERTEX
  5
225
  8
LAYER_1
 10
91.1367888780382
 20
76.70666399197049
 30
0.0
  0
VERTEX
  5
226
  8
LAYER_1
 10
91.39903520931668
 20
76.65975358013577
 30
0.0
  0
VERTEX
  5
227
  8
LAYER_1
 10
91.66550440945095
 20
76.62582939114041
 30
0.0
  0
VERTEX
  5
228
  8
LAYER_1
 10
91.93585890214706
 20
76.60522803234522
 30
0.0
  0
VERTEX
  5
229
  8
LAYER_1
 10
92.2097611111111
 20
76.59828611111111
 30
0.0
  0
VERTEX
  5
22A
  8
LAYER_1
 10
123.0178444444444
 20
76.59828611111111
 30
0.0
  0
VERTEX
  5
22B
  8
LAYER_1
 10
123.2137930352105
 20
76.58836880086263
 30
0.0
  0
VERTEX
  5
22C
  8
LAYER_1
 10
123.4041181966146
 20
76.55926351453994
 30
0.0
  0
VERTEX
  5
22D
  8
LAYER_1
 10
123.5878515123155
 20
76.51194021877714
 30
0.0
  0
VERTEX
  5
22E
  8
LAYER_1
 10
123.7640245659722
 20
76.44736888020834
 30
0.0
  0
VERTEX
  5
22F
  8
LAYER_1
 10
123.9316689412435
 20
76.36651946546766
 30
0.0
  0
VERTEX
  5
230
  8
LAYER_1
 10
124.0898162217882
 20
76.27036194118924
 30
0.0
  0
VERTEX
  5
231
  8
LAYER_1
 10
124.2374979912652
 20
76.15986627400716
 30
0.0
  0
VERTEX
  5
232
  8
LAYER_1
 10
124.3737458333333
 20
76.03600243055556
 30
0.0
  0
VERTEX
  5
233
  8
LAYER_1
 10
124.4975913316514
 20
75.89974037746853
 30
0.0
  0
VERTEX
  5
234
  8
LAYER_1
 10
124.6080660698784
 20
75.7520500813802
 30
0.0
  0
VERTEX
  5
235
  8
LAYER_1
 10
124.7042016316732
 20
75.59390150892469
 30
0.0
  0
VERTEX
  5
236
  8
LAYER_1
 10
124.7850296006944
 20
75.4262646267361
 30
0.0
  0
VERTEX
  5
237
  8
LAYER_1
 10
124.8495815606011
 20
75.25010940144855
 30
0.0
  0
VERTEX
  5
238
  8
LAYER_1
 10
124.8968890950521
 20
75.06640579969616
 30
0.0
  0
VERTEX
  5
239
  8
LAYER_1
 10
124.9259837877062
 20
74.87612378811306
 30
0.0
  0
VERTEX
  5
23A
  8
LAYER_1
 10
124.9358972222222
 20
74.68023333333333
 30
0.0
  0
VERTEX
  5
23B
  8
LAYER_1
 10
124.9358972222222
 20
60.18000833333333
 30
0.0
  0
VERTEX
  5
23C
  8
LAYER_1
 10
124.9259837877062
 20
59.98405974256727
 30
0.0
  0
VERTEX
  5
23D
  8
LAYER_1
 10
124.8968890950521
 20
59.79373458116319
 30
0.0
  0
VERTEX
  5
23E
  8
LAYER_1
 10
124.8495815606011
 20
59.61000126546224
 30
0.0
  0
VERTEX
  5
23F
  8
LAYER_1
 10
124.7850296006944
 20
59.43382821180555
 30
0.0
  0
VERTEX
  5
240
  8
LAYER_1
 10
124.7042016316732
 20
59.26618383653428
 30
0.0
  0
VERTEX
  5
241
  8
LAYER_1
 10
124.6080660698784
 20
59.10803655598957
 30
0.0
  0
VERTEX
  5
242
  8
LAYER_1
 10
124.4975913316514
 20
58.96035478651258
 30
0.0
  0
VERTEX
  5
243
  8
LAYER_1
 10
124.3737458333333
 20
58.82410694444444
 30
0.0
  0
VERTEX
  5
244
  8
LAYER_1
 10
124.2374979912652
 20
58.7002614461263
 30
0.0
  0
VERTEX
  5
245
  8
LAYER_1
 10
124.0898162217882
 20
58.5897867078993
 30
0.0
  0
VERTEX
  5
246
  8
LAYER_1
 10
123.9316689412435
 20
58.4936511461046
 30
0.0
  0
VERTEX
  5
247
  8
LAYER_1
 10
123.7640245659722
 20
58.41282317708333
 30
0.0
  0
VERTEX
  5
248
  8
LAYER_1
 10
123.5878515123155
 20
58.34827121717664
 30
0.0
  0
VERTEX
  5
249
  8
LAYER_1
 10
123.4041181966146
 20
58.30096368272569
 30
0.0
  0
VERTEX
  5
24A
  8
LAYER_1
 10
123.2137930352105
 20
58.27186899007161
 30
0.0
  0
SEQEND
  5
24B
  8
LAYER_1
  0
POLYLINE
  5
44
  8
LAYER_1
 66
     1
 10
0.0
 20
0.0
 30
0.0
 70
     1
  0
VERTEX
  5
24C
  8
LAYER_1
 10
188.6373333333333
 20
121.6910472222222
 30
0.0
  0
VERTEX
  5
24D
  8
LAYER_1
 10
148.3903277777778
 20
121.6910472222222
 30
0.0
  0
VERTEX
  5
24E
  8
LAYER_1
 10
148.1939140991211
 20
121.7009296508789
 30
0.0
  0
VERTEX
  5
24F
  8
LAYER_1
 10
148.0032437391493
 20
121.729939594184
 30
0.0
  0
VERTEX
  5
250
  8
LAYER_1
 10
147.8192727118598
 20
121.7771210381402
 30
0.0
  0
VERTEX
  5
251
  8
LAYER_1
 10
147.64295703125
 20
121.84151796875
 30
0.0
  0
VERTEX
  5
252
  8
LAYER_1
 10
147.4752527113173
 20
121.9221743720161
 30
0.0
  0
VERTEX
  5
253
  8
LAYER_1
 10
147.317115766059
 20
122.018134233941
 30
0.0
  0
VERTEX
  5
254
  8
LAYER_1
 10
147.1695022094727
 20
122.1284415405273
 30
0.0
  0
VERTEX
  5
255
  8
LAYER_1
 10
147.0333680555556
 20
122.2521402777778
 30
0.0
  0
VERTEX
  5
256
  8
LAYER_1
 10
146.9096693183051
 20
122.3882744316949
 30
0.0
  0
VERTEX
  5
257
  8
LAYER_1
 10
146.7993620117188
 20
122.5358879882812
 30
0.0
  0
VERTEX
  5
258
  8
LAYER_1
 10
146.7034021497938
 20
122.6940249335395
 30
0.0
  0
VERTEX
  5
259
  8
LAYER_1
 10
146.6227457465278
 20
122.8617292534722
 30
0.0
  0
VERTEX
  5
25A
  8
LAYER_1
 10
146.558348815918
 20
123.038044934082
 30
0.0
  0
VERTEX
  5
25B
  8
LAYER_1
 10
146.5111673719618
 20
123.2220159613715
 30
0.0
  0
VERTEX
  5
25C
  8
LAYER_1
 10
146.4821574286567
 20
123.4126863213433
 30
0.0
  0
VERTEX
  5
25D
  8
LAYER_1
 10
146.472275
 20
123.6091
 30
0.0
  0
VERTEX
  5
25E
  8
LAYER_1
 10
146.472275
 20
130.8608
 30
0.0
  0
VERTEX
  5
25F
  8
LAYER_1
 10
146.4653239707947
 20
131.1346630748325
 30
0.0
  0
VERTEX
  5
260
  8
LAYER_1
 10
146.4446960632324
 20
131.4049668707954
 30
0.0
  0
VERTEX
  5
261
  8
LAYER_1
 10
146.4107290473938
 20
131.6713746513366
 30
0.0
  0
VERTEX
  5
262
  8
LAYER_1
 10
146.3637606933594
 20
131.9335496799045
 30
0.0
  0
VERTEX
  5
263
  8
LAYER_1
 10
146.3041287712097
 20
132.1911552199469
 30
0.0
  0
VERTEX
  5
264
  8
LAYER_1
 10
146.2321710510254
 20
132.4438545349121
 30
0.0
  0
VERTEX
  5
265
  8
LAYER_1
 10
146.1482253028869
 20
132.691310888248
 30
0.0
  0
VERTEX
  5
266
  8
LAYER_1
 10
146.052629296875
 20
132.9331875434028
 30
0.0
  0
VERTEX
  5
267
  8
LAYER_1
 10
145.9457208030701
 20
133.1691477638245
 30
0.0
  0
VERTEX
  5
268
  8
LAYER_1
 10
145.8278375915527
 20
133.3988548129611
 30
0.0
  0
VERTEX
  5
269
  8
LAYER_1
 10
145.6993174324035
 20
133.6219719542609
 30
0.0
  0
VERTEX
  5
26A
  8
LAYER_1
 10
145.5604980957031
 20
133.8381624511719
 30
0.0
  0
VERTEX
  5
26B
  8
LAYER_1
 10
145.4117173515319
 20
134.047089567142
 30
0.0
  0
VERTEX
  5
26C
  8
LAYER_1
 10
145.2533129699707
 20
134.2484165656196
 30
0.0
  0
VERTEX
  5
26D
  8
LAYER_1
 10
145.0856227210998
 20
134.4418067100525
 30
0.0
  0
VERTEX
  5
26E
  8
LAYER_1
 10
144.908984375
 20
134.6269232638889
 30
0.0
  0
VERTEX
  5
26F
  8
LAYER_1
 10
144.7237357017517
 20
134.8034294905768
 30
0.0
  0
VERTEX
  5
270
  8
LAYER_1
 10
144.5302144714355
 20
134.9709886535645
 30
0.0
  0
VERTEX
  5
271
  8
LAYER_1
 10
144.328758454132
 20
135.1292640162998
 30
0.0
  0
VERTEX
  5
272
  8
LAYER_1
 10
144.1197054199218
 20
135.2779188422309
 30
0.0
  0
VERTEX
  5
273
  8
LAYER_1
 10
143.9033931388855
 20
135.4166163948059
 30
0.0
  0
VERTEX
  5
274
  8
LAYER_1
 10
143.6801593811035
 20
135.5450199374729
 30
0.0
  0
VERTEX
  5
275
  8
LAYER_1
 10
143.4503419166565
 20
135.6627927336799
 30
0.0
  0
VERTEX
  5
276
  8
LAYER_1
 10
143.214278515625
 20
135.769598046875
 30
0.0
  0
VERTEX
  5
277
  8
LAYER_1
 10
142.9723069480896
 20
135.8650991405063
 30
0.0
  0
VERTEX
  5
278
  8
LAYER_1
 10
142.7247649841308
 20
135.9489592780219
 30
0.0
  0
VERTEX
  5
279
  8
LAYER_1
 10
142.4719903938293
 20
136.0208417228699
 30
0.0
  0
VERTEX
  5
27A
  8
LAYER_1
 10
142.2143209472656
 20
136.0804097384982
 30
0.0
  0
VERTEX
  5
27B
  8
LAYER_1
 10
141.9520944145202
 20
136.1273265883552
 30
0.0
  0
VERTEX
  5
27C
  8
LAYER_1
 10
141.6856485656738
 20
136.1612555358887
 30
0.0
  0
VERTEX
  5
27D
  8
LAYER_1
 10
141.4153211708069
 20
136.1818598445468
 30
0.0
  0
VERTEX
  5
27E
  8
LAYER_1
 10
141.14145
 20
136.1888027777778
 30
0.0
  0
VERTEX
  5
27F
  8
LAYER_1
 10
133.8925722222222
 20
136.1888027777778
 30
0.0
  0
VERTEX
  5
280
  8
LAYER_1
 10
133.6961585435655
 20
136.198712250434
 30
0.0
  0
VERTEX
  5
281
  8
LAYER_1
 10
133.5054881835937
 20
136.2277957465278
 30
0.0
  0
VERTEX
  5
282
  8
LAYER_1
 10
133.3215171563043
 20
136.2750858832465
 30
0.0
  0
VERTEX
  5
283
  8
LAYER_1
 10
133.1452014756944
 20
136.3396152777778
 30
0.0
  0
VERTEX
  5
284
  8
LAYER_1
 10
132.9774971557617
 20
136.420416547309
 30
0.0
  0
VERTEX
  5
285
  8
LAYER_1
 10
132.8193602105035
 20
136.5165223090278
 30
0.0
  0
VERTEX
  5
286
  8
LAYER_1
 10
132.6717466539171
 20
136.6269651801215
 30
0.0
  0
VERTEX
  5
287
  8
LAYER_1
 10
132.5356125
 20
136.7507777777778
 30
0.0
  0
VERTEX
  5
288
  8
LAYER_1
 10
132.4119137627496
 20
136.886992719184
 30
0.0
  0
VERTEX
  5
289
  8
LAYER_1
 10
132.3016064561632
 20
137.0346426215278
 30
0.0
  0
VERTEX
  5
28A
  8
LAYER_1
 10
132.2056465942383
 20
137.1927601019965
 30
0.0
  0
VERTEX
  5
28B
  8
LAYER_1
 10
132.1249901909722
 20
137.3603777777778
 30
0.0
  0
VERTEX
  5
28C
  8
LAYER_1
 10
132.0605932603624
 20
137.536528266059
 30
0.0
  0
VERTEX
  5
28D
  8
LAYER_1
 10
132.0134118164062
 20
137.7202441840278
 30
0.0
  0
VERTEX
  5
28E
  8
LAYER_1
 10
131.9844018731011
 20
137.9105581488715
 30
0.0
  0
VERTEX
  5
28F
  8
LAYER_1
 10
131.9745194444444
 20
138.1065027777778
 30
0.0
  0
VERTEX
  5
290
  8
LAYER_1
 10
131.9745194444444
 20
152.6039055555555
 30
0.0
  0
VERTEX
  5
291
  8
LAYER_1
 10
131.9844018731011
 20
152.8003192342122
 30
0.0
  0
VERTEX
  5
292
  8
LAYER_1
 10
132.0134118164062
 20
152.990989594184
 30
0.0
  0
VERTEX
  5
293
  8
LAYER_1
 10
132.0605932603624
 20
153.1749606214735
 30
0.0
  0
VERTEX
  5
294
  8
LAYER_1
 10
132.1249901909722
 20
153.3512763020833
 30
0.0
  0
VERTEX
  5
295
  8
LAYER_1
 10
132.2056465942383
 20
153.518980622016
 30
0.0
  0
VERTEX
  5
296
  8
LAYER_1
 10
132.3016064561632
 20
153.6771175672743
 30
0.0
  0
VERTEX
  5
297
  8
LAYER_1
 10
132.4119137627496
 20
153.8247311238607
 30
0.0
  0
VERTEX
  5
298
  8
LAYER_1
 10
132.5356125
 20
153.9608652777778
 30
0.0
  0
VERTEX
  5
299
  8
LAYER_1
 10
132.6717466539171
 20
154.0845640150282
 30
0.0
  0
VERTEX
  5
29A
  8
LAYER_1
 10
132.8193602105035
 20
154.1948713216146
 30
0.0
  0
VERTEX
  5
29B
  8
LAYER_1
 10
132.9774971557617
 20
154.2908311835395
 30
0.0
  0
VERTEX
  5
29C
  8
LAYER_1
 10
133.1452014756944
 20
154.3714875868056
 30
0.0
  0
VERTEX
  5
29D
  8
LAYER_1
 10
133.3215171563043
 20
154.4358845174154
 30
0.0
  0
VERTEX
  5
29E
  8
LAYER_1
 10
133.5054881835937
 20
154.4830659613715
 30
0.0
  0
VERTEX
  5
29F
  8
LAYER_1
 10
133.6961585435655
 20
154.5120759046766
 30
0.0
  0
VERTEX
  5
2A0
  8
LAYER_1
 10
133.8925722222222
 20
154.5219583333333
 30
0.0
  0
VERTEX
  5
2A1
  8
LAYER_1
 10
134.0885168511285
 20
154.5120759046766
 30
0.0
  0
VERTEX
  5
2A2
  8
LAYER_1
 10
134.2788308159722
 20
154.4830659613715
 30
0.0
  0
VERTEX
  5
2A3
  8
LAYER_1
 10
134.462546733941
 20
154.4358845174154
 30
0.0
  0
VERTEX
  5
2A4
  8
LAYER_1
 10
134.6386972222222
 20
154.3714875868056
 30
0.0
  0
VERTEX
  5
2A5
  8
LAYER_1
 10
134.8063148980035
 20
154.2908311835395
 30
0.0
  0
VERTEX
  5
2A6
  8
LAYER_1
 10
134.9644323784722
 20
154.1948713216146
 30
0.0
  0
VERTEX
  5
2A7
  8
LAYER_1
 10
135.112082280816
 20
154.0845640150282
 30
0.0
  0
VERTEX
  5
2A8
  8
LAYER_1
 10
135.2482972222222
 20
153.9608652777778
 30
0.0
  0
VERTEX
  5
2A9
  8
LAYER_1
 10
135.3721098198785
 20
153.8247311238607
 30
0.0
  0
VERTEX
  5
2AA
  8
LAYER_1
 10
135.4825526909722
 20
153.6771175672743
 30
0.0
  0
VERTEX
  5
2AB
  8
LAYER_1
 10
135.578658452691
 20
153.518980622016
 30
0.0
  0
VERTEX
  5
2AC
  8
LAYER_1
 10
135.6594597222222
 20
153.3512763020833
 30
0.0
  0
VERTEX
  5
2AD
  8
LAYER_1
 10
135.7239891167534
 20
153.1749606214735
 30
0.0
  0
VERTEX
  5
2AE
  8
LAYER_1
 10
135.7712792534722
 20
152.990989594184
 30
0.0
  0
VERTEX
  5
2AF
  8
LAYER_1
 10
135.800362749566
 20
152.8003192342122
 30
0.0
  0
VERTEX
  5
2B0
  8
LAYER_1
 10
135.8102722222222
 20
152.6039055555555
 30
0.0
  0
VERTEX
  5
2B1
  8
LAYER_1
 10
135.8102722222222
 20
140.0245555555555
 30
0.0
  0
VERTEX
  5
2B2
  8
LAYER_1
 10
141.14145
 20
140.0245555555555
 30
0.0
  0
VERTEX
  5
2B3
  8
LAYER_1
 10
141.6123062616136
 20
140.0126075553046
 30
0.0
  0
VERTEX
  5
2B4
  8
LAYER_1
 10
142.0770806593153
 20
139.9771505249023
 30
0.0
  0
VERTEX
  5
2B5
  8
LAYER_1
 10
142.5351917686462
 20
139.9187649198744
 30
0.0
  0
VERTEX
  5
2B6
  8
LAYER_1
 10
142.9860581651475
 20
139.8380311957465
 30
0.0
  0
VERTEX
  5
2B7
  8
LAYER_1
 10
143.4290984243605
 20
139.7355298080444
 30
0.0
  0
VERTEX
  5
2B8
  8
LAYER_1
 10
143.8637311218262
 20
139.6118412122938
 30
0.0
  0
VERTEX
  5
2B9
  8
LAYER_1
 10
144.2893748330858
 20
139.4675458640205
 30
0.0
  0
VERTEX
  5
2BA
  8
LAYER_1
 10
144.7054481336805
 20
139.30322421875
 30
0.0
  0
VERTEX
  5
2BB
  8
LAYER_1
 10
145.1113695991516
 20
139.1194567320082
 30
0.0
  0
VERTEX
  5
2BC
  8
LAYER_1
 10
145.5065578050401
 20
138.9168238593207
 30
0.0
  0
VERTEX
  5
2BD
  8
LAYER_1
 10
145.8904313268873
 20
138.6959060562134
 30
0.0
  0
VERTEX
  5
2BE
  8
LAYER_1
 10
146.2624087402344
 20
138.4572837782118
 30
0.0
  0
VERTEX
  5
2BF
  8
LAYER_1
 10
146.6219086206224
 20
138.2015374808418
 30
0.0
  0
VERTEX
  5
2C0
  8
LAYER_1
 10
146.9683495435927
 20
137.9292476196289
 30
0.0
  0
VERTEX
  5
2C1
  8
LAYER_1
 10
147.3011500846863
 20
137.640994650099
 30
0.0
  0
VERTEX
  5
2C2
  8
LAYER_1
 10
147.6197288194444
 20
137.3373590277778
 30
0.0
  0
VERTEX
  5
2C3
  8
LAYER_1
 10
147.9235043234083
 20
137.0189212081909
 30
0.0
  0
VERTEX
  5
2C4
  8
LAYER_1
 10
148.2118951721191
 20
136.6862616468642
 30
0.0
  0
VERTEX
  5
2C5
  8
LAYER_1
 10
148.484319941118
 20
136.3399607993232
 30
0.0
  0
VERTEX
  5
2C6
  8
LAYER_1
 10
148.7401972059462
 20
135.9805991210937
 30
0.0
  0
VERTEX
  5
2C7
  8
LAYER_1
 10
148.9789455421447
 20
135.6087570677016
 30
0.0
  0
VERTEX
  5
2C8
  8
LAYER_1
 10
149.199983525255
 20
135.2250150946723
 30
0.0
  0
VERTEX
  5
2C9
  8
LAYER_1
 10
149.402729730818
 20
134.8299536575317
 30
0.0
  0
VERTEX
  5
2CA
  8
LAYER_1
 10
149.586602734375
 20
134.4241532118056
 30
0.0
  0
VERTEX
  5
2CB
  8
LAYER_1
 10
149.7510211114671
 20
134.0081942130195
 30
0.0
  0
VERTEX
  5
2CC
  8
LAYER_1
 10
149.8954034376357
 20
133.5826571166992
 30
0.0
  0
VERTEX
  5
2CD
  8
LAYER_1
 10
150.0191682884216
 20
133.1481223783705
 30
0.0
  0
VERTEX
  5
2CE
  8
LAYER_1
 10
150.1217342393663
 20
132.705170453559
 30
0.0
  0
VERTEX
  5
2CF
  8
LAYER_1
 10
150.2025198660109
 20
132.2543817977905
 30
0.0
  0
VERTEX
  5
2D0
  8
LAYER_1
 10
150.2609437438965
 20
131.7963368665907
 30
0.0
  0
VERTEX
  5
2D1
  8
LAYER_1
 10
150.2964244485643
 20
131.3316161154853
 30
0.0
  0
VERTEX
  5
2D2
  8
LAYER_1
 10
150.3083805555555
 20
130.8608
 30
0.0
  0
VERTEX
  5
2D3
  8
LAYER_1
 10
150.3083805555555
 20
125.5268
 30
0.0
  0
VERTEX
  5
2D4
  8
LAYER_1
 10
188.6373333333333
 20
125.5268
 30
0.0
  0
VERTEX
  5
2D5
  8
LAYER_1
 10
188.8332237881131
 20
125.5169176574707
 30
0.0
  0
VERTEX
  5
2D6
  8
LAYER_1
 10
189.0235057996962
 20
125.4879083170573
 30
0.0
  0
VERTEX
  5
2D7
  8
LAYER_1
 10
189.2072094014486
 20
125.4407285095215
 30
0.0
  0
VERTEX
  5
2D8
  8
LAYER_1
 10
189.3833646267361
 20
125.376334765625
 30
0.0
  0
VERTEX
  5
2D9
  8
LAYER_1
 10
189.5510015089247
 20
125.2956836161296
 30
0.0
  0
VERTEX
  5
2DA
  8
LAYER_1
 10
189.7091500813802
 20
125.1997315917969
 30
0.0
  0
VERTEX
  5
2DB
  8
LAYER_1
 10
189.8568403774685
 20
125.0894352233887
 30
0.0
  0
VERTEX
  5
2DC
  8
LAYER_1
 10
189.9931024305556
 20
124.9657510416667
 30
0.0
  0
VERTEX
  5
2DD
  8
LAYER_1
 10
190.1169662740072
 20
124.8296355773926
 30
0.0
  0
VERTEX
  5
2DE
  8
LAYER_1
 10
190.2274619411892
 20
124.6820453613281
 30
0.0
  0
VERTEX
  5
2DF
  8
LAYER_1
 10
190.3236194654677
 20
124.523936924235
 30
0.0
  0
VERTEX
  5
2E0
  8
LAYER_1
 10
190.4044688802083
 20
124.356266796875
 30
0.0
  0
VERTEX
  5
2E1
  8
LAYER_1
 10
190.4690402187771
 20
124.1799915100098
 30
0.0
  0
VERTEX
  5
2E2
  8
LAYER_1
 10
190.5163635145399
 20
123.996067594401
 30
0.0
  0
VERTEX
  5
2E3
  8
LAYER_1
 10
190.5454688008626
 20
123.8054515808105
 30
0.0
  0
VERTEX
  5
2E4
  8
LAYER_1
 10
190.5553861111111
 20
123.6091
 30
0.0
  0
VERTEX
  5
2E5
  8
LAYER_1
 10
190.5454688008626
 20
123.4126863213433
 30
0.0
  0
VERTEX
  5
2E6
  8
LAYER_1
 10
190.5163635145399
 20
123.2220159613715
 30
0.0
  0
VERTEX
  5
2E7
  8
LAYER_1
 10
190.4690402187771
 20
123.038044934082
 30
0.0
  0
VERTEX
  5
2E8
  8
LAYER_1
 10
190.4044688802083
 20
122.8617292534722
 30
0.0
  0
VERTEX
  5
2E9
  8
LAYER_1
 10
190.3236194654677
 20
122.6940249335395
 30
0.0
  0
VERTEX
  5
2EA
  8
LAYER_1
 10
190.2274619411892
 20
122.5358879882812
 30
0.0
  0
VERTEX
  5
2EB
  8
LAYER_1
 10
190.1169662740072
 20
122.3882744316949
 30
0.0
  0
VERTEX
  5
2EC
  8
LAYER_1
 10
189.9931024305556
 20
122.2521402777778
 30
0.0
  0
VERTEX
  5
2ED
  8
LAYER_1
 10
189.8568403774685
 20
122.1284415405273
 30
0.0
  0
VERTEX
  5
2EE
  8
LAYER_1
 10
189.7091500813802
 20
122.018134233941
 30
0.0
  0
VERTEX
  5
2EF
  8
LAYER_1
 10
189.5510015089247
 20
121.9221743720161
 30
0.0
  0
VERTEX
  5
2F0
  8
LAYER_1
 10
189.3833646267361
 20
121.84151796875
 30
0.0
  0
VERTEX
  5
2F1
  8
LAYER_1
 10
189.2072094014486
 20
121.7771210381402
 30
0.0
  0
VERTEX
  5
2F2
  8
LAYER_1
 10
189.0235057996962
 20
121.729939594184
 30
0.0
  0
VERTEX
  5
2F3
  8
LAYER_1
 10
188.8332237881131
 20
121.7009296508789
 30
0.0
  0
SEQEND
  5
2F4
  8
LAYER_1
  0
POLYLINE
  5
45
  8
LAYER_1
 66
     1
 10
0.0
 20
0.0
 30
0.0
 70
     1
  0
VERTEX
  5
2F5
  8
LAYER_1
 10
183.0849638888889
 20
101.5022805555556
 30
0.0
  0
VERTEX
  5
2F6
  8
LAYER_1
 10
189.8660583333333
 20
91.31723333333332
 30
0.0
  0
VERTEX
  5
2F7
  8
LAYER_1
 10
189.9388979871962
 20
91.19518806966144
 30
0.0
  0
VERTEX
  5
2F8
  8
LAYER_1
 10
190.0020927517361
 20
91.07059205729166
 30
0.0
  0
VERTEX
  5
2F9
  8
LAYER_1
 10
190.0556219563802
 20
90.9434080891927
 30
0.0
  0
VERTEX
  5
2FA
  8
LAYER_1
 10
190.0994649305555
 20
90.81359895833333
 30
0.0
  0
VERTEX
  5
2FB
  8
LAYER_1
 10
190.1336010036892
 20
90.68112745768228
 30
0.0
  0
VERTEX
  5
2FC
  8
LAYER_1
 10
190.1580095052083
 20
90.54595638020832
 30
0.0
  0
VERTEX
  5
2FD
  8
LAYER_1
 10
190.1726697645399
 20
90.40804851888021
 30
0.0
  0
VERTEX
  5
2FE
  8
LAYER_1
 10
190.1775611111111
 20
90.26736666666666
 30
0.0
  0
VERTEX
  5
2FF
  8
LAYER_1
 10
190.1702517381456
 20
90.04059782104491
 30
0.0
  0
VERTEX
  5
300
  8
LAYER_1
 10
190.1483225857205
 20
89.82847045898437
 30
0.0
  0
VERTEX
  5
301
  8
LAYER_1
 10
190.1117721035428
 20
89.63098303019206
 30
0.0
  0
VERTEX
  5
302
  8
LAYER_1
 10
190.0605987413194
 20
89.44813398437499
 30
0.0
  0
VERTEX
  5
303
  8
LAYER_1
 10
189.9948009487576
 20
89.27992177124021
 30
0.0
  0
VERTEX
  5
304
  8
LAYER_1
 10
189.9143771755642
 20
89.12634484049477
 30
0.0
  0
VERTEX
  5
305
  8
LAYER_1
 10
189.8193258714464
 20
88.98740164184568
 30
0.0
  0
VERTEX
  5
306
  8
LAYER_1
 10
189.7096454861111
 20
88.86309062499998
 30
0.0
  0
VERTEX
  5
307
  8
LAYER_1
 10
189.5853344692654
 20
88.7534102396647
 30
0.0
  0
VERTEX
  5
308
  8
LAYER_1
 10
189.4463912706163
 20
88.65835893554686
 30
0.0
  0
VERTEX
  5
309
  8
LAYER_1
 10
189.2928143398708
 20
88.57793516235351
 30
0.0
  0
VERTEX
  5
30A
  8
LAYER_1
 10
189.1246021267361
 20
88.51213736979166
 30
0.0
  0
VERTEX
  5
30B
  8
LAYER_1
 10
188.941753080919
 20
88.46096400756835
 30
0.0
  0
VERTEX
  5
30C
  8
LAYER_1
 10
188.7442656521267
 20
88.42441352539062
 30
0.0
  0
VERTEX
  5
30D
  8
LAYER_1
 10
188.5321382900662
 20
88.40248437296549
 30
0.0
  0
VERTEX
  5
30E
  8
LAYER_1
 10
188.3053694444444
 20
88.395175
 30
0.0
  0
VERTEX
  5
30F
  8
LAYER_1
 10
188.0576154025608
 20
88.40799557834201
 30
0.0
  0
VERTEX
  5
310
  8
LAYER_1
 10
187.8249798177083
 20
88.44647660590277
 30
0.0
  0
VERTEX
  5
311
  8
LAYER_1
 10
187.6074337510851
 20
88.51064702148437
 30
0.0
  0
VERTEX
  5
312
  8
LAYER_1
 10
187.4049482638889
 20
88.60053576388889
 30
0.0
  0
VERTEX
  5
313
  8
LAYER_1
 10
187.2174944173177
 20
88.7161717719184
 30
0.0
  0
VERTEX
  5
314
  8
LAYER_1
 10
187.0450432725694
 20
88.857583984375
 30
0.0
  0
VERTEX
  5
315
  8
LAYER_1
 10
186.887565890842
 20
89.02480134006078
 30
0.0
  0
VERTEX
  5
316
  8
LAYER_1
 10
186.7450333333333
 20
89.21785277777778
 30
0.0
  0
VERTEX
  5
317
  8
LAYER_1
 10
180.8151916666667
 20
98.12619722222222
 30
0.0
  0
VERTEX
  5
318
  8
LAYER_1
 10
174.8860555555555
 20
89.21785277777778
 30
0.0
  0
VERTEX
  5
319
  8
LAYER_1
 10
174.7434210232205
 20
89.02480134006078
 30
0.0
  0
VERTEX
  5
31A
  8
LAYER_1
 10
174.5858912760417
 20
88.857583984375
 30
0.0
  0
VERTEX
  5
31B
  8
LAYER_1
 10
174.4134208387587
 20
88.7161717719184
 30
0.0
  0
VERTEX
  5
31C
  8
LAYER_1
 10
174.2259642361111
 20
88.60053576388889
 30
0.0
  0
VERTEX
  5
31D
  8
LAYER_1
 10
174.0234759928385
 20
88.51064702148437
 30
0.0
  0
VERTEX
  5
31E
  8
LAYER_1
 10
173.8059106336806
 20
88.44647660590277
 30
0.0
  0
VERTEX
  5
31F
  8
LAYER_1
 10
173.5732226833767
 20
88.40799557834201
 30
0.0
  0
VERTEX
  5
320
  8
LAYER_1
 10
173.3253666666666
 20
88.395175
 30
0.0
  0
VERTEX
  5
321
  8
LAYER_1
 10
173.1372637641059
 20
88.4038077202691
 30
0.0
  0
VERTEX
  5
322
  8
LAYER_1
 10
172.9558043836805
 20
88.42970863715277
 30
0.0
  0
VERTEX
  5
323
  8
LAYER_1
 10
172.780984391276
 20
88.47288188476561
 30
0.0
  0
VERTEX
  5
324
  8
LAYER_1
 10
172.6127996527778
 20
88.53333159722222
 30
0.0
  0
VERTEX
  5
325
  8
LAYER_1
 10
172.4512460340712
 20
88.61106190863714
 30
0.0
  0
VERTEX
  5
326
  8
LAYER_1
 10
172.2963194010417
 20
88.70607695312499
 30
0.0
  0
VERTEX
  5
327
  8
LAYER_1
 10
172.1480156195746
 20
88.81838086480035
 30
0.0
  0
VERTEX
  5
328
  8
LAYER_1
 10
172.0063305555555
 20
88.94797777777777
 30
0.0
  0
VERTEX
  5
329
  8
LAYER_1
 10
171.8766020399305
 20
89.08966353081595
 30
0.0
  0
VERTEX
  5
32A
  8
LAYER_1
 10
171.7641706597222
 20
89.23797213541665
 30
0.0
  0
VERTEX
  5
32B
  8
LAYER_1
 10
171.6690364149305
 20
89.39291185980902
 30
0.0
  0
VERTEX
  5
32C
  8
LAYER_1
 10
171.5911993055555
 20
89.55449097222221
 30
0.0
  0
VERTEX
  5
32D
  8
LAYER_1
 10
171.5306593315972
 20
89.72271774088541
 30
0.0
  0
VERTEX
  5
32E
  8
LAYER_1
 10
171.4874164930555
 20
89.89760043402777
 30
0.0
  0
VERTEX
  5
32F
  8
LAYER_1
 10
171.4614707899306
 20
90.07914731987847
 30
0.0
  0
VERTEX
  5
330
  8
LAYER_1
 10
171.4528222222222
 20
90.26736666666666
 30
0.0
  0
VERTEX
  5
331
  8
LAYER_1
 10
171.4577438856336
 20
90.40804851888021
 30
0.0
  0
VERTEX
  5
332
  8
LAYER_1
 10
171.4724840711805
 20
90.54595638020832
 30
0.0
  0
VERTEX
  5
333
  8
LAYER_1
 10
171.4970055718316
 20
90.68112745768228
 30
0.0
  0
VERTEX
  5
334
  8
LAYER_1
 10
171.5312711805555
 20
90.81359895833333
 30
0.0
  0
VERTEX
  5
335
  8
LAYER_1
 10
171.5752436903212
 20
90.9434080891927
 30
0.0
  0
VERTEX
  5
336
  8
LAYER_1
 10
171.6288858940972
 20
91.07059205729166
 30
0.0
  0
VERTEX
  5
337
  8
LAYER_1
 10
171.6921605848524
 20
91.19518806966144
 30
0.0
  0
VERTEX
  5
338
  8
LAYER_1
 10
171.7650305555555
 20
91.31723333333332
 30
0.0
  0
VERTEX
  5
339
  8
LAYER_1
 10
178.5457722222222
 20
101.5022805555556
 30
0.0
  0
VERTEX
  5
33A
  8
LAYER_1
 10
171.7650305555555
 20
111.6876805555556
 30
0.0
  0
VERTEX
  5
33B
  8
LAYER_1
 10
171.6921605848524
 20
111.809609375
 30
0.0
  0
VERTEX
  5
33C
  8
LAYER_1
 10
171.6288858940972
 20
111.9341178819444
 30
0.0
  0
VERTEX
  5
33D
  8
LAYER_1
 10
171.5752436903212
 20
112.0612391493055
 30
0.0
  0
VERTEX
  5
33E
  8
LAYER_1
 10
171.5312711805555
 20
112.19100625
 30
0.0
  0
VERTEX
  5
33F
  8
LAYER_1
 10
171.4970055718316
 20
112.3234522569444
 30
0.0
  0
VERTEX
  5
340
  8
LAYER_1
 10
171.4724840711805
 20
112.4586102430555
 30
0.0
  0
VERTEX
  5
341
  8
LAYER_1
 10
171.4577438856336
 20
112.59651328125
 30
0.0
  0
VERTEX
  5
342
  8
LAYER_1
 10
171.4528222222222
 20
112.7371944444444
 30
0.0
  0
VERTEX
  5
343
  8
LAYER_1
 10
171.4601394327799
 20
112.963967251926
 30
0.0
  0
VERTEX
  5
344
  8
LAYER_1
 10
171.482090375434
 20
113.1761058105469
 30
0.0
  0
VERTEX
  5
345
  8
LAYER_1
 10
171.5186740166558
 20
113.3736106370714
 30
0.0
  0
VERTEX
  5
346
  8
LAYER_1
 10
171.5698893229167
 20
113.5564822482639
 30
0.0
  0
VERTEX
  5
347
  8
LAYER_1
 10
171.6357352606879
 20
113.7247211608887
 30
0.0
  0
VERTEX
  5
348
  8
LAYER_1
 10
171.716210796441
 20
113.8783278917101
 30
0.0
  0
VERTEX
  5
349
  8
LAYER_1
 10
171.8113148966471
 20
114.0173029574924
 30
0.0
  0
VERTEX
  5
34A
  8
LAYER_1
 10
171.9210465277778
 20
114.141646875
 30
0.0
  0
VERTEX
  5
34B
  8
LAYER_1
 10
172.0454046563042
 20
114.2513601609972
 30
0.0
  0
VERTEX
  5
34C
  8
LAYER_1
 10
172.1843882486979
 20
114.3464433322482
 30
0.0
  0
VERTEX
  5
34D
  8
LAYER_1
 10
172.3379962714301
 20
114.4268969055176
 30
0.0
  0
VERTEX
  5
34E
  8
LAYER_1
 10
172.5062276909722
 20
114.4927213975694
 30
0.0
  0
VERTEX
  5
34F
  8
LAYER_1
 10
172.6890814737956
 20
114.5439173251682
 30
0.0
  0
VERTEX
  5
350
  8
LAYER_1
 10
172.8865565863715
 20
114.5804852050781
 30
0.0
  0
VERTEX
  5
351
  8
LAYER_1
 10
173.0986519951714
 20
114.6024255540636
 30
0.0
  0
VERTEX
  5
352
  8
LAYER_1
 10
173.3253666666666
 20
114.6097388888889
 30
0.0
  0
VERTEX
  5
353
  8
LAYER_1
 10
173.5732226833767
 20
114.5969038411458
 30
0.0
  0
VERTEX
  5
354
  8
LAYER_1
 10
173.8059106336806
 20
114.5583876736111
 30
0.0
  0
VERTEX
  5
355
  8
LAYER_1
 10
174.0234759928385
 20
114.4941738498264
 30
0.0
  0
VERTEX
  5
356
  8
LAYER_1
 10
174.2259642361111
 20
114.4042458333333
 30
0.0
  0
VERTEX
  5
357
  8
LAYER_1
 10
174.4134208387587
 20
114.2885870876736
 30
0.0
  0
VERTEX
  5
358
  8
LAYER_1
 10
174.5858912760417
 20
114.1471810763889
 30
0.0
  0
VERTEX
  5
359
  8
LAYER_1
 10
174.7434210232205
 20
113.9800112630208
 30
0.0
  0
VERTEX
  5
35A
  8
LAYER_1
 10
174.8860555555555
 20
113.7870611111111
 30
0.0
  0
VERTEX
  5
35B
  8
LAYER_1
 10
180.8151916666667
 20
104.9069388888889
 30
0.0
  0
VERTEX
  5
35C
  8
LAYER_1
 10
186.7450333333333
 20
113.7870611111111
 30
0.0
  0
VERTEX
  5
35D
  8
LAYER_1
 10
186.887565890842
 20
113.9800112630208
 30
0.0
  0
VERTEX
  5
35E
  8
LAYER_1
 10
187.0450432725694
 20
114.1471810763889
 30
0.0
  0
VERTEX
  5
35F
  8
LAYER_1
 10
187.2174944173177
 20
114.2885870876736
 30
0.0
  0
VERTEX
  5
360
  8
LAYER_1
 10
187.4049482638889
 20
114.4042458333333
 30
0.0
  0
VERTEX
  5
361
  8
LAYER_1
 10
187.6074337510851
 20
114.4941738498264
 30
0.0
  0
VERTEX
  5
362
  8
LAYER_1
 10
187.8249798177083
 20
114.5583876736111
 30
0.0
  0
VERTEX
  5
363
  8
LAYER_1
 10
188.0576154025608
 20
114.5969038411458
 30
0.0
  0
VERTEX
  5
364
  8
LAYER_1
 10
188.3053694444444
 20
114.6097388888889
 30
0.0
  0
VERTEX
  5
365
  8
LAYER_1
 10
188.5321382900662
 20
114.6025410508897
 30
0.0
  0
VERTEX
  5
366
  8
LAYER_1
 10
188.7442656521267
 20
114.5809461588541
 30
0.0
  0
VERTEX
  5
367
  8
LAYER_1
 10
188.941753080919
 20
114.5449521457248
 30
0.0
  0
VERTEX
  5
368
  8
LAYER_1
 10
189.1246021267361
 20
114.4945569444444
 30
0.0
  0
VERTEX
  5
369
  8
LAYER_1
 10
189.2928143398708
 20
114.4297584879557
 30
0.0
  0
VERTEX
  5
36A
  8
LAYER_1
 10
189.4463912706163
 20
114.3505547092014
 30
0.0
  0
VERTEX
  5
36B
  8
LAYER_1
 10
189.5853344692654
 20
114.2569435411241
 30
0.0
  0
VERTEX
  5
36C
  8
LAYER_1
 10
189.7096454861111
 20
114.1489229166667
 30
0.0
  0
VERTEX
  5
36D
  8
LAYER_1
 10
189.8193258714464
 20
114.0264907687717
 30
0.0
  0
VERTEX
  5
36E
  8
LAYER_1
 10
189.9143771755642
 20
113.889645030382
 30
0.0
  0
VERTEX
  5
36F
  8
LAYER_1
 10
189.9948009487576
 20
113.7383836344401
 30
0.0
  0
VERTEX
  5
370
  8
LAYER_1
 10
190.0605987413194
 20
113.5727045138889
 30
0.0
  0
VERTEX
  5
371
  8
LAYER_1
 10
190.1117721035428
 20
113.392605601671
 30
0.0
  0
VERTEX
  5
372
  8
LAYER_1
 10
190.1483225857205
 20
113.1980848307292
 30
0.0
  0
VERTEX
  5
373
  8
LAYER_1
 10
190.1702517381456
 20
112.9891401340061
 30
0.0
  0
VERTEX
  5
374
  8
LAYER_1
 10
190.1775611111111
 20
112.7657694444444
 30
0.0
  0
VERTEX
  5
375
  8
LAYER_1
 10
190.1726697645399
 20
112.6185935872396
 30
0.0
  0
VERTEX
  5
376
  8
LAYER_1
 10
190.1580095052083
 20
112.4749813368055
 30
0.0
  0
VERTEX
  5
377
  8
LAYER_1
 10
190.1336010036892
 20
112.3349244249132
 30
0.0
  0
VERTEX
  5
378
  8
LAYER_1
 10
190.0994649305555
 20
112.1984145833333
 30
0.0
  0
VERTEX
  5
379
  8
LAYER_1
 10
190.0556219563802
 20
112.0654435438368
 30
0.0
  0
VERTEX
  5
37A
  8
LAYER_1
 10
190.0020927517361
 20
111.9360030381944
 30
0.0
  0
VERTEX
  5
37B
  8
LAYER_1
 10
189.9388979871962
 20
111.8100847981771
 30
0.0
  0
VERTEX
  5
37C
  8
LAYER_1
 10
189.8660583333333
 20
111.6876805555556
 30
0.0
  0
SEQEND
  5
37D
  8
LAYER_1
  0
POLYLINE
  5
46
  8
LAYER_1
 66
     1
 10
0.0
 20
0.0
 30
0.0
 70
     1
  0
VERTEX
  5
37E
  8
LAYER_1
 10
201.4128277777777
 20
107.1199138888889
 30
0.0
  0
VERTEX
  5
37F
  8
LAYER_1
 10
201.4128277777777
 20
92.13991111111112
 30
0.0
  0
VERTEX
  5
380
  8
LAYER_1
 10
208.9026527777777
 20
92.13991111111112
 30
0.0
  0
VERTEX
  5
381
  8
LAYER_1
 10
209.2925247599284
 20
92.14839009399415
 30
0.0
  0
VERTEX
  5
382
  8
LAYER_1
 10
209.6747413953993
 20
92.1738266981337
 30
0.0
  0
VERTEX
  5
383
  8
LAYER_1
 10
210.0493037177192
 20
92.21622040676542
 30
0.0
  0
VERTEX
  5
384
  8
LAYER_1
 10
210.4162127604166
 20
92.275570703125
 30
0.0
  0
VERTEX
  5
385
  8
LAYER_1
 10
210.7754695570204
 20
92.35187707044814
 30
0.0
  0
VERTEX
  5
386
  8
LAYER_1
 10
211.127075141059
 20
92.44513899197048
 30
0.0
  0
VERTEX
  5
387
  8
LAYER_1
 10
211.4710305460612
 20
92.55535595092773
 30
0.0
  0
VERTEX
  5
388
  8
LAYER_1
 10
211.8073368055555
 20
92.68252743055555
 30
0.0
  0
VERTEX
  5
389
  8
LAYER_1
 10
212.1359949530707
 20
92.82665291408962
 30
0.0
  0
VERTEX
  5
38A
  8
LAYER_1
 10
212.4570060221354
 20
92.98773188476562
 30
0.0
  0
VERTEX
  5
38B
  8
LAYER_1
 10
212.7703710462782
 20
93.16576382581921
 30
0.0
  0
VERTEX
  5
38C
  8
LAYER_1
 10
213.0760910590278
 20
93.3607482204861
 30
0.0
  0
VERTEX
  5
38D
  8
LAYER_1
 10
213.3741670939127
 20
93.57268455200195
 30
0.0
  0
VERTEX
  5
38E
  8
LAYER_1
 10
213.6646001844618
 20
93.80157230360243
 30
0.0
  0
VERTEX
  5
38F
  8
LAYER_1
 10
213.9473913642035
 20
94.0474109585232
 30
0.0
  0
VERTEX
  5
390
  8
LAYER_1
 10
214.2225416666666
 20
94.3102
 30
0.0
  0
VERTEX
  5
391
  8
LAYER_1
 10
214.4852686102973
 20
94.5853503024631
 30
0.0
  0
VERTEX
  5
392
  8
LAYER_1
 10
214.7310529188368
 20
94.86814148220483
 30
0.0
  0
VERTEX
  5
393
  8
LAYER_1
 10
214.9598935587565
 20
95.15857457275389
 30
0.0
  0
VERTEX
  5
394
  8
LAYER_1
 10
215.1717894965278
 20
95.45665060763888
 30
0.0
  0
VERTEX
  5
395
  8
LAYER_1
 10
215.3667396986219
 20
95.76237062038844
 30
0.0
  0
VERTEX
  5
396
  8
LAYER_1
 10
215.5447431315104
 20
96.07573564453124
 30
0.0
  0
VERTEX
  5
397
  8
LAYER_1
 10
215.7057987616645
 20
96.39674671359592
 30
0.0
  0
VERTEX
  5
398
  8
LAYER_1
 10
215.8499055555555
 20
96.7254048611111
 30
0.0
  0
VERTEX
  5
399
  8
LAYER_1
 10
215.9770624796549
 20
97.06171112060545
 30
0.0
  0
VERTEX
  5
39A
  8
LAYER_1
 10
216.087268500434
 20
97.40566652560763
 30
0.0
  0
VERTEX
  5
39B
  8
LAYER_1
 10
216.1805225843641
 20
97.75727210964625
 30
0.0
  0
VERTEX
  5
39C
  8
LAYER_1
 10
216.2568236979166
 20
98.11652890624998
 30
0.0
  0
VERTEX
  5
39D
  8
LAYER_1
 10
216.3161708075629
 20
98.48343794894745
 30
0.0
  0
VERTEX
  5
39E
  8
LAYER_1
 10
216.3585628797743
 20
98.85800027126734
 30
0.0
  0
VERTEX
  5
39F
  8
LAYER_1
 10
216.3839988810221
 20
99.24021690673827
 30
0.0
  0
VERTEX
  5
3A0
  8
LAYER_1
 10
216.3924777777777
 20
99.63008888888888
 30
0.0
  0
VERTEX
  5
3A1
  8
LAYER_1
 10
216.3839988810221
 20
100.0198987731933
 30
0.0
  0
VERTEX
  5
3A2
  8
LAYER_1
 10
216.3585628797743
 20
100.402061062283
 30
0.0
  0
VERTEX
  5
3A3
  8
LAYER_1
 10
216.3161708075629
 20
100.7765762729221
 30
0.0
  0
VERTEX
  5
3A4
  8
LAYER_1
 10
216.2568236979166
 20
101.143444921875
 30
0.0
  0
VERTEX
  5
3A5
  8
LAYER_1
 10
216.1805225843641
 20
101.502667525906
 30
0.0
  0
VERTEX
  5
3A6
  8
LAYER_1
 10
216.087268500434
 20
101.8542446017795
 30
0.0
  0
VERTEX
  5
3A7
  8
LAYER_1
 10
215.9770624796549
 20
102.1981766662597
 30
0.0
  0
VERTEX
  5
3A8
  8
LAYER_1
 10
215.8499055555555
 20
102.5344642361111
 30
0.0
  0
VERTEX
  5
3A9
  8
LAYER_1
 10
215.7057987616645
 20
102.8631078280978
 30
0.0
  0
VERTEX
  5
3AA
  8
LAYER_1
 10
215.5447431315104
 20
103.1841079589844
 30
0.0
  0
VERTEX
  5
3AB
  8
LAYER_1
 10
215.3667396986219
 20
103.4974651455349
 30
0.0
  0
VERTEX
  5
3AC
  8
LAYER_1
 10
215.1717894965278
 20
103.8031799045139
 30
0.0
  0
VERTEX
  5
3AD
  8
LAYER_1
 10
214.9598935587565
 20
104.1012527526855
 30
0.0
  0
VERTEX
  5
3AE
  8
LAYER_1
 10
214.7310529188368
 20
104.3916842068142
 30
0.0
  0
VERTEX
  5
3AF
  8
LAYER_1
 10
214.4852686102973
 20
104.6744747836643
 30
0.0
  0
VERTEX
  5
3B0
  8
LAYER_1
 10
214.2225416666666
 20
104.949625
 30
0.0
  0
VERTEX
  5
3B1
  8
LAYER_1
 10
213.9473913642035
 20
105.2124140414768
 30
0.0
  0
VERTEX
  5
3B2
  8
LAYER_1
 10
213.6646001844618
 20
105.4582526963976
 30
0.0
  0
VERTEX
  5
3B3
  8
LAYER_1
 10
213.3741670939127
 20
105.687140447998
 30
0.0
  0
VERTEX
  5
3B4
  8
LAYER_1
 10
213.0760910590278
 20
105.8990767795139
 30
0.0
  0
VERTEX
  5
3B5
  8
LAYER_1
 10
212.7703710462782
 20
106.0940611741808
 30
0.0
  0
VERTEX
  5
3B6
  8
LAYER_1
 10
212.4570060221354
 20
106.2720931152344
 30
0.0
  0
VERTEX
  5
3B7
  8
LAYER_1
 10
212.1359949530707
 20
106.4331720859104
 30
0.0
  0
VERTEX
  5
3B8
  8
LAYER_1
 10
211.8073368055555
 20
106.5772975694444
 30
0.0
  0
VERTEX
  5
3B9
  8
LAYER_1
 10
211.4710305460612
 20
106.7044690490722
 30
0.0
  0
VERTEX
  5
3BA
  8
LAYER_1
 10
211.127075141059
 20
106.8146860080295
 30
0.0
  0
VERTEX
  5
3BB
  8
LAYER_1
 10
210.7754695570204
 20
106.9079479295518
 30
0.0
  0
VERTEX
  5
3BC
  8
LAYER_1
 10
210.4162127604166
 20
106.984254296875
 30
0.0
  0
VERTEX
  5
3BD
  8
LAYER_1
 10
210.0493037177192
 20
107.0436045932346
 30
0.0
  0
VERTEX
  5
3BE
  8
LAYER_1
 10
209.6747413953993
 20
107.0859983018663
 30
0.0
  0
VERTEX
  5
3BF
  8
LAYER_1
 10
209.2925247599284
 20
107.1114349060058
 30
0.0
  0
VERTEX
  5
3C0
  8
LAYER_1
 10
208.9026527777777
 20
107.1199138888889
 30
0.0
  0
SEQEND
  5
3C1
  8
LAYER_1
  0
POLYLINE
  5
47
  8
LAYER_1
 66
     1
 10
0.0
 20
0.0
 30
0.0
 70
     1
  0
VERTEX
  5
3C2
  8
LAYER_1
 10
201.4128277777777
 20
122.0995638888889
 30
0.0
  0
VERTEX
  5
3C3
  8
LAYER_1
 10
201.4128277777777
 20
110.86465
 30
0.0
  0
VERTEX
  5
3C4
  8
LAYER_1
 10
208.9026527777777
 20
110.86465
 30
0.0
  0
VERTEX
  5
3C5
  8
LAYER_1
 10
209.1909382819281
 20
110.8710862996419
 30
0.0
  0
VERTEX
  5
3C6
  8
LAYER_1
 10
209.4738489203559
 20
110.8903931315104
 30
0.0
  0
VERTEX
  5
3C7
  8
LAYER_1
 10
209.7513924445258
 20
110.9225673950195
 30
0.0
  0
VERTEX
  5
3C8
  8
LAYER_1
 10
210.0235766059027
 20
110.9676059895833
 30
0.0
  0
VERTEX
  5
3C9
  8
LAYER_1
 10
210.2904091559516
 20
111.0255058146159
 30
0.0
  0
VERTEX
  5
3CA
  8
LAYER_1
 10
210.5518978461371
 20
111.0962637695312
 30
0.0
  0
VERTEX
  5
3CB
  8
LAYER_1
 10
210.8080504279242
 20
111.1798767537435
 30
0.0
  0
VERTEX
  5
3CC
  8
LAYER_1
 10
211.0588746527777
 20
111.2763416666667
 30
0.0
  0
VERTEX
  5
3CD
  8
LAYER_1
 10
211.3043782721625
 20
111.3856554077148
 30
0.0
  0
VERTEX
  5
3CE
  8
LAYER_1
 10
211.5445690375434
 20
111.5078148763021
 30
0.0
  0
VERTEX
  5
3CF
  8
LAYER_1
 10
211.7794547003851
 20
111.6428169718424
 30
0.0
  0
VERTEX
  5
3D0
  8
LAYER_1
 10
212.0090430121527
 20
111.79065859375
 30
0.0
  0
VERTEX
  5
3D1
  8
LAYER_1
 10
212.2333417243109
 20
111.9513366414388
 30
0.0
  0
VERTEX
  5
3D2
  8
LAYER_1
 10
212.4523585883246
 20
112.1248480143229
 30
0.0
  0
VERTEX
  5
3D3
  8
LAYER_1
 10
212.6661013556586
 20
112.3111896118164
 30
0.0
  0
VERTEX
  5
3D4
  8
LAYER_1
 10
212.8745777777777
 20
112.5103583333333
 30
0.0
  0
VERTEX
  5
3D5
  8
LAYER_1
 10
213.0740332173665
 20
112.7186177144368
 30
0.0
  0
VERTEX
  5
3D6
  8
LAYER_1
 10
213.2605793674045
 20
112.9322302571615
 30
0.0
  0
VERTEX
  5
3D7
  8
LAYER_1
 10
213.4342219122993
 20
113.1511913106282
 30
0.0
  0
VERTEX
  5
3D8
  8
LAYER_1
 10
213.5949665364583
 20
113.3754962239583
 30
0.0
  0
VERTEX
  5
3D9
  8
LAYER_1
 10
213.7428189242893
 20
113.6051403462728
 30
0.0
  0
VERTEX
  5
3DA
  8
LAYER_1
 10
213.8777847601996
 20
113.8401190266927
 30
0.0
  0
VERTEX
  5
3DB
  8
LAYER_1
 10
213.999869728597
 20
114.0804276143392
 30
0.0
  0
VERTEX
  5
3DC
  8
LAYER_1
 10
214.1090795138889
 20
114.3260614583333
 30
0.0
  0
VERTEX
  5
3DD
  8
LAYER_1
 10
214.2054198004828
 20
114.5770159077962
 30
0.0
  0
VERTEX
  5
3DE
  8
LAYER_1
 10
214.2888962727864
 20
114.833286311849
 30
0.0
  0
VERTEX
  5
3DF
  8
LAYER_1
 10
214.3595146152072
 20
115.0948680196126
 30
0.0
  0
VERTEX
  5
3E0
  8
LAYER_1
 10
214.4172805121528
 20
115.3617563802083
 30
0.0
  0
VERTEX
  5
3E1
  8
LAYER_1
 10
214.4621996480306
 20
115.6339467427572
 30
0.0
  0
VERTEX
  5
3E2
  8
LAYER_1
 10
214.4942777072483
 20
115.9114344563802
 30
0.0
  0
VERTEX
  5
3E3
  8
LAYER_1
 10
214.5135203742133
 20
116.1942148701986
 30
0.0
  0
VERTEX
  5
3E4
  8
LAYER_1
 10
214.5199333333333
 20
116.4822833333333
 30
0.0
  0
VERTEX
  5
3E5
  8
LAYER_1
 10
214.5135203742133
 20
116.7703479207356
 30
0.0
  0
VERTEX
  5
3E6
  8
LAYER_1
 10
214.4942777072483
 20
117.0531177408854
 30
0.0
  0
VERTEX
  5
3E7
  8
LAYER_1
 10
214.4621996480306
 20
117.3305896931966
 30
0.0
  0
VERTEX
  5
3E8
  8
LAYER_1
 10
214.4172805121528
 20
117.6027606770833
 30
0.0
  0
VERTEX
  5
3E9
  8
LAYER_1
 10
214.3595146152072
 20
117.8696275919596
 30
0.0
  0
VERTEX
  5
3EA
  8
LAYER_1
 10
214.2888962727864
 20
118.1311873372396
 30
0.0
  0
VERTEX
  5
3EB
  8
LAYER_1
 10
214.2054198004828
 20
118.3874368123372
 30
0.0
  0
VERTEX
  5
3EC
  8
LAYER_1
 10
214.1090795138889
 20
118.6383729166667
 30
0.0
  0
VERTEX
  5
3ED
  8
LAYER_1
 10
213.999869728597
 20
118.8839925496419
 30
0.0
  0
VERTEX
  5
3EE
  8
LAYER_1
 10
213.8777847601996
 20
119.1242926106771
 30
0.0
  0
VERTEX
  5
3EF
  8
LAYER_1
 10
213.7428189242893
 20
119.3592699991862
 30
0.0
  0
VERTEX
  5
3F0
  8
LAYER_1
 10
213.5949665364583
 20
119.5889216145833
 30
0.0
  0
VERTEX
  5
3F1
  8
LAYER_1
 10
213.4342219122993
 20
119.8132443562826
 30
0.0
  0
VERTEX
  5
3F2
  8
LAYER_1
 10
213.2605793674045
 20
120.0322351236979
 30
0.0
  0
VERTEX
  5
3F3
  8
LAYER_1
 10
213.0740332173665
 20
120.2458908162435
 30
0.0
  0
VERTEX
  5
3F4
  8
LAYER_1
 10
212.8745777777777
 20
120.4542083333333
 30
0.0
  0
VERTEX
  5
3F5
  8
LAYER_1
 10
212.6661013556586
 20
120.6533730929904
 30
0.0
  0
VERTEX
  5
3F6
  8
LAYER_1
 10
212.4523585883246
 20
120.8397034939236
 30
0.0
  0
VERTEX
  5
3F7
  8
LAYER_1
 10
212.2333417243109
 20
121.0131974690755
 30
0.0
  0
VERTEX
  5
3F8
  8
LAYER_1
 10
212.0090430121527
 20
121.1738529513889
 30
0.0
  0
VERTEX
  5
3F9
  8
LAYER_1
 10
211.7794547003851
 20
121.3216678738064
 30
0.0
  0
VERTEX
  5
3FA
  8
LAYER_1
 10
211.5445690375434
 20
121.4566401692708
 30
0.0
  0
VERTEX
  5
3FB
  8
LAYER_1
 10
211.3043782721625
 20
121.5787677707248
 30
0.0
  0
VERTEX
  5
3FC
  8
LAYER_1
 10
211.0588746527777
 20
121.6880486111111
 30
0.0
  0
VERTEX
  5
3FD
  8
LAYER_1
 10
210.8080504279242
 20
121.7844806233724
 30
0.0
  0
VERTEX
  5
3FE
  8
LAYER_1
 10
210.5518978461371
 20
121.8680617404514
 30
0.0
  0
VERTEX
  5
3FF
  8
LAYER_1
 10
210.2904091559516
 20
121.9387898952908
 30
0.0
  0
VERTEX
  5
400
  8
LAYER_1
 10
210.0235766059027
 20
121.9966630208333
 30
0.0
  0
VERTEX
  5
401
  8
LAYER_1
 10
209.7513924445258
 20
122.0416790500217
 30
0.0
  0
VERTEX
  5
402
  8
LAYER_1
 10
209.4738489203559
 20
122.0738359157986
 30
0.0
  0
VERTEX
  5
403
  8
LAYER_1
 10
209.1909382819281
 20
122.0931315511068
 30
0.0
  0
VERTEX
  5
404
  8
LAYER_1
 10
208.9026527777777
 20
122.0995638888889
 30
0.0
  0
SEQEND
  5
405
  8
LAYER_1
  0
POLYLINE
  5
48
  8
LAYER_1
 66
     1
 10
0.0
 20
0.0
 30
0.0
 70
     1
  0
VERTEX
  5
406
  8
LAYER_1
 10
214.8039194444444
 20
109.1910722222222
 30
0.0
  0
VERTEX
  5
407
  8
LAYER_1
 10
215.1319602954441
 20
108.9893688362969
 30
0.0
  0
VERTEX
  5
408
  8
LAYER_1
 10
215.4495970011393
 20
108.7813985202365
 30
0.0
  0
VERTEX
  5
409
  8
LAYER_1
 10
215.7568289155748
 20
108.5671616616143
 30
0.0
  0
VERTEX
  5
40A
  8
LAYER_1
 10
216.0536553927952
 20
108.3466586480035
 30
0.0
  0
VERTEX
  5
40B
  8
LAYER_1
 10
216.3400757868449
 20
108.1198898669772
 30
0.0
  0
VERTEX
  5
40C
  8
LAYER_1
 10
216.6160894517687
 20
107.8868557061089
 30
0.0
  0
VERTEX
  5
40D
  8
LAYER_1
 10
216.8816957416111
 20
107.6475565529717
 30
0.0
  0
VERTEX
  5
40E
  8
LAYER_1
 10
217.1368940104167
 20
107.4019927951389
 30
0.0
  0
VERTEX
  5
40F
  8
LAYER_1
 10
217.3816836122301
 20
107.1501648201836
 30
0.0
  0
VERTEX
  5
410
  8
LAYER_1
 10
217.6160639010959
 20
106.8920730156792
 30
0.0
  0
VERTEX
  5
411
  8
LAYER_1
 10
217.8400342310588
 20
106.6277177691989
 30
0.0
  0
VERTEX
  5
412
  8
LAYER_1
 10
218.0535939561632
 20
106.357099468316
 30
0.0
  0
VERTEX
  5
413
  8
LAYER_1
 10
218.2567424304538
 20
106.0802185006036
 30
0.0
  0
VERTEX
  5
414
  8
LAYER_1
 10
218.4494790079752
 20
105.797075253635
 30
0.0
  0
VERTEX
  5
415
  8
LAYER_1
 10
218.631803042772
 20
105.5076701149834
 30
0.0
  0
VERTEX
  5
416
  8
LAYER_1
 10
218.8037138888889
 20
105.2120034722222
 30
0.0
  0
VERTEX
  5
417
  8
LAYER_1
 10
218.9652109003703
 20
104.9100757129245
 30
0.0
  0
VERTEX
  5
418
  8
LAYER_1
 10
219.1162934312608
 20
104.6018872246636
 30
0.0
  0
VERTEX
  5
419
  8
LAYER_1
 10
219.2569608356052
 20
104.2874383950127
 30
0.0
  0
VERTEX
  5
41A
  8
LAYER_1
 10
219.3872124674479
 20
103.9667296115451
 30
0.0
  0
VERTEX
  5
41B
  8
LAYER_1
 10
219.5070476808336
 20
103.639761261834
 30
0.0
  0
VERTEX
  5
41C
  8
LAYER_1
 10
219.6164658298068
 20
103.3065337334527
 30
0.0
  0
VERTEX
  5
41D
  8
LAYER_1
 10
219.7154662684122
 20
102.9670474139743
 30
0.0
  0
VERTEX
  5
41E
  8
LAYER_1
 10
219.8040483506944
 20
102.6213026909722
 30
0.0
  0
VERTEX
  5
41F
  8
LAYER_1
 10
219.882211430698
 20
102.2692999520196
 30
0.0
  0
VERTEX
  5
420
  8
LAYER_1
 10
219.9499548624674
 20
101.9110395846897
 30
0.0
  0
VERTEX
  5
421
  8
LAYER_1
 10
220.0072780000474
 20
101.5465219765557
 30
0.0
  0
VERTEX
  5
422
  8
LAYER_1
 10
220.0541801974826
 20
101.175747515191
 30
0.0
  0
VERTEX
  5
423
  8
LAYER_1
 10
220.0906608088175
 20
100.7987165881687
 30
0.0
  0
VERTEX
  5
424
  8
LAYER_1
 10
220.1167191880968
 20
100.4154295830621
 30
0.0
  0
VERTEX
  5
425
  8
LAYER_1
 10
220.1323546893649
 20
100.0258868874444
 30
0.0
  0
VERTEX
  5
426
  8
LAYER_1
 10
220.1375666666666
 20
99.63008888888888
 30
0.0
  0
VERTEX
  5
427
  8
LAYER_1
 10
220.124701904975
 20
99.05373483547635
 30
0.0
  0
VERTEX
  5
428
  8
LAYER_1
 10
220.086110031467
 20
98.48804318033854
 30
0.0
  0
VERTEX
  5
429
  8
LAYER_1
 10
220.0217946634928
 20
97.9330103061252
 30
0.0
  0
VERTEX
  5
42A
  8
LAYER_1
 10
219.9317594184027
 20
97.3886325954861
 30
0.0
  0
VERTEX
  5
42B
  8
LAYER_1
 10
219.8160079135471
 20
96.85490643107096
 30
0.0
  0
VERTEX
  5
42C
  8
LAYER_1
 10
219.674543766276
 20
96.3318281955295
 30
0.0
  0
VERTEX
  5
42D
  8
LAYER_1
 10
219.5073705939399
 20
95.81939427151148
 30
0.0
  0
VERTEX
  5
42E
  8
LAYER_1
 10
219.3144920138889
 20
95.31760104166665
 30
0.0
  0
VERTEX
  5
42F
  8
LAYER_1
 10
219.0959116434733
 20
94.82644488864474
 30
0.0
  0
VERTEX
  5
430
  8
LAYER_1
 10
218.8516331000434
 20
94.34592219509547
 30
0.0
  0
VERTEX
  5
431
  8
LAYER_1
 10
218.5816600009495
 20
93.8760293436686
 30
0.0
  0
VERTEX
  5
432
  8
LAYER_1
 10
218.2859959635417
 20
93.41676271701388
 30
0.0
  0
VERTEX
  5
433
  8
LAYER_1
 10
217.9646446051703
 20
92.96811869778102
 30
0.0
  0
VERTEX
  5
434
  8
LAYER_1
 10
217.6176095431857
 20
92.53009366861977
 30
0.0
  0
VERTEX
  5
435
  8
LAYER_1
 10
217.2448943949381
 20
92.10268401217988
 30
0.0
  0
VERTEX
  5
436
  8
LAYER_1
 10
216.8465027777777
 20
91.6858861111111
 30
0.0
  0
VERTEX
  5
437
  8
LAYER_1
 10
216.4299258795844
 20
91.28726591186522
 30
0.0
  0
VERTEX
  5
438
  8
LAYER_1
 10
216.0026576443142
 20
90.91438936089409
 30
0.0
  0
VERTEX
  5
439
  8
LAYER_1
 10
215.5647058234321
 20
90.56725284084743
 30
0.0
  0
VERTEX
  5
43A
  8
LAYER_1
 10
215.1160781684028
 20
90.24585273437498
 30
0.0
  0
VERTEX
  5
43B
  8
LAYER_1
 10
214.6567824306912
 20
89.9501854241265
 30
0.0
  0
VERTEX
  5
43C
  8
LAYER_1
 10
214.1868263617621
 20
89.68024729275172
 30
0.0
  0
VERTEX
  5
43D
  8
LAYER_1
 10
213.7062177130805
 20
89.43603472290039
 30
0.0
  0
VERTEX
  5
43E
  8
LAYER_1
 10
213.2149642361111
 20
89.21754409722222
 30
0.0
  0
VERTEX
  5
43F
  8
LAYER_1
 10
212.7130736823188
 20
89.02477179836697
 30
0.0
  0
VERTEX
  5
440
  8
LAYER_1
 10
212.2005538031684
 20
88.85771420898438
 30
0.0
  0
VERTEX
  5
441
  8
LAYER_1
 10
211.6774123501248
 20
88.71636771172419
 30
0.0
  0
VERTEX
  5
442
  8
LAYER_1
 10
211.1436570746528
 20
88.6007286892361
 30
0.0
  0
VERTEX
  5
443
  8
LAYER_1
 10
210.5992957282172
 20
88.51079352416991
 30
0.0
  0
VERTEX
  5
444
  8
LAYER_1
 10
210.044336062283
 20
88.44655859917533
 30
0.0
  0
VERTEX
  5
445
  8
LAYER_1
 10
209.4787858283149
 20
88.40802029690212
 30
0.0
  0
VERTEX
  5
446
  8
LAYER_1
 10
208.9026527777777
 20
88.395175
 30
0.0
  0
VERTEX
  5
447
  8
LAYER_1
 10
199.5399305555555
 20
88.395175
 30
0.0
  0
VERTEX
  5
448
  8
LAYER_1
 10
199.3132198459201
 20
88.40248437296549
 30
0.0
  0
VERTEX
  5
449
  8
LAYER_1
 10
199.1011356336805
 20
88.42441352539062
 30
0.0
  0
VERTEX
  5
44A
  8
LAYER_1
 10
198.9036779188368
 20
88.46096400756835
 30
0.0
  0
VERTEX
  5
44B
  8
LAYER_1
 10
198.7208467013889
 20
88.51213736979166
 30
0.0
  0
VERTEX
  5
44C
  8
LAYER_1
 10
198.5526419813368
 20
88.57793516235351
 30
0.0
  0
VERTEX
  5
44D
  8
LAYER_1
 10
198.3990637586805
 20
88.65835893554686
 30
0.0
  0
VERTEX
  5
44E
  8
LAYER_1
 10
198.2601120334201
 20
88.7534102396647
 30
0.0
  0
VERTEX
  5
44F
  8
LAYER_1
 10
198.1357868055555
 20
88.86309062499998
 30
0.0
  0
VERTEX
  5
450
  8
LAYER_1
 10
198.0260880750868
 20
88.98740164184568
 30
0.0
  0
VERTEX
  5
451
  8
LAYER_1
 10
197.9310158420138
 20
89.12634484049477
 30
0.0
  0
VERTEX
  5
452
  8
LAYER_1
 10
197.8505701063368
 20
89.27992177124021
 30
0.0
  0
VERTEX
  5
453
  8
LAYER_1
 10
197.7847508680555
 20
89.44813398437499
 30
0.0
  0
VERTEX
  5
454
  8
LAYER_1
 10
197.7335581271701
 20
89.63098303019206
 30
0.0
  0
VERTEX
  5
455
  8
LAYER_1
 10
197.6969918836805
 20
89.82847045898437
 30
0.0
  0
VERTEX
  5
456
  8
LAYER_1
 10
197.6750521375868
 20
90.04059782104491
 30
0.0
  0
VERTEX
  5
457
  8
LAYER_1
 10
197.6677388888889
 20
90.26736666666666
 30
0.0
  0
VERTEX
  5
458
  8
LAYER_1
 10
197.6677388888889
 20
123.9724611111111
 30
0.0
  0
VERTEX
  5
459
  8
LAYER_1
 10
197.6750521375868
 20
124.1991718207465
 30
0.0
  0
VERTEX
  5
45A
  8
LAYER_1
 10
197.6969918836805
 20
124.4112560329861
 30
0.0
  0
VERTEX
  5
45B
  8
LAYER_1
 10
197.7335581271701
 20
124.6087137478299
 30
0.0
  0
VERTEX
  5
45C
  8
LAYER_1
 10
197.7847508680555
 20
124.7915449652778
 30
0.0
  0
VERTEX
  5
45D
  8
LAYER_1
 10
197.8505701063368
 20
124.9597496853299
 30
0.0
  0
VERTEX
  5
45E
  8
LAYER_1
 10
197.9310158420138
 20
125.1133279079861
 30
0.0
  0
VERTEX
  5
45F
  8
LAYER_1
 10
198.0260880750868
 20
125.2522796332465
 30
0.0
  0
VERTEX
  5
460
  8
LAYER_1
 10
198.1357868055555
 20
125.3766048611111
 30
0.0
  0
VERTEX
  5
461
  8
LAYER_1
 10
198.2601120334201
 20
125.4863035915799
 30
0.0
  0
VERTEX
  5
462
  8
LAYER_1
 10
198.3990637586805
 20
125.5813758246528
 30
0.0
  0
VERTEX
  5
463
  8
LAYER_1
 10
198.5526419813368
 20
125.6618215603299
 30
0.0
  0
VERTEX
  5
464
  8
LAYER_1
 10
198.7208467013889
 20
125.7276407986111
 30
0.0
  0
VERTEX
  5
465
  8
LAYER_1
 10
198.9036779188368
 20
125.7788335394965
 30
0.0
  0
VERTEX
  5
466
  8
LAYER_1
 10
199.1011356336805
 20
125.8153997829861
 30
0.0
  0
VERTEX
  5
467
  8
LAYER_1
 10
199.3132198459201
 20
125.8373395290799
 30
0.0
  0
VERTEX
  5
468
  8
LAYER_1
 10
199.5399305555555
 20
125.8446527777778
 30
0.0
  0
VERTEX
  5
469
  8
LAYER_1
 10
208.9026527777777
 20
125.8446527777778
 30
0.0
  0
VERTEX
  5
46A
  8
LAYER_1
 10
209.3909760287814
 20
125.834065568712
 30
0.0
  0
VERTEX
  5
46B
  8
LAYER_1
 10
209.8695856608073
 20
125.8023049750434
 30
0.0
  0
VERTEX
  5
46C
  8
LAYER_1
 10
210.3384914923774
 20
125.7493725470649
 30
0.0
  0
VERTEX
  5
46D
  8
LAYER_1
 10
210.7977033420139
 20
125.6752698350694
 30
0.0
  0
VERTEX
  5
46E
  8
LAYER_1
 10
211.2472310282389
 20
125.57999838935
 30
0.0
  0
VERTEX
  5
46F
  8
LAYER_1
 10
211.6870843695746
 20
125.4635597601996
 30
0.0
  0
VERTEX
  5
470
  8
LAYER_1
 10
212.1172731845432
 20
125.3259554979112
 30
0.0
  0
VERTEX
  5
471
  8
LAYER_1
 10
212.5378072916666
 20
125.1671871527778
 30
0.0
  0
VERTEX
  5
472
  8
LAYER_1
 10
212.9486965094672
 20
124.9872562750922
 30
0.0
  0
VERTEX
  5
473
  8
LAYER_1
 10
213.349950656467
 20
124.7861644151476
 30
0.0
  0
VERTEX
  5
474
  8
LAYER_1
 10
213.7415795511881
 20
124.5639131232368
 30
0.0
  0
VERTEX
  5
475
  8
LAYER_1
 10
214.1235930121528
 20
124.3205039496528
 30
0.0
  0
VERTEX
  5
476
  8
LAYER_1
 10
214.496000857883
 20
124.0559384446886
 30
0.0
  0
VERTEX
  5
477
  8
LAYER_1
 10
214.858812906901
 20
123.7702181586371
 30
0.0
  0
VERTEX
  5
478
  8
LAYER_1
 10
215.2120389777289
 20
123.4633446417914
 30
0.0
  0
VERTEX
  5
479
  8
LAYER_1
 10
215.5556888888889
 20
123.1353194444444
 30
0.0
  0
VERTEX
  5
47A
  8
LAYER_1
 10
215.883950592041
 20
122.7918826985677
 30
0.0
  0
VERTEX
  5
47B
  8
LAYER_1
 10
216.1910079047309
 20
122.4387762586805
 30
0.0
  0
VERTEX
  5
47C
  8
LAYER_1
 10
216.4768644443088
 20
122.0760042588976
 30
0.0
  0
VERTEX
  5
47D
  8
LAYER_1
 10
216.741523828125
 20
121.7035708333333
 30
0.0
  0
VERTEX
  5
47E
  8
LAYER_1
 10
216.9849896735298
 20
121.3214801161024
 30
0.0
  0
VERTEX
  5
47F
  8
LAYER_1
 10
217.2072655978733
 20
120.9297362413194
 30
0.0
  0
VERTEX
  5
480
  8
LAYER_1
 10
217.4083552185058
 20
120.5283433430989
 30
0.0
  0
VERTEX
  5
481
  8
LAYER_1
 10
217.5882621527778
 20
120.1173055555555
 30
0.0
  0
VERTEX
  5
482
  8
LAYER_1
 10
217.7469900180393
 20
119.6966270128038
 30
0.0
  0
VERTEX
  5
483
  8
LAYER_1
 10
217.8845424316406
 20
119.2663118489583
 30
0.0
  0
VERTEX
  5
484
  8
LAYER_1
 10
218.0009230109321
 20
118.8263641981337
 30
0.0
  0
VERTEX
  5
485
  8
LAYER_1
 10
218.0961353732639
 20
118.3767881944444
 30
0.0
  0
VERTEX
  5
486
  8
LAYER_1
 10
218.1701831359863
 20
117.9175879720052
 30
0.0
  0
VERTEX
  5
487
  8
LAYER_1
 10
218.2230699164496
 20
117.4487676649305
 30
0.0
  0
VERTEX
  5
488
  8
LAYER_1
 10
218.2547993320041
 20
116.9703314073351
 30
0.0
  0
VERTEX
  5
489
  8
LAYER_1
 10
218.265375
 20
116.4822833333333
 30
0.0
  0
VERTEX
  5
48A
  8
LAYER_1
 10
218.251840770128
 20
115.928381914605
 30
0.0
  0
VERTEX
  5
48B
  8
LAYER_1
 10
218.2112415256076
 20
115.3875835720486
 30
0.0
  0
VERTEX
  5
48C
  8
LAYER_1
 10
218.143582434082
 20
114.8598862386067
 30
0.0
  0
VERTEX
  5
48D
  8
LAYER_1
 10
218.0488686631944
 20
114.3452878472222
 30
0.0
  0
VERTEX
  5
48E
  8
LAYER_1
 10
217.9271053805881
 20
113.8437863308377
 30
0.0
  0
VERTEX
  5
48F
  8
LAYER_1
 10
217.7782977539063
 20
113.3553796223958
 30
0.0
  0
VERTEX
  5
490
  8
LAYER_1
 10
217.6024509507921
 20
112.8800656548394
 30
0.0
  0
VERTEX
  5
491
  8
LAYER_1
 10
217.5043894729614
 20
112.6473178029378
 30
0.0
  0
VERTEX
  5
492
  8
LAYER_1
 10
217.3995701388889
 20
112.4178423611111
 30
0.0
  0
VERTEX
  5
493
  8
LAYER_1
 10
217.2879935945299
 20
112.1916390709771
 30
0.0
  0
VERTEX
  5
494
  8
LAYER_1
 10
217.1696604858398
 20
111.9687076741536
 30
0.0
  0
VERTEX
  5
495
  8
LAYER_1
 10
216.9127271592882
 20
111.5326595269097
 30
0.0
  0
VERTEX
  5
496
  8
LAYER_1
 10
216.6287753268772
 20
111.109695852322
 30
0.0
  0
VERTEX
  5
497
  8
LAYER_1
 10
216.31781015625
 20
110.6998145833333
 30
0.0
  0
VERTEX
  5
498
  8
LAYER_1
 10
215.9798368150499
 20
110.3030136528863
 30
0.0
  0
VERTEX
  5
499
  8
LAYER_1
 10
215.6148604709201
 20
109.9192909939236
 30
0.0
  0
VERTEX
  5
49A
  8
LAYER_1
 10
215.2228862915039
 20
109.548644539388
 30
0.0
  0
SEQEND
  5
49B
  8
LAYER_1
  0
POLYLINE
  5
49
  8
LAYER_1
 66
     1
 10
0.0
 20
0.0
 30
0.0
 70
     1
  0
VERTEX
  5
49C
  8
LAYER_1
 10
242.6073944444444
 20
97.75719166666667
 30
0.0
  0
VERTEX
  5
49D
  8
LAYER_1
 10
242.6073944444444
 20
105.2470166666667
 30
0.0
  0
VERTEX
  5
49E
  8
LAYER_1
 10
242.6009736477322
 20
105.5350851298014
 30
0.0
  0
VERTEX
  5
49F
  8
LAYER_1
 10
242.5817091905382
 20
105.8178655436198
 30
0.0
  0
VERTEX
  5
4A0
  8
LAYER_1
 10
242.5495979722764
 20
106.0953532572428
 30
0.0
  0
VERTEX
  5
4A1
  8
LAYER_1
 10
242.5046368923611
 20
106.3675436197917
 30
0.0
  0
VERTEX
  5
4A2
  8
LAYER_1
 10
242.4468228502062
 20
106.6344319803874
 30
0.0
  0
VERTEX
  5
4A3
  8
LAYER_1
 10
242.3761527452257
 20
106.896013688151
 30
0.0
  0
VERTEX
  5
4A4
  8
LAYER_1
 10
242.2926234768337
 20
107.1522840922038
 30
0.0
  0
VERTEX
  5
4A5
  8
LAYER_1
 10
242.1962319444444
 20
107.4032385416667
 30
0.0
  0
VERTEX
  5
4A6
  8
LAYER_1
 10
242.0869750474718
 20
107.6488723856608
 30
0.0
  0
VERTEX
  5
4A7
  8
LAYER_1
 10
241.9648496853299
 20
107.8891809733073
 30
0.0
  0
VERTEX
  5
4A8
  8
LAYER_1
 10
241.8298527574327
 20
108.1241596537272
 30
0.0
  0
VERTEX
  5
4A9
  8
LAYER_1
 10
241.6819811631945
 20
108.3538037760416
 30
0.0
  0
VERTEX
  5
4AA
  8
LAYER_1
 10
241.5212318020291
 20
108.5781086893717
 30
0.0
  0
VERTEX
  5
4AB
  8
LAYER_1
 10
241.3476015733507
 20
108.7970697428385
 30
0.0
  0
VERTEX
  5
4AC
  8
LAYER_1
 10
241.1610873765733
 20
109.0106822855631
 30
0.0
  0
VERTEX
  5
4AD
  8
LAYER_1
 10
240.9616861111111
 20
109.2189416666667
 30
0.0
  0
VERTEX
  5
4AE
  8
LAYER_1
 10
240.753209688992
 20
109.4181064263238
 30
0.0
  0
VERTEX
  5
4AF
  8
LAYER_1
 10
240.539466921658
 20
109.6044368272569
 30
0.0
  0
VERTEX
  5
4B0
  8
LAYER_1
 10
240.3204500576443
 20
109.7779308024088
 30
0.0
  0
VERTEX
  5
4B1
  8
LAYER_1
 10
240.0961513454861
 20
109.9385862847222
 30
0.0
  0
VERTEX
  5
4B2
  8
LAYER_1
 10
239.8665630337185
 20
110.0864012071398
 30
0.0
  0
VERTEX
  5
4B3
  8
LAYER_1
 10
239.6316773708767
 20
110.2213735026042
 30
0.0
  0
VERTEX
  5
4B4
  8
LAYER_1
 10
239.3914866054959
 20
110.3435011040581
 30
0.0
  0
VERTEX
  5
4B5
  8
LAYER_1
 10
239.1459829861111
 20
110.4527819444444
 30
0.0
  0
VERTEX
  5
4B6
  8
LAYER_1
 10
238.8951587612576
 20
110.5492139567057
 30
0.0
  0
VERTEX
  5
4B7
  8
LAYER_1
 10
238.6390061794705
 20
110.6327950737847
 30
0.0
  0
VERTEX
  5
4B8
  8
LAYER_1
 10
238.3775174892849
 20
110.7035232286241
 30
0.0
  0
VERTEX
  5
4B9
  8
LAYER_1
 10
238.1106849392361
 20
110.7613963541667
 30
0.0
  0
VERTEX
  5
4BA
  8
LAYER_1
 10
237.8385007778591
 20
110.8064123833551
 30
0.0
  0
VERTEX
  5
4BB
  8
LAYER_1
 10
237.5609572536892
 20
110.838569249132
 30
0.0
  0
VERTEX
  5
4BC
  8
LAYER_1
 10
237.2780466152615
 20
110.8578648844401
 30
0.0
  0
VERTEX
  5
4BD
  8
LAYER_1
 10
236.9897611111111
 20
110.8642972222222
 30
0.0
  0
VERTEX
  5
4BE
  8
LAYER_1
 10
236.7014794826932
 20
110.8578648844401
 30
0.0
  0
VERTEX
  5
4BF
  8
LAYER_1
 10
236.418579437934
 20
110.838569249132
 30
0.0
  0
VERTEX
  5
4C0
  8
LAYER_1
 10
236.1410516750759
 20
110.8064123833551
 30
0.0
  0
VERTEX
  5
4C1
  8
LAYER_1
 10
235.8688868923611
 20
110.7613963541667
 30
0.0
  0
VERTEX
  5
4C2
  8
LAYER_1
 10
235.6020757880317
 20
110.7035232286241
 30
0.0
  0
VERTEX
  5
4C3
  8
LAYER_1
 10
235.3406090603299
 20
110.6327950737847
 30
0.0
  0
VERTEX
  5
4C4
  8
LAYER_1
 10
235.0844774074978
 20
110.5492139567057
 30
0.0
  0
VERTEX
  5
4C5
  8
LAYER_1
 10
234.8336715277778
 20
110.4527819444444
 30
0.0
  0
VERTEX
  5
4C6
  8
LAYER_1
 10
234.5881821194119
 20
110.3435011040581
 30
0.0
  0
VERTEX
  5
4C7
  8
LAYER_1
 10
234.3479998806423
 20
110.2213735026042
 30
0.0
  0
VERTEX
  5
4C8
  8
LAYER_1
 10
234.1131155097113
 20
110.0864012071398
 30
0.0
  0
VERTEX
  5
4C9
  8
LAYER_1
 10
233.8835197048611
 20
109.9385862847222
 30
0.0
  0
VERTEX
  5
4CA
  8
LAYER_1
 10
233.6592031643337
 20
109.7779308024088
 30
0.0
  0
VERTEX
  5
4CB
  8
LAYER_1
 10
233.4401565863715
 20
109.6044368272569
 30
0.0
  0
VERTEX
  5
4CC
  8
LAYER_1
 10
233.2263706692166
 20
109.4181064263238
 30
0.0
  0
VERTEX
  5
4CD
  8
LAYER_1
 10
233.0178361111111
 20
109.2189416666667
 30
0.0
  0
VERTEX
  5
4CE
  8
LAYER_1
 10
232.8184348456489
 20
109.0106822855631
 30
0.0
  0
VERTEX
  5
4CF
  8
LAYER_1
 10
232.6319206488715
 20
108.7970697428385
 30
0.0
  0
VERTEX
  5
4D0
  8
LAYER_1
 10
232.4582904201932
 20
108.5781086893717
 30
0.0
  0
VERTEX
  5
4D1
  8
LAYER_1
 10
232.2975410590278
 20
108.3538037760416
 30
0.0
  0
VERTEX
  5
4D2
  8
LAYER_1
 10
232.1496694647894
 20
108.1241596537272
 30
0.0
  0
VERTEX
  5
4D3
  8
LAYER_1
 10
232.0146725368923
 20
107.8891809733073
 30
0.0
  0
VERTEX
  5
4D4
  8
LAYER_1
 10
231.8925471747504
 20
107.6488723856608
 30
0.0
  0
VERTEX
  5
4D5
  8
LAYER_1
 10
231.7832902777777
 20
107.4032385416667
 30
0.0
  0
VERTEX
  5
4D6
  8
LAYER_1
 10
231.6868987453884
 20
107.1522840922038
 30
0.0
  0
VERTEX
  5
4D7
  8
LAYER_1
 10
231.6033694769965
 20
106.896013688151
 30
0.0
  0
VERTEX
  5
4D8
  8
LAYER_1
 10
231.532699372016
 20
106.6344319803874
 30
0.0
  0
VERTEX
  5
4D9
  8
LAYER_1
 10
231.4748853298611
 20
106.3675436197917
 30
0.0
  0
VERTEX
  5
4DA
  8
LAYER_1
 10
231.4299242499457
 20
106.0953532572428
 30
0.0
  0
VERTEX
  5
4DB
  8
LAYER_1
 10
231.397813031684
 20
105.8178655436198
 30
0.0
  0
VERTEX
  5
4DC
  8
LAYER_1
 10
231.37854857449
 20
105.5350851298014
 30
0.0
  0
VERTEX
  5
4DD
  8
LAYER_1
 10
231.3721277777777
 20
105.2470166666667
 30
0.0
  0
VERTEX
  5
4DE
  8
LAYER_1
 10
231.3721277777777
 20
97.75719166666667
 30
0.0
  0
VERTEX
  5
4DF
  8
LAYER_1
 10
231.3785101616753
 20
97.46561213446724
 30
0.0
  0
VERTEX
  5
4E0
  8
LAYER_1
 10
231.3976545572916
 20
97.17970202365451
 30
0.0
  0
VERTEX
  5
4E1
  8
LAYER_1
 10
231.4295568305121
 20
96.8994587504069
 30
0.0
  0
VERTEX
  5
4E2
  8
LAYER_1
 10
231.4742128472222
 20
96.62487973090278
 30
0.0
  0
VERTEX
  5
4E3
  8
LAYER_1
 10
231.5316184733073
 20
96.35596238132052
 30
0.0
  0
VERTEX
  5
4E4
  8
LAYER_1
 10
231.6017695746527
 20
96.09270411783854
 30
0.0
  0
VERTEX
  5
4E5
  8
LAYER_1
 10
231.684662017144
 20
95.83510235663519
 30
0.0
  0
VERTEX
  5
4E6
  8
LAYER_1
 10
231.7802916666666
 20
95.58315451388889
 30
0.0
  0
VERTEX
  5
4E7
  8
LAYER_1
 10
231.8886543891059
 20
95.336858005778
 30
0.0
  0
VERTEX
  5
4E8
  8
LAYER_1
 10
232.0097460503472
 20
95.0962102484809
 30
0.0
  0
VERTEX
  5
4E9
  8
LAYER_1
 10
232.1435625162761
 20
94.861208658176
 30
0.0
  0
VERTEX
  5
4EA
  8
LAYER_1
 10
232.2900996527778
 20
94.63185065104166
 30
0.0
  0
VERTEX
  5
4EB
  8
LAYER_1
 10
232.4493533257378
 20
94.40813364325629
 30
0.0
  0
VERTEX
  5
4EC
  8
LAYER_1
 10
232.6213194010416
 20
94.19005505099825
 30
0.0
  0
VERTEX
  5
4ED
  8
LAYER_1
 10
232.8059937445746
 20
93.97761229044595
 30
0.0
  0
VERTEX
  5
4EE
  8
LAYER_1
 10
233.0033722222222
 20
93.77080277777777
 30
0.0
  0
VERTEX
  5
4EF
  8
LAYER_1
 10
233.2100228298611
 20
93.5731917561849
 30
0.0
  0
VERTEX
  5
4F0
  8
LAYER_1
 10
233.422378515625
 20
93.38834481336806
 30
0.0
  0
VERTEX
  5
4F1
  8
LAYER_1
 10
233.6404310112847
 20
93.21625988226997
 30
0.0
  0
VERTEX
  5
4F2
  8
LAYER_1
 10
233.8641720486111
 20
93.05693489583334
 30
0.0
  0
VERTEX
  5
4F3
  8
LAYER_1
 10
234.0935933593749
 20
92.91036778700087
 30
0.0
  0
VERTEX
  5
4F4
  8
LAYER_1
 10
234.3286866753472
 20
92.77655648871527
 30
0.0
  0
VERTEX
  5
4F5
  8
LAYER_1
 10
234.5694437282986
 20
92.65549893391928
 30
0.0
  0
VERTEX
  5
4F6
  8
LAYER_1
 10
234.81585625
 20
92.54719305555555
 30
0.0
  0
VERTEX
  5
4F7
  8
LAYER_1
 10
235.0679159722222
 20
92.45163678656684
 30
0.0
  0
VERTEX
  5
4F8
  8
LAYER_1
 10
235.3256146267361
 20
92.36882805989583
 30
0.0
  0
VERTEX
  5
4F9
  8
LAYER_1
 10
235.5889439453125
 20
92.29876480848523
 30
0.0
  0
VERTEX
  5
4FA
  8
LAYER_1
 10
235.8578956597222
 20
92.24144496527776
 30
0.0
  0
VERTEX
  5
4FB
  8
LAYER_1
 10
236.1324615017361
 20
92.19686646321614
 30
0.0
  0
VERTEX
  5
4FC
  8
LAYER_1
 10
236.412633203125
 20
92.16502723524306
 30
0.0
  0
VERTEX
  5
4FD
  8
LAYER_1
 10
236.6984024956597
 20
92.14592521430122
 30
0.0
  0
VERTEX
  5
4FE
  8
LAYER_1
 10
236.9897611111111
 20
92.13955833333333
 30
0.0
  0
VERTEX
  5
4FF
  8
LAYER_1
 10
237.2780466152615
 20
92.14599454684787
 30
0.0
  0
VERTEX
  5
500
  8
LAYER_1
 10
237.5609572536892
 20
92.16530077582465
 30
0.0
  0
VERTEX
  5
501
  8
LAYER_1
 10
237.8385007778591
 20
92.19747340291342
 30
0.0
  0
VERTEX
  5
502
  8
LAYER_1
 10
238.1106849392361
 20
92.2425088107639
 30
0.0
  0
VERTEX
  5
503
  8
LAYER_1
 10
238.3775174892849
 20
92.30040338202582
 30
0.0
  0
VERTEX
  5
504
  8
LAYER_1
 10
238.6390061794705
 20
92.37115349934895
 30
0.0
  0
VERTEX
  5
505
  8
LAYER_1
 10
238.8951587612576
 20
92.45475554538302
 30
0.0
  0
VERTEX
  5
506
  8
LAYER_1
 10
239.1459829861111
 20
92.55120590277778
 30
0.0
  0
VERTEX
  5
507
  8
LAYER_1
 10
239.3914866054959
 20
92.66050095418295
 30
0.0
  0
VERTEX
  5
508
  8
LAYER_1
 10
239.6316773708767
 20
92.78263708224827
 30
0.0
  0
VERTEX
  5
509
  8
LAYER_1
 10
239.8665630337185
 20
92.91761066962349
 30
0.0
  0
VERTEX
  5
50A
  8
LAYER_1
 10
240.0961513454861
 20
93.06541809895833
 30
0.0
  0
VERTEX
  5
50B
  8
LAYER_1
 10
240.3204500576443
 20
93.22605575290255
 30
0.0
  0
VERTEX
  5
50C
  8
LAYER_1
 10
240.539466921658
 20
93.39952001410589
 30
0.0
  0
VERTEX
  5
50D
  8
LAYER_1
 10
240.753209688992
 20
93.5858072652181
 30
0.0
  0
VERTEX
  5
50E
  8
LAYER_1
 10
240.9616861111111
 20
93.78491388888888
 30
0.0
  0
VERTEX
  5
50F
  8
LAYER_1
 10
241.1610873765733
 20
93.9932314921061
 30
0.0
  0
VERTEX
  5
510
  8
LAYER_1
 10
241.3476015733507
 20
94.20688778754341
 30
0.0
  0
VERTEX
  5
511
  8
LAYER_1
 10
241.5212318020291
 20
94.42588019137914
 30
0.0
  0
VERTEX
  5
512
  8
LAYER_1
 10
241.6819811631945
 20
94.65020611979168
 30
0.0
  0
VERTEX
  5
513
  8
LAYER_1
 10
241.8298527574327
 20
94.87986298895942
 30
0.0
  0
VERTEX
  5
514
  8
LAYER_1
 10
241.9648496853299
 20
95.11484821506076
 30
0.0
  0
VERTEX
  5
515
  8
LAYER_1
 10
242.0869750474718
 20
95.3551592142741
 30
0.0
  0
VERTEX
  5
516
  8
LAYER_1
 10
242.1962319444444
 20
95.60079340277778
 30
0.0
  0
VERTEX
  5
517
  8
LAYER_1
 10
242.2926234768337
 20
95.85174819675022
 30
0.0
  0
VERTEX
  5
518
  8
LAYER_1
 10
242.3761527452257
 20
96.10802101236979
 30
0.0
  0
VERTEX
  5
519
  8
LAYER_1
 10
242.4468228502062
 20
96.36960926581489
 30
0.0
  0
VERTEX
  5
51A
  8
LAYER_1
 10
242.5046368923611
 20
96.63651037326389
 30
0.0
  0
VERTEX
  5
51B
  8
LAYER_1
 10
242.5495979722764
 20
96.90872175089518
 30
0.0
  0
VERTEX
  5
51C
  8
LAYER_1
 10
242.5817091905382
 20
97.18624081488716
 30
0.0
  0
VERTEX
  5
51D
  8
LAYER_1
 10
242.6009736477322
 20
97.46906498141819
 30
0.0
  0
SEQEND
  5
51E
  8
LAYER_1
  0
POLYLINE
  5
4A
  8
LAYER_1
 66
     1
 10
0.0
 20
0.0
 30
0.0
 70
     1
  0
VERTEX
  5
51F
  8
LAYER_1
 10
227.6273916666667
 20
97.75719166666667
 30
0.0
  0
VERTEX
  5
520
  8
LAYER_1
 10
227.6273916666667
 20
105.2470166666667
 30
0.0
  0
VERTEX
  5
521
  8
LAYER_1
 10
227.638098248291
 20
105.7284806464301
 30
0.0
  0
VERTEX
  5
522
  8
LAYER_1
 10
227.6702148925781
 20
106.200929155816
 30
0.0
  0
VERTEX
  5
523
  8
LAYER_1
 10
227.7237369486491
 20
106.6643673624674
 30
0.0
  0
VERTEX
  5
524
  8
LAYER_1
 10
227.798659765625
 20
107.1188004340278
 30
0.0
  0
VERTEX
  5
525
  8
LAYER_1
 10
227.8949786926269
 20
107.5642335381402
 30
0.0
  0
VERTEX
  5
526
  8
LAYER_1
 10
228.012689078776
 20
108.0006718424479
 30
0.0
  0
VERTEX
  5
527
  8
LAYER_1
 10
228.1517862731934
 20
108.4281205145942
 30
0.0
  0
VERTEX
  5
528
  8
LAYER_1
 10
228.312265625
 20
108.8465847222222
 30
0.0
  0
VERTEX
  5
529
  8
LAYER_1
 10
228.494122483317
 20
109.2560696329753
 30
0.0
  0
VERTEX
  5
52A
  8
LAYER_1
 10
228.6973521972656
 20
109.6565804144965
 30
0.0
  0
VERTEX
  5
52B
  8
LAYER_1
 10
228.9219501159668
 20
110.0481222344292
 30
0.0
  0
VERTEX
  5
52C
  8
LAYER_1
 10
229.1679115885416
 20
110.4307002604166
 30
0.0
  0
VERTEX
  5
52D
  8
LAYER_1
 10
229.4352319641113
 20
110.804319660102
 30
0.0
  0
VERTEX
  5
52E
  8
LAYER_1
 10
229.7239065917968
 20
111.1689856011285
 30
0.0
  0
VERTEX
  5
52F
  8
LAYER_1
 10
230.0339308207194
 20
111.5247032511393
 30
0.0
  0
VERTEX
  5
530
  8
LAYER_1
 10
230.3653
 20
111.8714777777778
 30
0.0
  0
VERTEX
  5
531
  8
LAYER_1
 10
230.7118574856228
 20
112.20313763699
 30
0.0
  0
VERTEX
  5
532
  8
LAYER_1
 10
231.0674449110243
 20
112.5133776150173
 30
0.0
  0
VERTEX
  5
533
  8
LAYER_1
 10
231.4320550415039
 20
112.8022008124457
 30
0.0
  0
VERTEX
  5
534
  8
LAYER_1
 10
231.8056806423611
 20
113.0696103298611
 30
0.0
  0
VERTEX
  5
535
  8
LAYER_1
 10
232.1883144788954
 20
113.3156092678494
 30
0.0
  0
VERTEX
  5
536
  8
LAYER_1
 10
232.5799493164062
 20
113.5402007269965
 30
0.0
  0
VERTEX
  5
537
  8
LAYER_1
 10
232.9805779201931
 20
113.7433878078884
 30
0.0
  0
VERTEX
  5
538
  8
LAYER_1
 10
233.3901930555555
 20
113.9251736111111
 30
0.0
  0
VERTEX
  5
539
  8
LAYER_1
 10
233.8087874877929
 20
114.0855612372504
 30
0.0
  0
VERTEX
  5
53A
  8
LAYER_1
 10
234.2363539822048
 20
114.2245537868924
 30
0.0
  0
VERTEX
  5
53B
  8
LAYER_1
 10
234.6728853040907
 20
114.3421543606228
 30
0.0
  0
VERTEX
  5
53C
  8
LAYER_1
 10
235.11837421875
 20
114.4383660590278
 30
0.0
  0
VERTEX
  5
53D
  8
LAYER_1
 10
235.5728134914822
 20
114.5131919826931
 30
0.0
  0
VERTEX
  5
53E
  8
LAYER_1
 10
236.0361958875868
 20
114.5666352322049
 30
0.0
  0
VERTEX
  5
53F
  8
LAYER_1
 10
236.5085141723633
 20
114.5986989081489
 30
0.0
  0
VERTEX
  5
540
  8
LAYER_1
 10
236.9897611111111
 20
114.6093861111111
 30
0.0
  0
VERTEX
  5
541
  8
LAYER_1
 10
237.4780262261285
 20
114.5987989020454
 30
0.0
  0
VERTEX
  5
542
  8
LAYER_1
 10
237.9565927083333
 20
114.5670383083767
 30
0.0
  0
VERTEX
  5
543
  8
LAYER_1
 10
238.4254688259549
 20
114.5141058803982
 30
0.0
  0
VERTEX
  5
544
  8
LAYER_1
 10
238.8846628472222
 20
114.4400031684028
 30
0.0
  0
VERTEX
  5
545
  8
LAYER_1
 10
239.3341830403646
 20
114.3447317226834
 30
0.0
  0
VERTEX
  5
546
  8
LAYER_1
 10
239.7740376736111
 20
114.228293093533
 30
0.0
  0
VERTEX
  5
547
  8
LAYER_1
 10
240.2042350151909
 20
114.0906888312446
 30
0.0
  0
VERTEX
  5
548
  8
LAYER_1
 10
240.6247833333333
 20
113.9319204861111
 30
0.0
  0
VERTEX
  5
549
  8
LAYER_1
 10
241.0356908962673
 20
113.7519896084255
 30
0.0
  0
VERTEX
  5
54A
  8
LAYER_1
 10
241.4369659722222
 20
113.5508977484809
 30
0.0
  0
VERTEX
  5
54B
  8
LAYER_1
 10
241.8286168294271
 20
113.3286464565701
 30
0.0
  0
VERTEX
  5
54C
  8
LAYER_1
 10
242.2106517361111
 20
113.0852372829861
 30
0.0
  0
VERTEX
  5
54D
  8
LAYER_1
 10
242.5830789605034
 20
112.8206717780219
 30
0.0
  0
VERTEX
  5
54E
  8
LAYER_1
 10
242.9459067708333
 20
112.5349514919705
 30
0.0
  0
VERTEX
  5
54F
  8
LAYER_1
 10
243.2991434353298
 20
112.2280779751248
 30
0.0
  0
VERTEX
  5
550
  8
LAYER_1
 10
243.6427972222222
 20
111.9000527777778
 30
0.0
  0
VERTEX
  5
551
  8
LAYER_1
 10
243.9710549635145
 20
111.556616031901
 30
0.0
  0
VERTEX
  5
552
  8
LAYER_1
 10
244.278101079644
 20
111.2035095920139
 30
0.0
  0
VERTEX
  5
553
  8
LAYER_1
 10
244.5639402214898
 20
110.8407375922309
 30
0.0
  0
VERTEX
  5
554
  8
LAYER_1
 10
244.8285770399305
 20
110.4683041666667
 30
0.0
  0
VERTEX
  5
555
  8
LAYER_1
 10
245.0720161858452
 20
110.0862134494357
 30
0.0
  0
VERTEX
  5
556
  8
LAYER_1
 10
245.2942623101128
 20
109.6944695746528
 30
0.0
  0
VERTEX
  5
557
  8
LAYER_1
 10
245.4953200636122
 20
109.2930766764323
 30
0.0
  0
VERTEX
  5
558
  8
LAYER_1
 10
245.6751940972222
 20
108.8820388888889
 30
0.0
  0
VERTEX
  5
559
  8
LAYER_1
 10
245.8338890618218
 20
108.4613603461372
 30
0.0
  0
VERTEX
  5
55A
  8
LAYER_1
 10
245.9714096082899
 20
108.0310451822917
 30
0.0
  0
VERTEX
  5
55B
  8
LAYER_1
 10
246.0877603875054
 20
107.591097531467
 30
0.0
  0
VERTEX
  5
55C
  8
LAYER_1
 10
246.1829460503472
 20
107.1415215277778
 30
0.0
  0
VERTEX
  5
55D
  8
LAYER_1
 10
246.2569712476942
 20
106.6823213053385
 30
0.0
  0
VERTEX
  5
55E
  8
LAYER_1
 10
246.3098406304253
 20
106.2135009982639
 30
0.0
  0
VERTEX
  5
55F
  8
LAYER_1
 10
246.3415588494195
 20
105.7350647406684
 30
0.0
  0
VERTEX
  5
560
  8
LAYER_1
 10
246.3521305555555
 20
105.2470166666667
 30
0.0
  0
VERTEX
  5
561
  8
LAYER_1
 10
246.3521305555555
 20
97.75719166666667
 30
0.0
  0
VERTEX
  5
562
  8
LAYER_1
 10
246.3414239739312
 20
97.27572381117079
 30
0.0
  0
VERTEX
  5
563
  8
LAYER_1
 10
246.3093073296441
 20
96.80326470811633
 30
0.0
  0
VERTEX
  5
564
  8
LAYER_1
 10
246.2557852735731
 20
96.33981074015298
 30
0.0
  0
VERTEX
  5
565
  8
LAYER_1
 10
246.1808624565972
 20
95.88535828993055
 30
0.0
  0
VERTEX
  5
566
  8
LAYER_1
 10
246.0845435295952
 20
95.43990374009874
 30
0.0
  0
VERTEX
  5
567
  8
LAYER_1
 10
245.9668331434462
 20
95.00344347330729
 30
0.0
  0
VERTEX
  5
568
  8
LAYER_1
 10
245.8277359490289
 20
94.57597387220594
 30
0.0
  0
VERTEX
  5
569
  8
LAYER_1
 10
245.6672565972222
 20
94.15749131944443
 30
0.0
  0
VERTEX
  5
56A
  8
LAYER_1
 10
245.4853997389051
 20
93.74799219767253
 30
0.0
  0
VERTEX
  5
56B
  8
LAYER_1
 10
245.2821700249566
 20
93.34747288953993
 30
0.0
  0
VERTEX
  5
56C
  8
LAYER_1
 10
245.0575721062554
 20
92.95592977769641
 30
0.0
  0
VERTEX
  5
56D
  8
LAYER_1
 10
244.8116106336805
 20
92.57335924479167
 30
0.0
  0
VERTEX
  5
56E
  8
LAYER_1
 10
244.5442902581108
 20
92.19975767347549
 30
0.0
  0
VERTEX
  5
56F
  8
LAYER_1
 10
244.2556156304253
 20
91.83512144639757
 30
0.0
  0
VERTEX
  5
570
  8
LAYER_1
 10
243.9455914015028
 20
91.47944694620767
 30
0.0
  0
VERTEX
  5
571
  8
LAYER_1
 10
243.6142222222222
 20
91.13273055555555
 30
0.0
  0
VERTEX
  5
572
  8
LAYER_1
 10
243.2677228725857
 20
90.80107069634332
 30
0.0
  0
VERTEX
  5
573
  8
LAYER_1
 10
242.9121785970052
 20
90.49083071831598
 30
0.0
  0
VERTEX
  5
574
  8
LAYER_1
 10
242.5475981804742
 20
90.20200752088759
 30
0.0
  0
VERTEX
  5
575
  8
LAYER_1
 10
242.1739904079861
 20
89.93459800347222
 30
0.0
  0
VERTEX
  5
576
  8
LAYER_1
 10
241.7913640645345
 20
89.68859906548394
 30
0.0
  0
VERTEX
  5
577
  8
LAYER_1
 10
241.3997279351128
 20
89.4640076063368
 30
0.0
  0
VERTEX
  5
578
  8
LAYER_1
 10
240.9990908047146
 20
89.26082052544488
 30
0.0
  0
VERTEX
  5
579
  8
LAYER_1
 10
240.5894614583333
 20
89.07903472222222
 30
0.0
  0
VERTEX
  5
57A
  8
LAYER_1
 10
240.1708486809624
 20
88.91864709608289
 30
0.0
  0
VERTEX
  5
57B
  8
LAYER_1
 10
239.7432612575955
 20
88.77965454644095
 30
0.0
  0
VERTEX
  5
57C
  8
LAYER_1
 10
239.3067079732259
 20
88.66205397271048
 30
0.0
  0
VERTEX
  5
57D
  8
LAYER_1
 10
238.8611976128472
 20
88.56584227430554
 30
0.0
  0
VERTEX
  5
57E
  8
LAYER_1
 10
238.4067389614529
 20
88.49101635064017
 30
0.0
  0
VERTEX
  5
57F
  8
LAYER_1
 10
237.9433408040364
 20
88.43757310112846
 30
0.0
  0
VERTEX
  5
580
  8
LAYER_1
 10
237.4710119255914
 20
88.40550942518446
 30
0.0
  0
VERTEX
  5
581
  8
LAYER_1
 10
236.9897611111111
 20
88.39482222222222
 30
0.0
  0
VERTEX
  5
582
  8
LAYER_1
 10
236.5085141723633
 20
88.40550942518446
 30
0.0
  0
VERTEX
  5
583
  8
LAYER_1
 10
236.0361958875868
 20
88.43757310112846
 30
0.0
  0
VERTEX
  5
584
  8
LAYER_1
 10
235.5728134914822
 20
88.49101635064017
 30
0.0
  0
VERTEX
  5
585
  8
LAYER_1
 10
235.11837421875
 20
88.56584227430554
 30
0.0
  0
VERTEX
  5
586
  8
LAYER_1
 10
234.6728853040907
 20
88.66205397271048
 30
0.0
  0
VERTEX
  5
587
  8
LAYER_1
 10
234.2363539822048
 20
88.77965454644095
 30
0.0
  0
VERTEX
  5
588
  8
LAYER_1
 10
233.8087874877929
 20
88.91864709608289
 30
0.0
  0
VERTEX
  5
589
  8
LAYER_1
 10
233.3901930555555
 20
89.07903472222222
 30
0.0
  0
VERTEX
  5
58A
  8
LAYER_1
 10
232.9805779201931
 20
89.26082052544488
 30
0.0
  0
VERTEX
  5
58B
  8
LAYER_1
 10
232.5799493164062
 20
89.4640076063368
 30
0.0
  0
VERTEX
  5
58C
  8
LAYER_1
 10
232.1883144788954
 20
89.68859906548394
 30
0.0
  0
VERTEX
  5
58D
  8
LAYER_1
 10
231.8056806423611
 20
89.93459800347222
 30
0.0
  0
VERTEX
  5
58E
  8
LAYER_1
 10
231.4320550415039
 20
90.20200752088759
 30
0.0
  0
VERTEX
  5
58F
  8
LAYER_1
 10
231.0674449110243
 20
90.49083071831598
 30
0.0
  0
VERTEX
  5
590
  8
LAYER_1
 10
230.7118574856228
 20
90.80107069634332
 30
0.0
  0
VERTEX
  5
591
  8
LAYER_1
 10
230.3653
 20
91.13273055555555
 30
0.0
  0
VERTEX
  5
592
  8
LAYER_1
 10
230.0339308207194
 20
91.47944694620767
 30
0.0
  0
VERTEX
  5
593
  8
LAYER_1
 10
229.7239065917968
 20
91.83512144639757
 30
0.0
  0
VERTEX
  5
594
  8
LAYER_1
 10
229.4352319641113
 20
92.19975767347549
 30
0.0
  0
VERTEX
  5
595
  8
LAYER_1
 10
229.1679115885416
 20
92.57335924479167
 30
0.0
  0
VERTEX
  5
596
  8
LAYER_1
 10
228.9219501159668
 20
92.95592977769641
 30
0.0
  0
VERTEX
  5
597
  8
LAYER_1
 10
228.6973521972656
 20
93.34747288953993
 30
0.0
  0
VERTEX
  5
598
  8
LAYER_1
 10
228.494122483317
 20
93.74799219767253
 30
0.0
  0
VERTEX
  5
599
  8
LAYER_1
 10
228.312265625
 20
94.15749131944443
 30
0.0
  0
VERTEX
  5
59A
  8
LAYER_1
 10
228.1517862731934
 20
94.57597387220594
 30
0.0
  0
VERTEX
  5
59B
  8
LAYER_1
 10
228.012689078776
 20
95.00344347330729
 30
0.0
  0
VERTEX
  5
59C
  8
LAYER_1
 10
227.8949786926269
 20
95.43990374009874
 30
0.0
  0
VERTEX
  5
59D
  8
LAYER_1
 10
227.798659765625
 20
95.88535828993055
 30
0.0
  0
VERTEX
  5
59E
  8
LAYER_1
 10
227.7237369486491
 20
96.33981074015298
 30
0.0
  0
VERTEX
  5
59F
  8
LAYER_1
 10
227.6702148925781
 20
96.80326470811633
 30
0.0
  0
VERTEX
  5
5A0
  8
LAYER_1
 10
227.638098248291
 20
97.27572381117079
 30
0.0
  0
SEQEND
  5
5A1
  8
LAYER_1
  0
POLYLINE
  5
4B
  8
LAYER_1
 66
     1
 10
0.0
 20
0.0
 30
0.0
 70
     1
  0
VERTEX
  5
5A2
  8
LAYER_1
 10
257.5870444444444
 20
110.86465
 30
0.0
  0
VERTEX
  5
5A3
  8
LAYER_1
 10
255.7145
 20
110.86465
 30
0.0
  0
VERTEX
  5
5A4
  8
LAYER_1
 10
255.4877892903646
 20
110.8719672105577
 30
0.0
  0
VERTEX
  5
5A5
  8
LAYER_1
 10
255.275705078125
 20
110.8939181532118
 30
0.0
  0
VERTEX
  5
5A6
  8
LAYER_1
 10
255.0782473632812
 20
110.9305017944336
 30
0.0
  0
VERTEX
  5
5A7
  8
LAYER_1
 10
254.8954161458333
 20
110.9817171006944
 30
0.0
  0
VERTEX
  5
5A8
  8
LAYER_1
 10
254.7272114257812
 20
111.0475630384657
 30
0.0
  0
VERTEX
  5
5A9
  8
LAYER_1
 10
254.573633203125
 20
111.1280385742187
 30
0.0
  0
VERTEX
  5
5AA
  8
LAYER_1
 10
254.4346814778646
 20
111.2231426744249
 30
0.0
  0
VERTEX
  5
5AB
  8
LAYER_1
 10
254.31035625
 20
111.3328743055555
 30
0.0
  0
VERTEX
  5
5AC
  8
LAYER_1
 10
254.2006575195312
 20
111.457232434082
 30
0.0
  0
VERTEX
  5
5AD
  8
LAYER_1
 10
254.1055852864583
 20
111.5962160264757
 30
0.0
  0
VERTEX
  5
5AE
  8
LAYER_1
 10
254.0251395507812
 20
111.7498240492079
 30
0.0
  0
VERTEX
  5
5AF
  8
LAYER_1
 10
253.9593203125
 20
111.91805546875
 30
0.0
  0
VERTEX
  5
5B0
  8
LAYER_1
 10
253.9081275716146
 20
112.1009092515733
 30
0.0
  0
VERTEX
  5
5B1
  8
LAYER_1
 10
253.871561328125
 20
112.2983843641493
 30
0.0
  0
VERTEX
  5
5B2
  8
LAYER_1
 10
253.8496215820312
 20
112.5104797729492
 30
0.0
  0
VERTEX
  5
5B3
  8
LAYER_1
 10
253.8423083333333
 20
112.7371944444444
 30
0.0
  0
VERTEX
  5
5B4
  8
LAYER_1
 10
253.8496215820312
 20
112.963967251926
 30
0.0
  0
VERTEX
  5
5B5
  8
LAYER_1
 10
253.871561328125
 20
113.1761058105469
 30
0.0
  0
VERTEX
  5
5B6
  8
LAYER_1
 10
253.9081275716146
 20
113.3736106370714
 30
0.0
  0
VERTEX
  5
5B7
  8
LAYER_1
 10
253.9593203125
 20
113.5564822482639
 30
0.0
  0
VERTEX
  5
5B8
  8
LAYER_1
 10
254.0251395507812
 20
113.7247211608887
 30
0.0
  0
VERTEX
  5
5B9
  8
LAYER_1
 10
254.1055852864583
 20
113.8783278917101
 30
0.0
  0
VERTEX
  5
5BA
  8
LAYER_1
 10
254.2006575195312
 20
114.0173029574924
 30
0.0
  0
VERTEX
  5
5BB
  8
LAYER_1
 10
254.31035625
 20
114.141646875
 30
0.0
  0
VERTEX
  5
5BC
  8
LAYER_1
 10
254.4346814778646
 20
114.2513601609972
 30
0.0
  0
VERTEX
  5
5BD
  8
LAYER_1
 10
254.573633203125
 20
114.3464433322482
 30
0.0
  0
VERTEX
  5
5BE
  8
LAYER_1
 10
254.7272114257812
 20
114.4268969055176
 30
0.0
  0
VERTEX
  5
5BF
  8
LAYER_1
 10
254.8954161458333
 20
114.4927213975694
 30
0.0
  0
VERTEX
  5
5C0
  8
LAYER_1
 10
255.0782473632812
 20
114.5439173251682
 30
0.0
  0
VERTEX
  5
5C1
  8
LAYER_1
 10
255.275705078125
 20
114.5804852050781
 30
0.0
  0
VERTEX
  5
5C2
  8
LAYER_1
 10
255.4877892903646
 20
114.6024255540636
 30
0.0
  0
VERTEX
  5
5C3
  8
LAYER_1
 10
255.7145
 20
114.6097388888889
 30
0.0
  0
VERTEX
  5
5C4
  8
LAYER_1
 10
257.5870444444444
 20
114.6097388888889
 30
0.0
  0
VERTEX
  5
5C5
  8
LAYER_1
 10
257.5870444444444
 20
123.9721083333333
 30
0.0
  0
VERTEX
  5
5C6
  8
LAYER_1
 10
257.5943616550022
 20
124.1988230048285
 30
0.0
  0
VERTEX
  5
5C7
  8
LAYER_1
 10
257.6163125976562
 20
124.4109184136285
 30
0.0
  0
VERTEX
  5
5C8
  8
LAYER_1
 10
257.652896238878
 20
124.6083935262044
 30
0.0
  0
VERTEX
  5
5C9
  8
LAYER_1
 10
257.7041115451389
 20
124.7912473090278
 30
0.0
  0
VERTEX
  5
5CA
  8
LAYER_1
 10
257.7699574829101
 20
124.9594787285699
 30
0.0
  0
VERTEX
  5
5CB
  8
LAYER_1
 10
257.8504330186632
 20
125.1130867513021
 30
0.0
  0
VERTEX
  5
5CC
  8
LAYER_1
 10
257.9455371188693
 20
125.2520703436957
 30
0.0
  0
VERTEX
  5
5CD
  8
LAYER_1
 10
258.05526875
 20
125.3764284722222
 30
0.0
  0
VERTEX
  5
5CE
  8
LAYER_1
 10
258.1796268785264
 20
125.4861601033528
 30
0.0
  0
VERTEX
  5
5CF
  8
LAYER_1
 10
258.3186104709201
 20
125.581264203559
 30
0.0
  0
VERTEX
  5
5D0
  8
LAYER_1
 10
258.4722184936522
 20
125.661739739312
 30
0.0
  0
VERTEX
  5
5D1
  8
LAYER_1
 10
258.6404499131944
 20
125.7275856770833
 30
0.0
  0
VERTEX
  5
5D2
  8
LAYER_1
 10
258.8233036960178
 20
125.7788009833442
 30
0.0
  0
VERTEX
  5
5D3
  8
LAYER_1
 10
259.0207788085937
 20
125.815384624566
 30
0.0
  0
VERTEX
  5
5D4
  8
LAYER_1
 10
259.2328742173937
 20
125.83733556722
 30
0.0
  0
VERTEX
  5
5D5
  8
LAYER_1
 10
259.4595888888888
 20
125.8446527777778
 30
0.0
  0
VERTEX
  5
5D6
  8
LAYER_1
 10
259.6863616963703
 20
125.83733556722
 30
0.0
  0
VERTEX
  5
5D7
  8
LAYER_1
 10
259.8985002549913
 20
125.815384624566
 30
0.0
  0
VERTEX
  5
5D8
  8
LAYER_1
 10
260.0960050815158
 20
125.7788009833442
 30
0.0
  0
VERTEX
  5
5D9
  8
LAYER_1
 10
260.2788766927083
 20
125.7275856770833
 30
0.0
  0
VERTEX
  5
5DA
  8
LAYER_1
 10
260.4471156053331
 20
125.661739739312
 30
0.0
  0
VERTEX
  5
5DB
  8
LAYER_1
 10
260.6007223361545
 20
125.581264203559
 30
0.0
  0
VERTEX
  5
5DC
  8
LAYER_1
 10
260.7396974019368
 20
125.4861601033528
 30
0.0
  0
VERTEX
  5
5DD
  8
LAYER_1
 10
260.8640413194444
 20
125.3764284722222
 30
0.0
  0
VERTEX
  5
5DE
  8
LAYER_1
 10
260.9737546054416
 20
125.2520703436957
 30
0.0
  0
VERTEX
  5
5DF
  8
LAYER_1
 10
261.0688377766927
 20
125.1130867513021
 30
0.0
  0
VERTEX
  5
5E0
  8
LAYER_1
 10
261.149291349962
 20
124.9594787285699
 30
0.0
  0
VERTEX
  5
5E1
  8
LAYER_1
 10
261.2151158420139
 20
124.7912473090278
 30
0.0
  0
VERTEX
  5
5E2
  8
LAYER_1
 10
261.2663117696126
 20
124.6083935262044
 30
0.0
  0
VERTEX
  5
5E3
  8
LAYER_1
 10
261.3028796495225
 20
124.4109184136285
 30
0.0
  0
VERTEX
  5
5E4
  8
LAYER_1
 10
261.324819998508
 20
124.1988230048285
 30
0.0
  0
VERTEX
  5
5E5
  8
LAYER_1
 10
261.3321333333333
 20
123.9721083333333
 30
0.0
  0
VERTEX
  5
5E6
  8
LAYER_1
 10
261.3321333333333
 20
114.6097388888889
 30
0.0
  0
VERTEX
  5
5E7
  8
LAYER_1
 10
266.9494138888888
 20
114.6097388888889
 30
0.0
  0
VERTEX
  5
5E8
  8
LAYER_1
 10
267.1761906582302
 20
114.6024255540636
 30
0.0
  0
VERTEX
  5
5E9
  8
LAYER_1
 10
267.3883404134114
 20
114.5804852050781
 30
0.0
  0
VERTEX
  5
5EA
  8
LAYER_1
 10
267.5858626376682
 20
114.5439173251682
 30
0.0
  0
VERTEX
  5
5EB
  8
LAYER_1
 10
267.7687568142361
 20
114.4927213975694
 30
0.0
  0
VERTEX
  5
5EC
  8
LAYER_1
 10
267.9370224263509
 20
114.4268969055176
 30
0.0
  0
VERTEX
  5
5ED
  8
LAYER_1
 10
268.0906589572482
 20
114.3464433322482
 30
0.0
  0
VERTEX
  5
5EE
  8
LAYER_1
 10
268.2296658901638
 20
114.2513601609972
 30
0.0
  0
VERTEX
  5
5EF
  8
LAYER_1
 10
268.3540427083333
 20
114.141646875
 30
0.0
  0
VERTEX
  5
5F0
  8
LAYER_1
 10
268.4637888949924
 20
114.0173029574924
 30
0.0
  0
VERTEX
  5
5F1
  8
LAYER_1
 10
268.5589039333767
 20
113.8783278917101
 30
0.0
  0
VERTEX
  5
5F2
  8
LAYER_1
 10
268.6393873067219
 20
113.7247211608887
 30
0.0
  0
VERTEX
  5
5F3
  8
LAYER_1
 10
268.7052384982638
 20
113.5564822482639
 30
0.0
  0
VERTEX
  5
5F4
  8
LAYER_1
 10
268.756456991238
 20
113.3736106370714
 30
0.0
  0
VERTEX
  5
5F5
  8
LAYER_1
 10
268.7930422688802
 20
113.1761058105469
 30
0.0
  0
VERTEX
  5
5F6
  8
LAYER_1
 10
268.814993814426
 20
112.963967251926
 30
0.0
  0
VERTEX
  5
5F7
  8
LAYER_1
 10
268.822311111111
 20
112.7371944444444
 30
0.0
  0
VERTEX
  5
5F8
  8
LAYER_1
 10
268.814993814426
 20
112.5104797729492
 30
0.0
  0
VERTEX
  5
5F9
  8
LAYER_1
 10
268.7930422688802
 20
112.2983843641493
 30
0.0
  0
VERTEX
  5
5FA
  8
LAYER_1
 10
268.756456991238
 20
112.1009092515733
 30
0.0
  0
VERTEX
  5
5FB
  8
LAYER_1
 10
268.7052384982638
 20
111.91805546875
 30
0.0
  0
VERTEX
  5
5FC
  8
LAYER_1
 10
268.6393873067219
 20
111.7498240492079
 30
0.0
  0
VERTEX
  5
5FD
  8
LAYER_1
 10
268.5589039333767
 20
111.5962160264757
 30
0.0
  0
VERTEX
  5
5FE
  8
LAYER_1
 10
268.4637888949924
 20
111.457232434082
 30
0.0
  0
VERTEX
  5
5FF
  8
LAYER_1
 10
268.3540427083333
 20
111.3328743055555
 30
0.0
  0
VERTEX
  5
600
  8
LAYER_1
 10
268.2296658901638
 20
111.2231426744249
 30
0.0
  0
VERTEX
  5
601
  8
LAYER_1
 10
268.0906589572482
 20
111.1280385742187
 30
0.0
  0
VERTEX
  5
602
  8
LAYER_1
 10
267.9370224263509
 20
111.0475630384657
 30
0.0
  0
VERTEX
  5
603
  8
LAYER_1
 10
267.7687568142361
 20
110.9817171006944
 30
0.0
  0
VERTEX
  5
604
  8
LAYER_1
 10
267.5858626376682
 20
110.9305017944336
 30
0.0
  0
VERTEX
  5
605
  8
LAYER_1
 10
267.3883404134114
 20
110.8939181532118
 30
0.0
  0
VERTEX
  5
606
  8
LAYER_1
 10
267.1761906582302
 20
110.8719672105577
 30
0.0
  0
VERTEX
  5
607
  8
LAYER_1
 10
266.9494138888888
 20
110.86465
 30
0.0
  0
VERTEX
  5
608
  8
LAYER_1
 10
261.3321333333333
 20
110.86465
 30
0.0
  0
VERTEX
  5
609
  8
LAYER_1
 10
261.3321333333333
 20
90.26736666666666
 30
0.0
  0
VERTEX
  5
60A
  8
LAYER_1
 10
261.324819998508
 20
90.04059782104491
 30
0.0
  0
VERTEX
  5
60B
  8
LAYER_1
 10
261.3028796495225
 20
89.82847045898437
 30
0.0
  0
VERTEX
  5
60C
  8
LAYER_1
 10
261.2663117696126
 20
89.63098303019206
 30
0.0
  0
VERTEX
  5
60D
  8
LAYER_1
 10
261.2151158420139
 20
89.44813398437499
 30
0.0
  0
VERTEX
  5
60E
  8
LAYER_1
 10
261.149291349962
 20
89.27992177124021
 30
0.0
  0
VERTEX
  5
60F
  8
LAYER_1
 10
261.0688377766927
 20
89.12634484049477
 30
0.0
  0
VERTEX
  5
610
  8
LAYER_1
 10
260.9737546054416
 20
88.98740164184568
 30
0.0
  0
VERTEX
  5
611
  8
LAYER_1
 10
260.8640413194444
 20
88.86309062499998
 30
0.0
  0
VERTEX
  5
612
  8
LAYER_1
 10
260.7396974019368
 20
88.7534102396647
 30
0.0
  0
VERTEX
  5
613
  8
LAYER_1
 10
260.6007223361545
 20
88.65835893554686
 30
0.0
  0
VERTEX
  5
614
  8
LAYER_1
 10
260.4471156053331
 20
88.57793516235351
 30
0.0
  0
VERTEX
  5
615
  8
LAYER_1
 10
260.2788766927083
 20
88.51213736979166
 30
0.0
  0
VERTEX
  5
616
  8
LAYER_1
 10
260.0960050815158
 20
88.46096400756835
 30
0.0
  0
VERTEX
  5
617
  8
LAYER_1
 10
259.8985002549913
 20
88.42441352539062
 30
0.0
  0
VERTEX
  5
618
  8
LAYER_1
 10
259.6863616963703
 20
88.40248437296549
 30
0.0
  0
VERTEX
  5
619
  8
LAYER_1
 10
259.4595888888888
 20
88.395175
 30
0.0
  0
VERTEX
  5
61A
  8
LAYER_1
 10
259.2328742173937
 20
88.40248437296549
 30
0.0
  0
VERTEX
  5
61B
  8
LAYER_1
 10
259.0207788085937
 20
88.42441352539062
 30
0.0
  0
VERTEX
  5
61C
  8
LAYER_1
 10
258.8233036960178
 20
88.46096400756835
 30
0.0
  0
VERTEX
  5
61D
  8
LAYER_1
 10
258.6404499131944
 20
88.51213736979166
 30
0.0
  0
VERTEX
  5
61E
  8
LAYER_1
 10
258.4722184936522
 20
88.57793516235351
 30
0.0
  0
VERTEX
  5
61F
  8
LAYER_1
 10
258.3186104709201
 20
88.65835893554686
 30
0.0
  0
VERTEX
  5
620
  8
LAYER_1
 10
258.1796268785264
 20
88.7534102396647
 30
0.0
  0
VERTEX
  5
621
  8
LAYER_1
 10
258.05526875
 20
88.86309062499998
 30
0.0
  0
VERTEX
  5
622
  8
LAYER_1
 10
257.9455371188693
 20
88.98740164184568
 30
0.0
  0
VERTEX
  5
623
  8
LAYER_1
 10
257.8504330186632
 20
89.12634484049477
 30
0.0
  0
VERTEX
  5
624
  8
LAYER_1
 10
257.7699574829101
 20
89.27992177124021
 30
0.0
  0
VERTEX
  5
625
  8
LAYER_1
 10
257.7041115451389
 20
89.44813398437499
 30
0.0
  0
VERTEX
  5
626
  8
LAYER_1
 10
257.652896238878
 20
89.63098303019206
 30
0.0
  0
VERTEX
  5
627
  8
LAYER_1
 10
257.6163125976562
 20
89.82847045898437
 30
0.0
  0
VERTEX
  5
628
  8
LAYER_1
 10
257.5943616550022
 20
90.04059782104491
 30
0.0
  0
VERTEX
  5
629
  8
LAYER_1
 10
257.5870444444444
 20
90.26736666666666
 30
0.0
  0
SEQEND
  5
62A
  8
LAYER_1
  0
ENDSEC
  0
EOF
